<?xml version="1.0" encoding="UTF-8"?>
<svg width="24px" height="24px" viewBox="0 0 24 24" version="1.1" xmlns="http://www.w3.org/2000/svg" xmlns:xlink="http://www.w3.org/1999/xlink">
    <title>EEF01A8A-06CE-4279-8101-0C9DCBC6394F</title>
    <defs>
        <rect id="path-1" x="0" y="2" width="427" height="205" rx="12"></rect>
        <filter x="-3.5%" y="-7.3%" width="107.0%" height="114.6%" filterUnits="objectBoundingBox" id="filter-2">
            <feOffset dx="0" dy="0" in="SourceAlpha" result="shadowOffsetOuter1"></feOffset>
            <feGaussianBlur stdDeviation="5" in="shadowOffsetOuter1" result="shadowBlurOuter1"></feGaussianBlur>
            <feColorMatrix values="0 0 0 0 0   0 0 0 0 0   0 0 0 0 0  0 0 0 0.149644545 0" type="matrix" in="shadowBlurOuter1"></feColorMatrix>
        </filter>
    </defs>
    <g id="Artboards" stroke="none" stroke-width="1" fill="none" fill-rule="evenodd">
        <g id="Dsk-share" transform="translate(-1324.000000, -463.000000)">
            <rect fill="#FFFFFF" x="0" y="0" width="1440" height="1459"></rect>
            <g id="Group-6" transform="translate(965.000000, 345.000000)">
                <g id="Rectangle" fill-rule="nonzero">
                    <use fill="black" fill-opacity="1" filter="url(#filter-2)" xlink:href="#path-1"></use>
                    <use fill="#FFFFFF" xlink:href="#path-1"></use>
                </g>
                <g id="Group" transform="translate(21.000000, 100.000000)">
                    <g id="elements/social-circle-copy" transform="translate(320.000000, 0.000000)">
                        <circle id="Oval" fill="#F6F6F6" cx="30" cy="30" r="30"></circle>
                        <g id="icons/facebook" transform="translate(18.000000, 18.000000)" fill="#000000" fill-rule="nonzero">
                            <g id="pinterest" transform="translate(4.000000, 2.000000)">
                                <path d="M7.72347202,0.00170611157 L6.44737344,0.161229143 C5.64547463,0.312013534 4.86747858,0.570231804 4.1345465,0.92885877 C2.46178216,1.80889131 1.14721642,3.2433135 0.415997801,4.98632965 C0.317473909,5.31317196 0.240882292,5.64618271 0.186736988,5.98322009 C-0.372021988,7.96817666 0.349258573,10.0923518 2.00111871,11.3267276 C2.25034132,11.4762269 2.82854806,11.7554351 2.99800915,11.3865273 C3.07605721,11.1603508 3.1296028,10.9263779 3.15753218,10.6886355 C3.25365723,10.4890175 3.30788821,10.2719223 3.31705521,10.050629 C3.2572555,9.72164491 2.90830957,9.52228396 2.75881028,9.25309955 C2.51301458,8.71053276 2.35803222,8.13121228 2.30020298,7.53835547 L2.30020298,7.24920927 C2.37422441,4.80170445 4.09068195,2.7124839 6.4772733,2.16494808 C7.22382738,1.96318829 8.00208045,1.90561607 8.77022412,1.99548699 L9.87677593,2.18490988 C11.14148,2.51509343 12.187204,3.40300788 12.7180336,4.59746014 C13.0659515,5.62099486 13.1348325,6.71872236 12.9173946,7.77764002 C12.8077332,8.23624732 12.827695,8.63496922 12.6881338,9.0537386 C12.1796648,10.5989359 11.431997,12.0444956 9.74723843,12.4233414 C8.83088056,12.6627973 7.87922544,12.1848279 7.52411107,11.3067658 C7.39774347,11.0398946 7.3526795,10.7417527 7.39448789,10.4494366 C7.6836341,9.19329983 8.11225587,8.07672429 8.39137833,6.82067317 C8.73526955,5.89120735 8.26064141,4.85893398 7.33117559,4.51495709 C7.28319873,4.49722279 7.23445083,4.48145896 7.18510321,4.46792264 C6.02868974,4.18880017 5.141375,5.26545212 4.83235267,5.96334397 C4.54346348,6.70227316 4.47423974,7.50888398 4.63299172,8.28619465 C4.80125339,8.62348905 4.92205225,8.98245871 4.9918757,9.35290854 C4.77255295,10.349799 4.51339228,11.3467751 4.24420787,12.3436655 C3.97502347,13.340556 3.80556237,14.3375321 3.5264399,15.3344225 C3.39681673,15.773068 3.40684046,16.2416134 3.29717909,16.7002207 L3.29717909,17.368127 C3.22812669,17.8965577 3.25177243,18.4329561 3.36700254,18.9532479 C3.42680226,19.2224323 3.36700254,19.5514164 3.46672586,19.7507774 C3.46235654,19.8391919 3.486859,19.926664 3.53654931,20 C3.94529495,20 4.53343975,18.9133243 4.71292458,18.604302 C5.10128006,17.9866 5.43489052,17.336171 5.70981502,16.6602971 C5.97899942,16.0322287 6.01883735,15.3344225 6.22822203,14.6664305 C6.43923451,14.1161532 6.58967621,13.5445433 6.6768056,12.9617102 C6.80617175,13.2446879 7.02275297,13.4788321 7.29493593,13.6296165 C8.25198845,14.3064328 9.44978195,14.5488872 10.5947152,14.2975228 C11.986815,14.0272247 13.2375544,13.2710752 14.1238411,12.164095 C14.7262932,11.3443762 15.1909833,10.431788 15.4995773,9.46239857 C15.6690384,8.96395335 15.6989382,8.40562274 15.8285614,7.87727766 C16.0433435,6.58413016 15.873454,5.25645646 15.3400542,4.05909132 C14.1934932,1.45720385 11.7011814,-0.0580936071 7.72347202,0.00170611157 Z" id="Path"></path>
                            </g>
                        </g>
                    </g>
                </g>
            </g>
        </g>
    </g>
</svg>