<?xml version="1.0" encoding="UTF-8"?>
<svg fill="#00f0a5" width="20px" height="20px" viewBox="0 0 20 20" version="1.1" xmlns="http://www.w3.org/2000/svg" xmlns:xlink="http://www.w3.org/1999/xlink">
    <!-- Generator: Sketch 52.6 (67491) - http://www.bohemiancoding.com/sketch -->
    <title>basket</title>
    <desc>Created with Sketch.</desc>
    <defs>
        <path fill="#00f0a5" d="M16.803272,15.8306748 L15.8871166,5.51411043 C15.8674847,5.28507157 15.6744376,5.11165644 15.4486708,5.11165644 L13.5640082,5.11165644 C13.5378323,3.39059305 12.1308793,2 10.403272,2 C8.67566462,2 7.26871166,3.39059305 7.24253579,5.11165644 L5.35787321,5.11165644 C5.12883436,5.11165644 4.9390593,5.28507157 4.9194274,5.51411043 L4.00327198,15.8306748 C4.00327198,15.8437628 4,15.8568507 4,15.8699387 C4,17.0445808 5.07648262,18 6.40163599,18 L14.404908,18 C15.7300613,18 16.806544,17.0445808 16.806544,15.8699387 C16.806544,15.8568507 16.806544,15.8437628 16.803272,15.8306748 Z M10.403272,2.88343558 C11.6433538,2.88343558 12.6543967,3.87811861 12.6805726,5.11165644 L8.12597137,5.11165644 C8.15214724,3.87811861 9.16319018,2.88343558 10.403272,2.88343558 Z M14.404908,17.1165644 L6.40163599,17.1165644 C5.57055215,17.1165644 4.89652352,16.5668712 4.88343558,15.8895706 L5.7603272,5.99836401 L7.2392638,5.99836401 L7.2392638,7.3398773 C7.2392638,7.58527607 7.43558282,7.78159509 7.6809816,7.78159509 C7.92638037,7.78159509 8.12269939,7.58527607 8.12269939,7.3398773 L8.12269939,5.99836401 L12.6805726,5.99836401 L12.6805726,7.3398773 C12.6805726,7.58527607 12.8768916,7.78159509 13.1222904,7.78159509 C13.3676892,7.78159509 13.5640082,7.58527607 13.5640082,7.3398773 L13.5640082,5.99836401 L15.0429448,5.99836401 L15.9231084,15.8895706 C15.9100204,16.5668712 15.2327198,17.1165644 14.404908,17.1165644 Z" id="path-1"></path>
    </defs>
    <g id="basket" stroke="none" stroke-width="1" fill="none" fill-rule="evenodd">
        <mask id="mask-2" fill="white">
            <use xlink:href="#path-1"></use>
        </mask>
        <use id="Shape" fill="#000000" fill-rule="nonzero" xlink:href="#path-1"></use>
        <g id="black" mask="url(#mask-2)" fill="#000000">
            <rect fill="#00f0a5" x="0" y="0" width="20" height="20"></rect>
        </g>
    </g>
</svg>