<?xml version="1.0" encoding="UTF-8"?>
<svg width="24px" height="24px" viewBox="0 0 24 24" version="1.1" xmlns="http://www.w3.org/2000/svg" xmlns:xlink="http://www.w3.org/1999/xlink">
    <title>icons/address</title>
    <g id="icons/address" stroke="none" stroke-width="1" fill="none" fill-rule="evenodd">
        <g id="home-address" transform="translate(3.000000, 1.000000)" fill="#000000">
            <path d="M8.76968504,0.0379133858 C13.5829134,0.0379133858 17.498622,3.95362205 17.498622,8.76720472 C17.498622,10.7213386 16.8307087,12.641811 15.6185433,14.1742913 L15.6185433,14.1742913 L9.18566929,22.2615354 C9.08468504,22.3883858 8.93161417,22.4620866 8.76968504,22.4620866 C8.60775591,22.4620866 8.45468504,22.3880315 8.35370079,22.2615354 L8.35370079,22.2615354 L1.92507874,14.1785433 C0.709724409,12.642874 0.0407480315,10.7213386 0.0407480315,8.76685039 C0.0407480315,3.95362205 3.95681102,0.0379133858 8.76968504,0.0379133858 Z M8.76968504,1.10090551 C4.54251969,1.10090551 1.10374016,4.53968504 1.10374016,8.76685039 C1.10374016,10.482874 1.69122047,12.1701969 2.75775591,13.5180709 L2.75775591,13.5180709 L8.76968504,21.0766535 L14.7858661,13.5134646 C15.8492126,12.1687795 16.4356299,10.482874 16.4356299,8.76685039 C16.4356299,4.53968504 12.9968504,1.10090551 8.76968504,1.10090551 Z M8.76968504,3.07204724 C8.89511811,3.06744094 9.02125984,3.10429134 9.12437008,3.18791339 L9.12437008,3.18791339 L13.6651181,6.88145669 C13.8929528,7.06677165 13.9276772,7.40125984 13.7427165,7.62909449 C13.6374803,7.7584252 13.4844094,7.8253937 13.3299213,7.8253937 C13.3249606,7.8253937 13.32,7.82291339 13.3150394,7.82291339 C13.3072441,7.82326772 13.2998031,7.8253937 13.2920079,7.8253937 C13.2693307,7.8253937 13.2477165,7.81688976 13.2253937,7.81405512 L13.2253937,7.81405512 L13.2253937,12.3597638 C13.2253937,12.7406693 12.9153543,13.0503543 12.5344488,13.0503543 L12.5344488,13.0503543 L5.00562992,13.0503543 C4.62472441,13.0503543 4.31468504,12.7406693 4.31468504,12.3597638 L4.31468504,12.3597638 L4.31468504,7.81972441 C4.29625984,7.82185039 4.27748031,7.82255906 4.25870079,7.82291339 C4.08826772,7.83850394 3.91322835,7.77153543 3.7973622,7.62909449 C3.61204724,7.40125984 3.64641732,7.06641732 3.87425197,6.88145669 L3.87425197,6.88145669 L8.41535433,3.18791339 C8.51811024,3.10429134 8.64425197,3.06744094 8.76968504,3.07204724 Z M8.72645669,8.3838189 C8.38311024,8.40472441 8.10389764,8.72468504 8.10389764,9.09708661 L8.10389764,9.09708661 L8.10389764,11.9873622 L9.43582677,11.9873622 L9.43582677,9.04889764 C9.43582677,8.87173228 9.36566929,8.70271654 9.23846457,8.57338583 C9.10488189,8.44086614 8.92240157,8.37318898 8.72645669,8.3838189 Z M8.76968504,4.30086614 L5.37767717,7.06003937 L5.37767717,11.9873622 L7.04090551,11.9873622 L7.04090551,9.09708661 C7.04090551,8.15740157 7.75275591,7.37822835 8.66125984,7.32295276 C9.15732283,7.29248031 9.64027559,7.47496063 9.99177165,7.82362205 C10.3205906,8.15775591 10.4988189,8.59110236 10.4988189,9.04889764 L10.4988189,9.04889764 L10.4988189,11.9873622 L12.1620472,11.9873622 L12.1620472,7.05968504 L8.76968504,4.30086614 Z" id="Combined-Shape"></path>
        </g>
    </g>
</svg>