<?xml version="1.0" encoding="UTF-8"?>
<svg width="24px" height="24px" viewBox="0 0 24 24" version="1.1" xmlns="http://www.w3.org/2000/svg" xmlns:xlink="http://www.w3.org/1999/xlink">
    <title>icons/cat-menu</title>
    <g id="icons/cat-menu" stroke="none" stroke-width="1" fill="none" fill-rule="evenodd">
        <path d="M21.3023256,14 C21.6876405,14 22,14.3357864 22,14.75 C22,15.1296958 21.7375313,15.443491 21.3969959,15.4931534 L21.3023256,15.5 L2.69767442,15.5 C2.31235948,15.5 2,15.1642136 2,14.75 C2,14.3703042 2.26246873,14.056509 2.60300413,14.0068466 L2.69767442,14 L21.3023256,14 Z M21.3023256,8 C21.6876405,8 22,8.33578644 22,8.75 C22,9.12969577 21.7375313,9.44349096 21.3969959,9.49315338 L21.3023256,9.5 L2.69767442,9.5 C2.31235948,9.5 2,9.16421356 2,8.75 C2,8.37030423 2.26246873,8.05650904 2.60300413,8.00684662 L2.69767442,8 L21.3023256,8 Z" id="Path" fill="#000000"></path>
    </g>
</svg>