<?xml version="1.0" encoding="UTF-8"?>
<svg width="24px" height="24px" viewBox="0 0 24 24" version="1.1" xmlns="http://www.w3.org/2000/svg" xmlns:xlink="http://www.w3.org/1999/xlink">
    <title>icons/logout</title>
    <g id="icons/logout" stroke="none" stroke-width="1" fill="none" fill-rule="evenodd">
        <g id="log-out" transform="translate(3.000000, 3.000000)" fill="#000000">
            <path d="M6,-0.5 C6.27614237,-0.5 6.5,-0.276142375 6.5,0 C6.5,0.245459889 6.32312484,0.44960837 6.08987563,0.491944331 L6,0.5 L2,0.5 C1.22030388,0.5 0.579551322,1.09488808 0.506866578,1.85553999 L0.5,2 L0.5,16 C0.5,16.7796961 1.09488808,17.4204487 1.85553999,17.4931334 L2,17.5 L6,17.5 C6.27614237,17.5 6.5,17.7238576 6.5,18 C6.5,18.2454599 6.32312484,18.4496084 6.08987563,18.4919443 L6,18.5 L2,18.5 C0.6745166,18.5 -0.410038672,17.4684641 -0.49468232,16.1643757 L-0.5,16 L-0.5,2 C-0.5,0.6745166 0.531535936,-0.410038672 1.83562431,-0.49468232 L2,-0.5 L6,-0.5 Z M13.2843055,3.58859116 L13.3535534,3.64644661 L18.3535534,8.64644661 L18.3654113,8.65871357 C18.3770608,8.67118132 18.3880797,8.68424576 18.3984173,8.69785608 L18.3535534,8.64644661 C18.3803877,8.67328088 18.4035342,8.70240643 18.422993,8.73319348 C18.4299807,8.74431753 18.4367067,8.75595333 18.4429657,8.76787276 C18.4502504,8.78172431 18.4566485,8.79546114 18.4623894,8.8094049 C18.4675915,8.82197493 18.4724419,8.83526315 18.4767316,8.84880083 C18.481552,8.86416529 18.4856039,8.87952575 18.4889143,8.89501295 C18.4912332,8.90562898 18.4932062,8.91661634 18.4948142,8.92772188 C18.4973429,8.94546098 18.4989382,8.96293275 18.4996194,8.98043349 C18.4998635,8.98639522 18.5,8.99318167 18.5,9 L18.4995793,9.02056948 C18.498877,9.03773477 18.4972949,9.05487076 18.4948333,9.07190411 L18.5,9 C18.5,9.03609704 18.4961748,9.07130067 18.4889078,9.10522765 C18.4856039,9.12047425 18.481552,9.13583471 18.4767587,9.15101164 C18.4724419,9.16473685 18.4675915,9.17802507 18.4622078,9.19103656 C18.4566485,9.20453886 18.4502504,9.21827569 18.443195,9.23175819 C18.4367067,9.24404667 18.4299807,9.25568247 18.422812,9.26701032 C18.4192668,9.27270191 18.4154054,9.27853638 18.4114088,9.2843055 L18.3984173,9.30214392 C18.3880797,9.31575424 18.3770608,9.32881868 18.3654113,9.34128643 L18.3535534,9.35355339 L13.3535534,14.3535534 C13.1582912,14.5488155 12.8417088,14.5488155 12.6464466,14.3535534 C12.4728803,14.179987 12.4535951,13.9105626 12.5885912,13.7156945 L12.6464466,13.6464466 L16.793,9.5 L6,9.5 C5.72385763,9.5 5.5,9.27614237 5.5,9 C5.5,8.75454011 5.67687516,8.55039163 5.91012437,8.50805567 L6,8.5 L16.793,8.5 L12.6464466,4.35355339 C12.4728803,4.17998704 12.4535951,3.91056264 12.5885912,3.7156945 L12.6464466,3.64644661 C12.820013,3.47288026 13.0894374,3.45359511 13.2843055,3.58859116 Z" id="Combined-Shape"></path>
        </g>
    </g>
</svg>