<?xml version="1.0" encoding="UTF-8"?>
<svg width="14px" height="14px" viewBox="0 0 14 14" version="1.1" xmlns="http://www.w3.org/2000/svg" xmlns:xlink="http://www.w3.org/1999/xlink">
    <!-- Generator: Sketch 63.1 (92452) - https://sketch.com -->
    <title>return@3x</title>
    <desc>Created with Sketch.</desc>
    <defs>
        <path d="M11.237052,15.3819086 C11.5347798,15.326577 11.8228581,15.5261826 11.8766356,15.8252477 C11.9309191,16.1242766 11.7325423,16.4104394 11.4332603,16.4647229 C11.1344844,16.5187534 10.8292754,16.5530871 10.5256566,16.5667845 C10.5175249,16.5671098 10.5089595,16.5673628 10.500864,16.5673628 C10.207979,16.5673628 9.96460687,16.3368206 9.9517046,16.0415503 C9.93822409,15.7378954 10.1731031,15.4807536 10.4767219,15.4672731 C10.730864,15.4560695 10.9866685,15.4270123 11.237052,15.3819086 Z M7.26203438,15.3077115 C7.381299,15.0283432 7.70486754,14.8985616 7.98427202,15.0173202 C8.2181391,15.1169242 8.46151122,15.2018551 8.70705177,15.269583 C8.99990063,15.3499239 9.17247293,15.6530007 9.09187896,15.9459579 C9.02465708,16.1901613 8.8027526,16.3505541 8.56144051,16.3505541 C8.51304799,16.3505541 8.46422177,16.3441211 8.41528714,16.3307128 C8.12193231,16.2501189 7.83175787,16.1487801 7.55285935,16.0297684 C7.27280434,15.9107207 7.1428059,15.5874413 7.26203438,15.3077115 Z M13.563977,14.3866633 C13.8094815,14.2074411 14.1539394,14.2617246 14.3328724,14.5071206 C14.5118417,14.7526973 14.4580642,15.09683 14.2125236,15.2760522 C13.9658988,15.4555274 13.7058297,15.619462 13.4392552,15.7634469 C13.3559868,15.8080447 13.2668274,15.8292955 13.1787162,15.8292955 C12.9825439,15.8292955 12.7928048,15.7244871 12.6933814,15.5401691 C12.5493604,15.2725465 12.6493258,14.9387863 12.9169845,14.7945484 C13.1399732,14.6741995 13.357577,14.5371175 13.563977,14.3866633 Z M5.42044404,13.8078685 C5.63540949,13.5929754 5.98358991,13.5929754 6.19859149,13.8078685 C6.28829295,13.8973893 6.38016285,13.9833682 6.47369522,14.0655162 C6.70210505,14.2662422 6.72469304,14.6139528 6.52422006,14.8422542 C6.41565311,14.966181 6.2635365,15.0293551 6.1104441,15.0293551 C5.9814576,15.0293551 5.85196513,14.9844682 5.74769894,14.8925622 C5.63645757,14.7947652 5.52677026,14.6923783 5.42044404,14.586016 C5.20544246,14.3710867 5.20544246,14.0225448 5.42044404,13.8078685 Z M15.229887,12.4791883 C15.3738358,12.2116019 15.7064395,12.1110943 15.9752547,12.2551154 C16.2428412,12.3991365 16.3427705,12.7326076 16.1992915,13.0005554 C16.0553066,13.2675998 15.8918779,13.5279219 15.7130171,13.7738239 C15.6049923,13.9218204 15.437299,14.0005351 15.2674734,14.0005351 C15.1551117,14.0005351 15.0418103,13.9664543 14.9439771,13.8951847 C14.6984004,13.7165046 14.644117,13.3723358 14.82305,13.12647 C14.9724199,12.9206482 15.1094297,12.7027553 15.229887,12.4791883 Z M16.4738531,9.51260735 C16.7775442,9.52605172 17.0129292,9.7831212 16.9994487,10.0869207 C16.9859682,10.3910816 16.9521043,10.6962545 16.8983629,10.9941992 C16.8505486,11.2604846 16.6184163,11.4471879 16.3572268,11.4471879 C16.3249892,11.4471879 16.2921733,11.4442244 16.2594659,11.4383696 C15.9601117,11.384303 15.7613374,11.0983931 15.8149703,10.7991112 C15.8601463,10.5494145 15.8886252,10.2933931 15.8999012,10.0381668 C15.9133817,9.74286035 16.1568261,9.5120291 16.4490967,9.5120291 L16.4490967,9.5120291 Z M15.7372676,6.82423819 C16.0165998,6.70497357 16.3396624,6.83450218 16.4595052,7.11390666 C16.5787337,7.39280518 16.6803255,7.68301576 16.7614254,7.9761176 C16.8420917,8.26903874 16.6700976,8.57211545 16.3772126,8.65299855 C16.3282419,8.66640678 16.2788735,8.67287598 16.230481,8.67287598 C15.9892051,8.67287598 15.7677704,8.51298911 15.7006208,8.26903874 C15.6323147,8.02317292 15.5474561,7.78030678 15.4474546,7.54676496 C15.3281538,7.26739662 15.4576824,6.94386422 15.7372676,6.82423819 Z M10.2192549,3 C12.0318242,3 13.7358627,3.70586586 15.0175959,4.98723774 L15.0175959,4.98723774 L15.0181019,4.98806898 L15.1749936,5.14964543 L15.1749936,5.14964543 L15.3249734,5.3148179 C15.5254825,5.54286632 15.5033644,5.89086603 15.2750268,6.091592 C15.1707606,6.1834619 15.0406538,6.22860176 14.9117396,6.22856561 C14.7590808,6.22856561 14.6070365,6.16542765 14.4984696,6.04157314 C14.415671,5.94807691 14.3301257,5.85620701 14.2404966,5.76668626 L14.2404966,5.76668626 L14.2399545,5.76643327 L14.0344417,5.57045531 C12.9868102,4.62053785 11.6429741,4.10052334 10.2192188,4.10052334 C8.8854066,4.10052334 7.62203284,4.55730684 6.60691019,5.39591785 L6.60691019,5.39591785 L7.50327418,6.29253482 C7.64241624,6.43146004 7.69669972,6.63402919 7.64566892,6.82402135 C7.59460197,7.01397737 7.44628015,7.16233533 7.2566494,7.213077 L7.2566494,7.213077 L3.69269721,8.16802522 C3.64542505,8.1806745 3.59757464,8.18685458 3.55033862,8.18685458 C3.40624527,8.18685458 3.26544074,8.13040266 3.16124682,8.02563049 C3.02206862,7.88670528 2.96778515,7.68413612 3.01888823,7.49414396 L3.01888823,7.49414396 L3.97372803,3.93022792 C4.024289,3.7402719 4.17257468,3.59195008 4.36281983,3.54113612 C4.552559,3.49061129 4.75509201,3.54435265 4.89430635,3.68356699 L4.89430635,3.68356699 L5.82666658,4.61563809 C7.05194794,3.57095227 8.59154579,3 10.2192549,3 Z" id="path-1"></path>
    </defs>
    <g id="Symbols" stroke="none" stroke-width="1" fill="none" fill-rule="evenodd">
        <g id="Artboard" transform="translate(-3.000000, -3.000000)">
            <g id="return">
                <mask id="mask-2" fill="white">
                    <use xlink:href="#path-1"></use>
                </mask>
                <use id="Path-2" fill="#000000" fill-rule="evenodd" xlink:href="#path-1"></use>
                <g id="black" mask="url(#mask-2)"></g>
            </g>
        </g>
    </g>
</svg>