<?xml version="1.0" encoding="UTF-8"?>
<svg width="24px" height="24px" viewBox="0 0 24 24" version="1.1" xmlns="http://www.w3.org/2000/svg" xmlns:xlink="http://www.w3.org/1999/xlink">
    <title>icons/account</title>
    <g id="icons/account" stroke="none" stroke-width="1" fill="none" fill-rule="evenodd">
        <path d="M12,1.5 C15.0375661,1.5 17.5,3.96243388 17.5,7 C17.5,8.29859288 17.0499517,9.49207135 16.2973181,10.4329724 L16.3794004,10.478526 C20.1377841,12.6023741 22.5,15.1021732 22.5,18 C22.5,24.1895142 1.5,24.1895142 1.5,18 C1.5,15.0739313 3.90239756,12.5585923 7.70271778,10.4319198 C6.95004831,9.49207135 6.5,8.29859288 6.5,7 C6.5,3.96243388 8.96243388,1.5 12,1.5 Z M8.385,11.197 L8.01269548,11.4055932 C4.61121286,13.346996 2.5,15.5942952 2.5,18 C2.5,22.8561808 21.5,22.8561808 21.5,18 C21.5,15.6560922 19.4926431,13.4581683 16.2219794,11.5417696 L16.2219794,11.5417696 L15.828,11.316 L15.7869587,11.3437416 C14.5890436,12.0721217 13.4177813,12.4596601 12.2759333,12.4976975 L12.2759333,12.4976975 L12.068,12.498 L12,12.5 C10.8406038,12.5 9.76499519,12.1412624 8.87811878,11.5287318 L8.6215348,11.3621449 L8.385,11.197 Z M12,2.5 C9.51471863,2.5 7.5,4.51471863 7.5,7 C7.5,8.52798781 8.26155811,9.87810419 9.42581512,10.6914899 C10.280192,11.2175672 11.139375,11.4845744 12.0089143,11.5000795 C14.4880086,11.4972717 16.5,9.48359872 16.5,7 C16.5,4.51471863 14.4852814,2.5 12,2.5 Z" id="Combined-Shape" fill="#000000"></path>
    </g>
</svg>