<?xml version="1.0" encoding="UTF-8"?>
<svg width="32px" height="19px" viewBox="0 0 32 19" version="1.1" xmlns="http://www.w3.org/2000/svg" xmlns:xlink="http://www.w3.org/1999/xlink">
    <title>MC@3x</title>
    <g id="Symbols" stroke="none" stroke-width="1" fill="none" fill-rule="evenodd">
        <g id="Footer" transform="translate(-1171.000000, -453.000000)">
            <g id="MC" transform="translate(1171.000000, 453.000000)">
                <path d="M31.8378378,9.5 C31.8378378,4.31351351 27.627027,0.0513513514 22.3891892,0.0513513514 C20.1297297,0.0513513514 18.0756757,0.821621622 16.4324324,2.15675676 C17.6648649,3.33783784 18.6405405,4.82702703 19.1027027,6.52162162 L18.3324324,6.52162162 C17.8189189,5.03243243 16.9972973,3.6972973 15.8675676,2.61891892 C14.7378378,3.6972973 13.9162162,5.03243243 13.4027027,6.52162162 L12.6324324,6.52162162 C13.1459459,4.82702703 14.0702703,3.33783784 15.3027027,2.15675676 C13.6594595,0.821621622 11.6567568,0.0513513514 9.3972973,0.0513513514 C4.21081081,0.0513513514 0,4.31351351 0,9.5 C0,14.6864865 4.21081081,18.9486486 9.44864865,18.9486486 C11.7081081,18.9486486 13.7621622,18.127027 15.3540541,16.8432432 C14.1216216,15.6621622 13.1972973,14.172973 12.6837838,12.4783784 L13.4540541,12.4783784 C13.9675676,13.9675676 14.7891892,15.3027027 15.9189189,16.3810811 C17.0486486,15.3027027 17.9216216,13.9675676 18.3837838,12.4783784 L19.1540541,12.4783784 C18.6405405,14.172973 17.7162162,15.6621622 16.4837838,16.8432432 C18.127027,18.1783784 20.1810811,18.9486486 22.4405405,18.9486486 C27.627027,18.9486486 31.8378378,14.6864865 31.8378378,9.5" id="Path" fill="#FFFFFF"></path>
                <g id="Group" transform="translate(0.770270, 7.253378)" fill="#212121">
                    <path d="M24.1351351,4.45472973 L24.8027027,0.962837838 L25.6243243,0.962837838 L25.727027,1.3222973 C25.8810811,1.16824324 26.1378378,0.962837838 26.6513514,0.962837838 L26.3945946,1.88716216 C26.1378378,1.88716216 25.727027,1.83581081 25.4189189,2.86283784 L25.1108108,4.45472973 L24.1351351,4.45472973" id="Path"></path>
                    <path d="M11.5540541,0.0898648649 L12.4783784,0.0898648649 L12.272973,1.01418919 L12.7864865,1.01418919 L12.6324324,1.73310811 L12.1702703,1.73310811 L11.9135135,3.11959459 C11.8621622,3.37635135 11.9135135,3.63310811 12.427027,3.53040541 L12.3243243,4.30067568 C12.1189189,4.45472973 11.8621622,4.45472973 11.6054054,4.45472973 C11.4,4.45472973 10.6810811,4.30067568 10.8351351,3.37635135 L11.5540541,0.0898648649" id="Path"></path>
                    <path d="M15.6621622,2.91418919 C15.7648649,2.34932432 16.0216216,0.962837838 14.3783784,0.962837838 C12.8378378,0.962837838 12.6324324,2.50337838 12.6324324,2.70878378 C12.5810811,2.91418919 12.5810811,4.45472973 14.2243243,4.45472973 C14.6351351,4.45472973 15.2,4.40337838 15.4567568,4.30067568 L15.6108108,3.58175676 C15.4567568,3.63310811 14.9432432,3.68445946 14.5324324,3.68445946 C14.172973,3.68445946 13.5567568,3.68445946 13.6594595,2.91418919 L15.6621622,2.91418919" id="Path"></path>
                    <path d="M10.6297297,1.78445946 L10.8351351,1.06554054 C10.372973,0.911486486 10.0135135,0.911486486 9.91081081,0.911486486 C9.75675676,0.911486486 8.62702703,0.911486486 8.47297297,1.73310811 C8.31891892,2.40067568 8.57567568,2.65743243 8.78108108,2.76013514 C9.14054054,2.91418919 9.34594595,3.06824324 9.55135135,3.17094595 C9.80810811,3.27364865 9.75675676,3.68445946 9.44864865,3.68445946 C9.29459459,3.68445946 8.67837838,3.73581081 8.21621622,3.58175676 L8.06216216,4.30067568 C8.52432432,4.40337838 8.83243243,4.40337838 9.19189189,4.40337838 C9.44864865,4.40337838 10.5783784,4.45472973 10.7324324,3.4277027 C10.8351351,2.91418919 10.5783784,2.70878378 10.4243243,2.55472973 C10.2189189,2.45202703 9.96216216,2.24662162 9.75675676,2.19527027 C9.55135135,2.09256757 9.3972973,1.78445946 9.75675676,1.68175676 C9.91081081,1.73310811 10.372973,1.73310811 10.6297297,1.78445946" id="Path"></path>
                    <polyline id="Path" points="4.46756757 4.45472973 5.28918919 0.243918919 3.6972973 0.243918919 2.56756757 2.81148649 2.36216216 0.243918919 0.872972973 0.243918919 0.0513513514 4.45472973 0.975675676 4.45472973 1.59189189 1.425 1.84864865 4.45472973 2.72162162 4.45472973 4.05675676 1.47635135 3.49189189 4.45472973 4.46756757 4.45472973"></polyline>
                    <path d="M5.54594595,1.06554054 L5.39189189,1.83581081 C5.64864865,1.83581081 6.26486486,1.73310811 6.57297297,1.73310811 C6.88108108,1.73310811 7.29189189,1.68175676 7.13783784,2.19527027 C6.88108108,2.19527027 5.18648649,1.93851351 4.92972973,3.4277027 C4.82702703,4.14662162 5.44324324,4.50608108 5.90540541,4.50608108 C6.36756757,4.50608108 6.52162162,4.40337838 6.67567568,4.30067568 L6.77837838,4.50608108 L7.65135135,4.50608108 L8.01081081,2.60608108 C8.11351351,2.14391892 8.26756757,1.01418919 6.67567568,1.01418919 C6.47027027,0.962837838 6.16216216,0.962837838 5.54594595,1.06554054" id="Path"></path>
                    <path d="M20.9,1.21959459 C20.6432432,1.06554054 20.4891892,1.06554054 20.1810811,1.06554054 C19.872973,1.06554054 19.1540541,1.37364865 19.0513514,2.19527027 C18.8972973,3.2222973 19.5648649,3.68445946 20.5405405,3.37635135 L20.7972973,4.24932432 C20.4891892,4.40337838 20.1810811,4.45472973 19.6675676,4.45472973 C18.6918919,4.45472973 17.6135135,3.58175676 18.0756757,1.78445946 C18.4351351,0.500675676 19.5648649,-0.0128378378 20.2324324,0.0385135135 C21.0027027,0.0898648649 21.3108108,0.346621622 21.5162162,0.603378378 L20.9,1.21959459" id="Path"></path>
                    <path d="M28.9621622,1.37364865 C28.7567568,1.21959459 28.6540541,0.962837838 28.2432432,0.962837838 C27.7297297,0.962837838 26.9081081,0.860135135 26.4459459,2.45202703 C26.1378378,3.53040541 26.7540541,4.45472973 27.4216216,4.45472973 C27.7297297,4.45472973 28.0378378,4.30067568 28.2432432,4.19797297 L28.3459459,4.45472973 L29.372973,4.45472973 L30.1945946,0.0385135135 L29.2189189,0.0385135135 L28.9621622,1.37364865" id="Path"></path>
                    <path d="M21.5675676,1.06554054 L21.4135135,1.83581081 C21.6702703,1.83581081 22.2864865,1.73310811 22.5945946,1.73310811 C22.9027027,1.73310811 23.2621622,1.68175676 23.1594595,2.19527027 C22.9027027,2.19527027 21.2081081,1.93851351 20.9513514,3.4277027 C20.8486486,4.14662162 21.4648649,4.50608108 21.927027,4.50608108 C22.3891892,4.50608108 22.5432432,4.40337838 22.6972973,4.30067568 L22.8,4.50608108 L23.672973,4.50608108 L24.0324324,2.60608108 C24.1351351,2.14391892 24.2891892,1.01418919 22.6972973,1.01418919 C22.5432432,0.962837838 22.1837838,0.962837838 21.5675676,1.06554054" id="Path"></path>
                </g>
                <g id="Group" transform="translate(6.611486, 8.858108)" fill="#FFFFFF">
                    <path d="M7.81824324,0.641891892 L8.99932432,0.641891892 C9.05067568,0.282432432 8.94797297,0.0256756757 8.58851351,0.0256756757 C8.1777027,0.0256756757 7.92094595,0.231081081 7.81824324,0.641891892" id="Path"></path>
                    <path d="M1.14256757,1.30945946 C0.988513514,1.30945946 0.629054054,1.20675676 0.320945946,1.41216216 C0.0128378378,1.61756757 -0.0898648649,1.97702703 0.269594595,2.07972973 C0.577702703,2.18243243 0.988513514,1.97702703 1.09121622,1.66891892 L1.14256757,1.30945946" id="Path"></path>
                    <path d="M22.8128378,1.20675676 C22.9155405,0.898648649 22.8641892,0.487837838 22.7614865,0.333783784 C22.4533784,-0.077027027 21.7858108,0.231081081 21.5804054,1.00135135 C21.4263514,1.51486486 21.7344595,1.87432432 22.0425676,1.87432432 C22.402027,1.87432432 22.6074324,1.61756757 22.8128378,1.20675676" id="Path"></path>
                    <path d="M17.2155405,1.30945946 C17.0614865,1.30945946 16.702027,1.20675676 16.3939189,1.41216216 C16.0858108,1.61756757 15.9831081,1.97702703 16.3425676,2.07972973 C16.6506757,2.18243243 17.1128378,1.97702703 17.1641892,1.66891892 L17.2155405,1.30945946" id="Path"></path>
                </g>
                <path d="M16.4324324,11.7081081 L17.1,8.26756757 L17.9216216,8.26756757 L18.0243243,8.62702703 C18.1783784,8.47297297 18.4351351,8.26756757 18.9486486,8.26756757 L18.6918919,9.19189189 C18.4864865,9.19189189 18.0243243,9.14054054 17.7162162,10.1675676 L17.4081081,11.7594595 L16.4324324,11.7594595" id="Path" fill="#212121"></path>
                <g id="Group" transform="translate(0.513514, 0.000000)" fill="#FFFFFF">
                    <path d="M8.93513514,0.0513513514 C4.77567568,0.0513513514 1.23243243,2.77297297 0,6.52162162 L12.2216216,6.52162162 C12.7351351,4.82702703 13.6594595,3.33783784 14.8918919,2.15675676 C13.1972973,0.872972973 11.1432432,0.0513513514 8.93513514,0.0513513514 Z" id="Path"></path>
                    <path d="M15.4054054,2.67027027 C14.2756757,3.74864865 13.4540541,5.03243243 12.9405405,6.57297297 L17.8702703,6.57297297 C17.3567568,5.08378378 16.5351351,3.74864865 15.4054054,2.67027027 Z" id="Path"></path>
                    <path d="M21.8756757,0.0513513514 C19.6162162,0.0513513514 17.5621622,0.821621622 15.9189189,2.15675676 C17.1513514,3.33783784 18.0756757,4.82702703 18.5891892,6.52162162 L30.8108108,6.52162162 C29.6297297,2.77297297 26.0864865,0.0513513514 21.8756757,0.0513513514 Z" id="Path"></path>
                </g>
            </g>
        </g>
    </g>
</svg>