<?xml version="1.0" encoding="utf-8"?>
<!-- Generator: Adobe Illustrator 25.4.1, SVG Export Plug-In . SVG Version: 6.00 Build 0)  -->
<svg version="1.1" id="Layer_1" xmlns="http://www.w3.org/2000/svg" xmlns:xlink="http://www.w3.org/1999/xlink" x="0px" y="0px"
	 viewBox="0 0 595.28 138.5" style="enable-background:new 0 0 595.28 138.5;" xml:space="preserve">
<style type="text/css">
	.st0{fill:#010202;}
</style>
<g>
	<g>
		<path class="st0" d="M473.84,115.64h41.07v-9.41h-31.17V87.3h23.85v-9.41h-23.85V64.38h31.17v-9.45h-41.07V115.64z M97.12,64.58
			h21.5v51.3h9.89v-51.3h21.54v-9.41H97.12V64.58z M284.89,69.87c-5.3-2.6-11.01-3.78-15.96-4.68c-2.73-0.5-5.47-0.97-8.21-1.44
			l-0.29-0.05c-3.59-0.62-7.3-1.26-10.94-1.95c-3.96-0.75-7.21-1.94-9.93-3.62c-3.02-1.86-4.69-4.12-5.1-6.89
			c-0.89-5.9,1.05-10.54,5.77-13.79c3.57-2.46,7.9-3.71,13.62-3.93c10.04-0.38,19.46,2.17,28.07,7.58c0.2,0.12,0.4,0.23,0.61,0.33
			l1.2,0.63l6.37-7.89l-1.46-1.05c-0.22-0.16-0.42-0.31-0.62-0.44c-7.24-4.66-15.22-7.68-23.71-8.97
			c-8.92-1.35-16.77-0.72-23.99,1.93c-10.97,4.03-16.84,11.67-17.44,22.71c-0.45,8.37,2.96,14.62,10.15,18.59
			c5.73,3.17,11.84,4.48,18.12,5.66c2.69,0.5,5.39,0.98,8.08,1.46c3.92,0.69,7.98,1.41,11.99,2.21c3.82,0.76,6.96,1.99,9.6,3.76
			c3.9,2.61,5.44,6.12,4.71,10.74c-0.69,4.31-3.12,7.71-7.45,10.39c-6.4,3.96-14.04,5.23-23.36,3.88
			c-7.79-1.12-15.06-4.32-22.25-9.76c-0.69-0.52-1.37-1.06-2.05-1.62l-1.95-1.56l-6.07,6.76l-0.57,0.87l0.7,1.01l0.19,0.17
			c10.79,8.91,21.97,13.8,34.19,14.94c1.61,0.15,3.23,0.23,4.81,0.23c6.86,0,13.34-1.44,19.26-4.28
			c6.31-3.03,10.74-7.16,13.56-12.64c2.83-5.51,3.41-11.49,1.63-16.85C294.39,76.98,290.39,72.57,284.89,69.87z M61.77,53.11
			c-3.58-0.8-6.74-0.98-9.66-0.53c-1.73,0.26-3.11,0.53-4.36,0.88c7.37-8.23,17.09-18.7,28.37-28.72l2.6-2.31l-7.31,0
			c-2.09,0-4.25,0-6.21-0.02c-0.15,0-0.23,0-0.32,0.01l-0.53,0.05c-0.3,0.09-0.43,0.17-1.27,0.96c-8.16,7.73-16.41,16.24-25.22,26
			c-5.4,5.98-9.46,11.89-12.4,18.08c-3.43,7.2-4.69,13.41-3.97,19.52c0.74,6.31,3.04,11.77,6.82,16.21
			c6.75,7.93,15.52,11.95,26.06,11.95c1.14,0,2.32-0.05,3.51-0.14c7.12-0.57,13.59-3.32,19.25-8.17
			c10.37-8.89,13.57-24.17,7.61-36.33C80.25,61.4,72.52,55.53,61.77,53.11z M73.71,92.37c-2.63,5.38-7.55,9.38-13.49,10.98
			c-10.33,2.78-20.72-1.83-25.26-11.18c-1.29-2.66-1.92-5.51-1.92-8.7c0-9.8,6.7-17.92,16.66-20.2c1.58-0.36,3.17-0.54,4.75-0.54
			c8.42,0,16.39,4.96,19.68,12.77C76.43,80.96,76.28,87.11,73.71,92.37z M197.92,78.08h-28.61V55.17h-9.85v60.71h9.85V87.53h28.61
			v28.34h9.9V55.17h-9.9V78.08z M409.53,72.53c0-9.85-7.78-17.56-17.72-17.56h-27.15v60.66h9.85V89.97h12.98l14.94,25.67h11.24
			L398,88.76C405.13,86.2,409.53,80.02,409.53,72.53z M391.08,80.68h-16.57v-16.3h16.53c4.81,0,8.72,3.66,8.72,8.15
			C399.76,77.57,395.25,80.68,391.08,80.68z M302.43,64.34h21.5v51.3h9.89v-51.3h21.54v-9.41h-52.93V64.34z M423.35,115.64h41.07
			v-9.41h-31.17V87.3h23.85v-9.41h-23.85V64.38h31.17v-9.45h-41.07V115.64z M521.04,54.93v9.41h21.5v51.3h9.89v-51.3h21.54v-9.41
			H521.04z"/>
	</g>
</g>
</svg>
