<?xml version="1.0" encoding="UTF-8"?>
<svg width="24px" height="24px" viewBox="0 0 24 24" version="1.1" xmlns="http://www.w3.org/2000/svg" xmlns:xlink="http://www.w3.org/1999/xlink">
    <title>icons/favorites-active</title>
    <g id="icons/favorites-active" stroke="none" stroke-width="1" fill="none" fill-rule="evenodd">
        <path d="M16.4766609,2.53417934 C15.3263105,2.53417934 14.2071612,2.86002873 13.2410136,3.47643237 L13.0105169,3.63103021 C12.7083139,3.84391405 12.4268869,4.08354635 12.1695013,4.34674687 L11.999672,4.52785546 L11.8304304,4.34668376 C11.5086945,4.01767849 11.1494317,3.7255296 10.7589812,3.47642903 C9.79279489,2.86002782 8.67364877,2.53417934 7.52333912,2.53417934 C4.20166166,2.53417934 1.5,5.23581471 1.5,8.55747924 C1.5,11.2193916 3.26264906,14.073798 5.65700529,16.6259039 C6.71244756,17.750927 7.88689061,18.7798571 8.96905803,19.5264544 C10.1901112,20.3688426 11.1986128,20.8045042 12,20.8045042 C13.5125211,20.8045042 16.0709033,19.1695109 18.3324803,16.8282144 C19.514152,15.6048678 20.5100769,14.2813588 21.214056,12.9967222 C22.0648024,11.4442521 22.5,9.95093833 22.5,8.55751846 C22.5,5.23584746 19.7983319,2.53417934 16.4766609,2.53417934 Z" id="Path" fill="#000000"></path>
    </g>
</svg>