<?xml version="1.0" encoding="UTF-8"?>
<svg width="24px" height="24px" viewBox="0 0 24 24" version="1.1" xmlns="http://www.w3.org/2000/svg" xmlns:xlink="http://www.w3.org/1999/xlink">
    <title>icons/account-active</title>
    <g id="icons/account-active" stroke="none" stroke-width="1" fill="none" fill-rule="evenodd">
        <path d="M12,1.5 C15.0375661,1.5 17.5,3.96243388 17.5,7 C17.5,8.29859288 17.0499517,9.49207135 16.2973181,10.4329724 L16.3794004,10.478526 C20.1377841,12.6023741 22.5,15.1021732 22.5,18 C22.5,24.1895142 1.5,24.1895142 1.5,18 C1.5,15.0739313 3.90239756,12.5585923 7.70271778,10.4319198 C6.95004831,9.49207135 6.5,8.29859288 6.5,7 C6.5,3.96243388 8.96243388,1.5 12,1.5 Z M8.48125469,10.0097398 L8.19400331,10.163276 C8.02777525,10.2521252 7.86398782,10.3416725 7.70271778,10.4319198 C8.71054947,11.6929529 10.2610268,12.5 12,12.5 C13.7389732,12.5 15.2894505,11.6929529 16.2973181,10.4329724 L15.7910986,10.1534448 L15.5402381,10.3172568 C14.29531,11.130195 13.1196638,11.5198857 12.0089143,11.5000795 C10.9050071,11.4803953 9.81779104,11.0553628 8.73778634,10.2104342 L8.48125469,10.0097398 Z" id="Combined-Shape" fill="#000000"></path>
    </g>
</svg>