<?xml version="1.0" encoding="UTF-8"?>
<svg width="24px" height="24px" viewBox="0 0 24 24" version="1.1" xmlns="http://www.w3.org/2000/svg" xmlns:xlink="http://www.w3.org/1999/xlink">
    <title>icons/brand thin</title>
    <g id="icons/brand-thin" stroke="none" stroke-width="1" fill="none" fill-rule="evenodd">
        <path d="M21.7220508,2.17162109 C21.9508789,2.40044922 21.9508789,2.77142578 21.7220508,3.00025391 L20.8360293,3.886 L20.9186566,4.39570394 L20.9245293,4.46035122 L21.3195161,10.1208647 C21.3569884,10.6549531 21.1609849,11.1790125 20.7823425,11.557655 L20.7823425,11.557655 L10.5878503,21.7521471 C9.59075218,22.7492452 7.97374001,22.7492452 6.97664192,21.7521471 L6.97664192,21.7521471 L2.24785286,17.0233581 C1.25075478,16.02626 1.25075478,14.4092478 2.24785286,13.4121497 L2.24785286,13.4121497 L12.442345,3.21765755 C12.8209875,2.83901513 13.3450469,2.64301157 13.879,2.68 L13.879,2.68 L19.539077,3.07547016 L19.6042246,3.08137749 L19.9300293,3.134 L20.893418,2.17162109 C21.1222461,1.94279297 21.4932227,1.94279297 21.7220508,2.17162109 Z M13.687241,3.67825707 C13.4856536,3.69316175 13.2944013,3.77981486 13.1494518,3.92476433 L13.1494518,3.92476433 L2.95495964,14.1192565 C2.34838585,14.7258303 2.34838585,15.7096775 2.95495964,16.3162513 L2.95495964,16.3162513 L7.6837487,21.0450404 C8.29032249,21.6516142 9.27416969,21.6516142 9.88074348,21.0450404 L9.88074348,21.0450404 L20.0752357,10.8505482 C20.249175,10.6766088 20.3391676,10.4359934 20.321955,10.1906644 L20.321955,10.1906644 L19.996,5.538 L19.9970293,4.725 L17.7288943,6.99390294 C17.9012538,7.28945 18,7.6331933 18,8 C18,9.1045695 17.1045695,10 16,10 C14.8954305,10 14,9.1045695 14,8 C14,6.8954305 14.8954305,6 16,6 C16.3108861,6 16.6052049,6.07093301 16.867655,6.19749756 L19.0640293,4 L18.461,4.002 L13.8361136,3.67919338 Z M12.7220508,11.1716211 C12.9508789,11.4004492 12.9508789,11.7714258 12.7220508,12.0002539 L8.00029297,16.7220117 C7.77146484,16.9508398 7.40044922,16.9508398 7.17162109,16.7220117 C6.94279297,16.4931836 6.94279297,16.122207 7.17162109,15.8933789 L11.893418,11.1716211 C12.1222461,10.942793 12.4932227,10.942793 12.7220508,11.1716211 Z M16,7 C15.4477153,7 15,7.44771525 15,8 C15,8.55228475 15.4477153,9 16,9 C16.5522847,9 17,8.55228475 17,8 C17,7.44771525 16.5522847,7 16,7 Z" id="Shape" fill="#000000"></path>
    </g>
</svg>