<?xml version="1.0" encoding="UTF-8"?>
<svg width="24px" height="24px" viewBox="0 0 24 24" version="1.1" xmlns="http://www.w3.org/2000/svg" xmlns:xlink="http://www.w3.org/1999/xlink">
    <title>icons/brand</title>
    <g id="icons/brand" stroke="none" stroke-width="1" fill="none" fill-rule="evenodd">
        <path d="M17.0531641,9.07367187 C16.4656641,9.66117187 15.5135547,9.66089844 14.9263281,9.07367187 C14.3391016,8.48644531 14.3388281,7.53433594 14.9263281,6.94683594 C15.3666016,6.5065625 16.0121094,6.39632812 16.5551563,6.61621094 L19.5876953,3.58367187 C19.560625,3.57925781 19.5327344,3.57621094 19.5048438,3.57429687 L13.8441406,3.17925781 C13.4544141,3.15191406 13.0721094,3.295 12.7958984,3.57121094 L2.60140625,13.7657031 C1.79957031,14.5675391 1.79957031,15.8679687 2.60140625,16.6698047 L7.33019531,21.3985937 C8.13203125,22.2004297 9.43246094,22.2004297 10.2342969,21.3985937 L20.4287891,11.2041016 C20.705,10.9278906 20.8480859,10.5455859 20.8207422,10.1558594 L20.4257422,4.49515625 C20.4238281,4.46726562 20.4207813,4.439375 20.4163672,4.41230469 L17.3838281,7.44484375 C17.6036719,7.98789062 17.4934766,8.63339844 17.0531641,9.07367187 Z M12.7220508,11.1716211 C12.9508789,11.4004492 12.9508789,11.7714258 12.7220508,12.0002539 L8.00029297,16.7220117 C7.77146484,16.9508398 7.40044922,16.9508398 7.17162109,16.7220117 C6.94279297,16.4931836 6.94279297,16.122207 7.17162109,15.8933789 L11.893418,11.1716211 C12.1222461,10.942793 12.4932227,10.942793 12.7220508,11.1716211 Z M20.9997266,2.17164063 C21.2287109,1.94265625 21.5996484,1.94292969 21.8283594,2.17164063 C22.0570703,2.40035156 22.0573437,2.77128906 21.8283594,3.00027344 L21.8283594,3.00027344 L20.4163672,4.41226563 C20.350625,3.98523438 20.0147656,3.649375 19.5877344,3.58363281 L19.5877344,3.58363281 Z" id="Shape" fill="#000000"></path>
    </g>
</svg>