<?xml version="1.0" encoding="UTF-8"?>
<svg width="24px" height="24px" viewBox="0 0 24 24" version="1.1" xmlns="http://www.w3.org/2000/svg" xmlns:xlink="http://www.w3.org/1999/xlink">
    <title>icons/categories-active</title>
    <g id="icons/categories-active" stroke="none" stroke-width="1" fill="none" fill-rule="evenodd">
        <path d="M12,2 C17.5228475,2 22,6.4771525 22,12 C22,14.8359631 20.8194702,17.3961987 18.9230235,19.216094 L21.6819805,21.9748737 C21.8772427,22.1701359 21.8772427,22.4867184 21.6819805,22.6819805 C21.5084142,22.8555469 21.2389898,22.874832 21.0441216,22.739836 L20.9748737,22.6819805 L18.1655919,19.8736376 C16.4668344,21.2057466 14.3261711,22 12,22 C6.4771525,22 2,17.5228475 2,12 C2,6.4771525 6.4771525,2 12,2 Z M12.5,5 C12.2238576,5 12,5.22385763 12,5.5 C12,5.77614237 12.2238576,6 12.5,6 C15.2614237,6 17.5,8.23857625 17.5,11 C17.5,11.2761424 17.7238576,11.5 18,11.5 C18.2761424,11.5 18.5,11.2761424 18.5,11 C18.5,7.6862915 15.8137085,5 12.5,5 Z" id="Combined-Shape" fill="#000000"></path>
    </g>
</svg>