<?xml version="1.0" encoding="UTF-8"?>
<svg width="24px" height="24px" viewBox="0 0 24 24" version="1.1" xmlns="http://www.w3.org/2000/svg" xmlns:xlink="http://www.w3.org/1999/xlink">
    <title>icons/home</title>
    <g id="icons/home" stroke="none" stroke-width="1" fill="none" fill-rule="evenodd">
        <path d="M11.5034542,2.37888602 C12.0717833,1.87370466 12.9282167,1.87370466 13.4965458,2.37888602 L13.4965458,2.37888602 L21.1609096,9.19165388 C21.6946305,9.66607246 22,10.3460826 22,11.0601772 L22,11.0601772 L22,19.162045 C22,21.0950417 20.4329966,22.662045 18.5,22.662045 L18.5,22.662045 L6.5,22.662045 C4.56700338,22.662045 3,21.0950417 3,19.162045 L3,19.162045 L3,11.0601772 C3,10.3460826 3.30536949,9.66607246 3.8390904,9.19165388 L3.8390904,9.19165388 Z M12.8321819,3.12629534 C12.6427389,2.95790155 12.3572611,2.95790155 12.1678181,3.12629534 L12.1678181,3.12629534 L4.50345424,9.9390632 C4.1832217,10.2237143 4,10.6317205 4,11.0601772 L4,11.0601772 L4,19.162045 C4,20.5427569 5.11928813,21.662045 6.5,21.662045 L6.5,21.662045 L18.5,21.662045 C19.8807119,21.662045 21,20.5427569 21,19.162045 L21,19.162045 L21,11.0601772 C21,10.6317205 20.8167783,10.2237143 20.4965458,9.9390632 L20.4965458,9.9390632 Z M14.1,8 L11.115,12.635 L11.145,12.665 L11.2488,12.596 C11.3976,12.508 11.588,12.436 11.82,12.38 C12.11,12.31 12.39,12.275 12.66,12.275 C13.12,12.275 13.5475,12.355 13.9425,12.515 C14.3375,12.675 14.68,12.8975 14.97,13.1825 C15.26,13.4675 15.4875,13.8125 15.6525,14.2175 C15.8175,14.6225 15.9,15.065 15.9,15.545 C15.9,16.045 15.815,16.5 15.645,16.91 C15.475,17.32 15.235,17.67 14.925,17.96 C14.615,18.25 14.25,18.4775 13.83,18.6425 C13.41,18.8075 12.95,18.89 12.45,18.89 C11.95,18.89 11.49,18.8075 11.07,18.6425 C10.65,18.4775 10.285,18.25 9.975,17.96 C9.665,17.67 9.425,17.32 9.255,16.91 C9.085,16.5 9,16.045 9,15.545 C9,14.995 9.095,14.485 9.285,14.015 C9.475,13.545 9.7,13.095 9.96,12.665 L9.96,12.665 L12.855,8 L14.1,8 Z M12.45,13.145 C12.09,13.145 11.7625,13.205 11.4675,13.325 C11.1725,13.445 10.9225,13.6125 10.7175,13.8275 C10.5125,14.0425 10.355,14.2975 10.245,14.5925 C10.135,14.8875 10.08,15.205 10.08,15.545 C10.08,15.895 10.1375,16.2175 10.2525,16.5125 C10.3675,16.8075 10.53,17.0625 10.74,17.2775 C10.95,17.4925 11.2,17.6625 11.49,17.7875 C11.78,17.9125 12.1,17.975 12.45,17.975 C12.8,17.975 13.12,17.9125 13.41,17.7875 C13.7,17.6625 13.95,17.4925 14.16,17.2775 C14.37,17.0625 14.5325,16.8075 14.6475,16.5125 C14.7625,16.2175 14.82,15.895 14.82,15.545 C14.82,15.205 14.765,14.8875 14.655,14.5925 C14.545,14.2975 14.3875,14.0425 14.1825,13.8275 C13.9775,13.6125 13.7275,13.445 13.4325,13.325 C13.1375,13.205 12.81,13.145 12.45,13.145 Z" id="Combined-Shape" fill="#000000"></path>
    </g>
</svg>