<?xml version="1.0" encoding="UTF-8"?>
<svg width="24px" height="24px" viewBox="0 0 24 24" version="1.1" xmlns="http://www.w3.org/2000/svg" xmlns:xlink="http://www.w3.org/1999/xlink">
    <title>icons/home-active</title>
    <g id="icons/home-active" stroke="none" stroke-width="1" fill="none" fill-rule="evenodd">
        <path d="M13.3792093,2.2845855 L13.4965458,2.37888602 L21.1609096,9.19165388 C21.6461104,9.6229435 21.9425911,10.2241435 21.9924867,10.866398 L22,11.0601772 L22,19.162045 C22,21.0306085 20.5357224,22.5571715 18.6920352,22.6568662 L18.5,22.662045 L6.5,22.662045 C4.6314366,22.662045 3.10487355,21.1977674 3.00517886,19.3540802 L3,19.162045 L3,11.0601772 C3,10.4110003 3.25237148,9.78999237 3.69924963,9.32600922 L3.8390904,9.19165388 L11.5034542,2.37888602 C12.0338947,1.90738342 12.8153061,1.87594991 13.3792093,2.2845855 Z M14.1,8 L12.855,8 L9.96,12.665 C9.7,13.095 9.475,13.545 9.285,14.015 C9.095,14.485 9,14.995 9,15.545 C9,16.045 9.085,16.5 9.255,16.91 C9.425,17.32 9.665,17.67 9.975,17.96 C10.285,18.25 10.65,18.4775 11.07,18.6425 C11.49,18.8075 11.95,18.89 12.45,18.89 C12.95,18.89 13.41,18.8075 13.83,18.6425 C14.25,18.4775 14.615,18.25 14.925,17.96 C15.235,17.67 15.475,17.32 15.645,16.91 C15.815,16.5 15.9,16.045 15.9,15.545 C15.9,15.065 15.8175,14.6225 15.6525,14.2175 C15.4875,13.8125 15.26,13.4675 14.97,13.1825 C14.68,12.8975 14.3375,12.675 13.9425,12.515 C13.5475,12.355 13.12,12.275 12.66,12.275 C12.39,12.275 12.11,12.31 11.82,12.38 C11.588,12.436 11.3976,12.508 11.2488,12.596 L11.145,12.665 L11.115,12.635 L14.1,8 Z M12.45,13.145 C12.81,13.145 13.1375,13.205 13.4325,13.325 C13.7275,13.445 13.9775,13.6125 14.1825,13.8275 C14.3875,14.0425 14.545,14.2975 14.655,14.5925 C14.765,14.8875 14.82,15.205 14.82,15.545 C14.82,15.895 14.7625,16.2175 14.6475,16.5125 C14.5325,16.8075 14.37,17.0625 14.16,17.2775 C13.95,17.4925 13.7,17.6625 13.41,17.7875 C13.12,17.9125 12.8,17.975 12.45,17.975 C12.1,17.975 11.78,17.9125 11.49,17.7875 C11.2,17.6625 10.95,17.4925 10.74,17.2775 C10.53,17.0625 10.3675,16.8075 10.2525,16.5125 C10.1375,16.2175 10.08,15.895 10.08,15.545 C10.08,15.205 10.135,14.8875 10.245,14.5925 C10.355,14.2975 10.5125,14.0425 10.7175,13.8275 C10.9225,13.6125 11.1725,13.445 11.4675,13.325 C11.7625,13.205 12.09,13.145 12.45,13.145 Z" id="Combined-Shape" fill="#000000"></path>
    </g>
</svg>