<?xml version="1.0" encoding="UTF-8"?>
<svg width="24px" height="24px" viewBox="0 0 24 24" version="1.1" xmlns="http://www.w3.org/2000/svg" xmlns:xlink="http://www.w3.org/1999/xlink">
    <title>icons/call</title>
    <g id="icons/call" stroke="none" stroke-width="1" fill="none" fill-rule="evenodd">
        <g id="phone-call" transform="translate(1.000000, 1.000000)" fill="#000000">
            <path d="M5.49325375,0.998664851 C6.74807612,0.986558104 7.81758495,1.90637252 7.9938328,3.15348117 C8.11552501,4.07616185 8.34120712,4.98211432 8.66615176,5.85292947 C9.00957052,6.76652326 8.7899206,7.7964373 8.101679,8.4924133 L8.101679,8.4924133 L7.10412561,9.48885991 L7.36893164,9.91348513 C8.63979792,11.8799131 10.3409357,13.53468 12.345827,14.7512682 L12.345827,14.7512682 L12.3971256,14.7818599 L13.3965561,13.7833338 C14.0471737,13.1399567 14.9930352,12.906694 15.860575,13.1626695 L15.860575,13.1626695 L16.032928,13.2204113 C16.9048712,13.5457784 17.8108237,13.7714605 18.7379718,13.8937624 C19.9949251,14.0710878 20.9194593,15.1622532 20.8881256,16.4188599 L20.8881256,16.4188599 L20.8881215,19.4168304 C20.8909788,20.1207618 20.5969315,20.7932784 20.0782188,21.2691615 C19.5595062,21.7450447 18.8642014,21.9801906 18.1541144,21.9159341 C14.9992028,21.5731272 11.9686881,20.4950646 9.30996487,18.7708668 C6.83183987,17.1961631 4.73082246,15.0951457 3.15848567,12.6207097 C1.42576484,9.94600173 0.347457398,6.90074912 0.0101547471,3.72386013 C-0.05300374,3.02495055 0.180494757,2.33167566 0.653611972,1.81338645 C1.12669432,1.29513544 1.79581925,0.999545654 2.49812561,0.998664851 L2.49812561,0.998664851 Z M5.50299747,1.99866556 L2.49868404,1.99866556 C2.07756104,1.99923161 1.67603596,2.17660763 1.39217081,2.48757548 C1.10830048,2.79854901 0.96820138,3.21451394 1.00532998,3.62606012 C1.32527983,6.63895982 2.35044249,9.53412606 4.0001325,12.0806992 C5.49610106,14.4349179 7.4920676,16.4308845 9.8501762,17.9293501 C12.3815614,19.5709442 15.2627161,20.5958741 18.2531297,20.9208894 C18.6737777,20.9589055 19.0909606,20.8178179 19.4021881,20.5322881 C19.7134157,20.2467582 19.8898441,19.8432482 19.8881256,19.4188599 L19.8881256,19.4188599 L19.8882795,16.4064574 C19.907172,15.6450518 19.3524515,14.9903526 18.6027469,14.8845671 C17.6052946,14.7530133 16.6259263,14.5090425 15.6821952,14.1568861 C15.1340389,13.9508348 14.5160905,14.0826248 14.101679,14.4924133 L14.101679,14.4924133 L12.831679,15.7624133 C12.6725225,15.9215698 12.4266403,15.9547636 12.2309784,15.8435072 C9.64919672,14.3754656 7.51151994,12.2377888 6.04347836,9.65600716 C5.93222191,9.46034524 5.96541572,9.21446302 6.12457222,9.05530652 L6.12457222,9.05530652 L7.39259946,7.78729035 C7.80436076,7.37089505 7.93615071,6.75294662 7.72967699,6.20366233 C7.37794301,5.26105926 7.13397224,4.28169087 7.00304643,3.28883569 C6.8976727,2.5433158 6.25593708,1.99140107 5.50299747,1.99866556 L5.50299747,1.99866556 Z M13.4441175,3.99880896 L13.5338725,4.008113 C15.7316609,4.43691132 17.4500742,6.15532457 17.8788725,8.353113 C17.9317521,8.62414503 17.7549046,8.88672726 17.4838725,8.93960682 C17.2128405,8.99248638 16.9502583,8.81563885 16.8973787,8.54460682 C16.5465437,6.74641629 15.1405692,5.34044181 13.3423787,4.98960682 C13.0713467,4.93672726 12.8944991,4.67414503 12.9473787,4.403113 C12.9943828,4.16219564 13.2070778,3.99569566 13.4441175,3.99880896 Z M13.4031164,1.77635684e-15 L13.493332,0.00191699839 C17.9050774,0.492026475 21.3893367,3.97190306 21.8849986,8.38302811 C21.9158337,8.65744351 21.7183728,8.90489789 21.4439574,8.93573294 C21.169542,8.96656799 20.9220876,8.76910711 20.8912526,8.49469171 C20.4477656,4.54789561 17.3302704,1.43432183 13.3829192,0.995802821 C13.1084653,0.965313187 12.9106931,0.718107536 12.9411827,0.443653544 C12.9682846,0.199694441 13.1666189,0.0163234287 13.4031164,1.77635684e-15 Z" id="Combined-Shape"></path>
        </g>
    </g>
</svg>