<?xml version="1.0" encoding="UTF-8"?>
<svg width="317px" height="259px" viewBox="0 0 317 259" version="1.1" xmlns="http://www.w3.org/2000/svg" xmlns:xlink="http://www.w3.org/1999/xlink">
    <title>D9F2F11E-5DA9-4A67-B40A-A5155A9272E8@3x</title>
    <defs>
        <linearGradient x1="100%" y1="0.324698426%" x2="0%" y2="99.6753016%" id="linearGradient-1">
            <stop stop-color="#FF8960" offset="0%"></stop>
            <stop stop-color="#FF62A5" offset="100%"></stop>
        </linearGradient>
        <linearGradient x1="100%" y1="0.324698426%" x2="0%" y2="99.6753016%" id="linearGradient-2">
            <stop stop-color="#FF404E" offset="0%"></stop>
            <stop stop-color="#FF62A5" offset="100%"></stop>
        </linearGradient>
    </defs>
    <g id="Dsk-Shopping" stroke="none" stroke-width="1" fill="none" fill-rule="evenodd">
        <g id="Dsk-PDP---404" transform="translate(-561.000000, -274.000000)">
            <g id="No-Results" transform="translate(563.000000, 276.000000)">
                <g id="circle">
                    <line x1="8.92045455" y1="116.800699" x2="8.92045455" y2="119.475524" id="Stroke-1" stroke="#D2D8DF" stroke-width="2.921" stroke-linecap="round"></line>
                    <g id="Group-8" transform="translate(0.000000, 117.692308)" stroke="#D2D8DF" stroke-linecap="round" stroke-width="2.921">
                        <line x1="2.90987776" y1="0.557622378" x2="5.09666347" y2="2.80762238" id="Stroke-2"></line>
                        <line x1="0.35248539" y1="6.54710664" x2="3.44456981" y2="6.54710664" id="Stroke-4"></line>
                        <line x1="2.6597737" y1="12.6433479" x2="4.84655942" y2="10.3933479" id="Stroke-6"></line>
                    </g>
                    <line x1="8.92045455" y1="131.066434" x2="8.92045455" y2="128.391608" id="Stroke-9" stroke="#D2D8DF" stroke-width="2.921" stroke-linecap="round"></line>
                    <line x1="13.3806818" y1="129.283217" x2="11.5965909" y2="127.5" id="Stroke-10" stroke="#D2D8DF" stroke-width="2.921" stroke-linecap="round"></line>
                    <line x1="16.9488636" y1="124.825175" x2="14.2727273" y2="124.825175" id="Stroke-11" stroke="#D2D8DF" stroke-width="2.921" stroke-linecap="round"></line>
                    <line x1="15.1647727" y1="118.583916" x2="13.3806818" y2="120.367133" id="Stroke-12" stroke="#D2D8DF" stroke-width="2.921" stroke-linecap="round"></line>
                    <line x1="152.539773" y1="0" x2="152.539773" y2="1.78321678" id="Stroke-13" stroke="#D2D8DF" stroke-width="2.921" stroke-linecap="round"></line>
                    <line x1="147.1875" y1="5.34965035" x2="148.971591" y2="5.34965035" id="Stroke-15" stroke="#D2D8DF" stroke-width="2.921" stroke-linecap="round"></line>
                    <line x1="152.539773" y1="10.6993007" x2="152.539773" y2="8.91608392" id="Stroke-16" stroke="#D2D8DF" stroke-width="2.921" stroke-linecap="round"></line>
                    <line x1="157" y1="5.34965035" x2="155.215909" y2="5.34965035" id="Stroke-17" stroke="#D2D8DF" stroke-width="2.921" stroke-linecap="round"></line>
                    <line x1="49.0625" y1="74.8951049" x2="49.0625" y2="77.5699301" id="Stroke-18" stroke="#D2D8DF" stroke-width="2.921" stroke-linecap="round"></line>
                    <line x1="41.0340909" y1="82.9195804" x2="43.7102273" y2="82.9195804" id="Stroke-19" stroke="#D2D8DF" stroke-width="2.921" stroke-linecap="round"></line>
                    <line x1="49.0625" y1="90.0524476" x2="49.0625" y2="87.3776224" id="Stroke-20" stroke="#D2D8DF" stroke-width="2.921" stroke-linecap="round"></line>
                    <line x1="56.1988636" y1="82.9195804" x2="53.5227273" y2="82.9195804" id="Stroke-21" stroke="#D2D8DF" stroke-width="2.921" stroke-linecap="round"></line>
                    <g id="Group-42" transform="translate(23.193182, 24.073427)">
                        <path d="M217.88557,148.041423 C220.017396,148.041423 221.746333,149.769966 221.746333,151.901304 C221.746333,154.0334 220.017396,155.761185 217.88557,155.761185 C215.753744,155.761185 214.024806,154.0334 214.024806,151.901304" id="Stroke-22" stroke="#D2D8DF" stroke-width="2.921" stroke-linecap="round"></path>
                        <path d="M235.555113,113.023112 C237.847489,112.308375 241.361404,109.506214 242.174755,106.491297 C242.912374,109.156417 246.004468,112.308375 248.794396,112.546873 C245.653834,113.658349 242.651102,116.960221 242.174755,119.55417 C241.850626,116.91025 237.697541,113.408494 235.555113,113.023112" id="Fill-26" fill="#EBECEE"></path>
                        <path d="M0.243399248,146.852492 C1.38996571,146.495124 3.14616626,145.094422 3.55284142,143.586963 C3.92165111,144.918766 5.46731964,146.495124 6.8622836,146.614751 C5.29238117,147.169732 3.79139389,148.821047 3.55284142,150.118021 C3.39077721,148.796061 1.31423477,147.044805 0.243399248,146.852492" id="Fill-28" fill="#EBECEE"></path>
                        <path d="M21.5205376,22.8225868 C21.5205376,24.4761725 20.1800999,25.8155466 18.5268934,25.8155466 C16.8729297,25.8155466 15.5332493,24.4761725 15.5332493,22.8225868 C15.5332493,21.1697583 16.8729297,19.829627 18.5268934,19.829627 C20.1800999,19.829627 21.5205376,21.1697583 21.5205376,22.8225868" id="Fill-30" fill="#D1D8DF"></path>
                        <path d="M221.422617,30.8590429 C221.422617,33.6218333 219.181738,35.8614425 216.419073,35.8614425 C213.654894,35.8614425 211.414773,33.6218333 211.414773,30.8590429 C211.414773,28.0962526 213.654894,25.8566434 216.419073,25.8566434 C219.181738,25.8566434 221.422617,28.0962526 221.422617,30.8590429" id="Fill-32" fill="#EBECEE"></path>
                        <path d="M290.730709,17.3056374 C290.730709,19.497547 288.954061,21.2737888 286.762407,21.2737888 C284.569996,21.2737888 282.793349,19.497547 282.793349,17.3056374 C282.793349,15.1137278 284.569996,13.337486 286.762407,13.337486 C288.954061,13.337486 290.730709,15.1137278 290.730709,17.3056374" id="Fill-34" fill="#EBECEE"></path>
                        <path d="M77.4689674,202.633601 C77.4689674,204.015375 76.3489067,205.135179 74.966817,205.135179 C73.5854846,205.135179 72.465424,204.015375 72.465424,202.633601 C72.465424,201.251827 73.5854846,200.132023 74.966817,200.132023 C76.3489067,200.132023 77.4689674,201.251827 77.4689674,202.633601 Z" id="Stroke-36" stroke="#D2D8DF" stroke-width="2.921" stroke-linecap="round"></path>
                        <path d="M75.9802485,3.59473176 C75.9802485,5.24831745 74.6398108,6.58769157 72.9866044,6.58769157 C71.3333979,6.58769157 69.9929602,5.24831745 69.9929602,3.59473176 C69.9929602,1.9419032 71.3333979,0.601771936 72.9866044,0.601771936 C74.6398108,0.601771936 75.9802485,1.9419032 75.9802485,3.59473176 Z" id="Stroke-38" stroke="#D2D8DF" stroke-width="2.921" stroke-linecap="round"></path>
                        <path d="M152.342584,230.334493 C150.429621,231.062101 148.288707,230.101295 147.560932,228.189526 C146.833158,226.276999 147.793426,224.135818 149.707147,223.408967 C151.619354,222.681359 153.760267,223.641408 154.488042,225.553934 C155.216573,227.466461 154.255548,229.606885 152.342584,230.334493 Z" id="Stroke-40" stroke="#D2D8DF" stroke-width="2.921" stroke-linecap="round"></path>
                    </g>
                </g>
                <g id="search" transform="translate(79.000000, 61.000000)">
                    <g id="documents">
                        <path d="M95.0494192,122.760736 L21.8624541,122.760736 C16.7111999,122.760736 12.4946237,118.545459 12.4946237,113.393688 L12.4946237,9.36494396 C12.4946237,4.21317254 16.7111999,0 21.8624541,0 L95.0494192,0 C100.202779,0 104.419355,4.21317254 104.419355,9.36494396 L104.419355,113.393688 C104.419355,118.545459 100.202779,122.760736 95.0494192,122.760736" id="Fill-1" fill="#E0E2EE"></path>
                        <path d="M88.8021074,127.208589 L15.6151423,127.208589 C10.4638881,127.208589 6.24731183,122.993312 6.24731183,117.841541 L6.24731183,13.8127967 C6.24731183,8.6610253 10.4638881,4.44785276 15.6151423,4.44785276 L88.8021074,4.44785276 C93.9554667,4.44785276 98.172043,8.6610253 98.172043,13.8127967 L98.172043,117.841541 C98.172043,122.993312 93.9554667,127.208589 88.8021074,127.208589" id="Fill-3" fill="#E8EBF2"></path>
                        <path d="M82.7250209,130.719926 L9.38677263,130.719926 C4.22487038,130.719926 -0.000421896383,126.522103 -0.000421896383,121.391663 L-0.000421896383,17.7936636 C-0.000421896383,12.6632238 4.22487038,8.46749641 9.38677263,8.46749641 L82.7250209,8.46749641 C87.8890326,8.46749641 92.1143249,12.6632238 92.1143249,17.7936636 L92.1143249,121.391663 C92.1143249,126.522103 87.8890326,130.719926 82.7250209,130.719926" id="Fill-5" fill="#D8DBEA"></path>
                        <path d="M82.7250209,130.719926 L9.38677263,130.719926 C4.22487038,130.719926 -0.000421896383,126.522103 -0.000421896383,121.391663 L-0.000421896383,17.7936636 C-0.000421896383,12.6632238 4.22487038,8.46749641 9.38677263,8.46749641 L82.7250209,8.46749641 C87.8890326,8.46749641 92.1143249,12.6632238 92.1143249,17.7936636 L92.1143249,121.391663 C92.1143249,126.522103 87.8890326,130.719926 82.7250209,130.719926" id="Fill-8" fill="#F1F2F7"></path>
                        <path d="M72.1544971,40.0306748 L17.9852879,40.0306748 C16.4383198,40.0306748 15.172043,38.8299047 15.172043,37.3629638 C15.172043,35.8940217 16.4383198,34.6932515 17.9852879,34.6932515 L72.1544971,34.6932515 C73.7014652,34.6932515 74.9677419,35.8940217 74.9677419,37.3629638 C74.9677419,38.8299047 73.7014652,40.0306748 72.1544971,40.0306748" id="Fill-11" fill="#E0E2EE"></path>
                        <path d="M72.1544971,56.0429448 L17.9852879,56.0429448 C16.4383198,56.0429448 15.172043,54.8421746 15.172043,53.3752338 C15.172043,51.9062916 16.4383198,50.7055215 17.9852879,50.7055215 L72.1544971,50.7055215 C73.7014652,50.7055215 74.9677419,51.9062916 74.9677419,53.3752338 C74.9677419,54.8421746 73.7014652,56.0429448 72.1544971,56.0429448" id="Fill-13" fill="#E0E2EE"></path>
                        <path d="M72.1544971,72.0552147 L17.9852879,72.0552147 C16.4383198,72.0552147 15.172043,70.8544446 15.172043,69.3875037 C15.172043,67.9205628 16.4383198,66.7177914 17.9852879,66.7177914 L72.1544971,66.7177914 C73.7014652,66.7177914 74.9677419,67.9205628 74.9677419,69.3875037 C74.9677419,70.8544446 73.7014652,72.0552147 72.1544971,72.0552147" id="Fill-15" fill="#E0E2EE"></path>
                        <path d="M72.1544971,88.0674847 L17.9852879,88.0674847 C16.4383198,88.0674847 15.172043,86.8667145 15.172043,85.3997736 C15.172043,83.9308315 16.4383198,82.7300613 17.9852879,82.7300613 L72.1544971,82.7300613 C73.7014652,82.7300613 74.9677419,83.9308315 74.9677419,85.3997736 C74.9677419,86.8667145 73.7014652,88.0674847 72.1544971,88.0674847" id="Fill-17" fill="#E0E2EE"></path>
                        <path d="M46.2607398,104.079755 L17.9973248,104.079755 C16.4437377,104.079755 15.172043,102.878984 15.172043,101.412044 C15.172043,99.9431014 16.4437377,98.7423313 17.9973248,98.7423313 L46.2607398,98.7423313 C47.8143268,98.7423313 49.0860215,99.9431014 49.0860215,101.412044 C49.0860215,102.878984 47.8143268,104.079755 46.2607398,104.079755" id="Fill-19" fill="#E0E2EE"></path>
                    </g>
                    <g transform="translate(42.838710, 24.018405)">
                        <path d="M60.4694777,59.3670583 C49.6377989,70.1616679 32.8690247,71.3794284 20.6950263,63.0452383 C19.1392074,61.961024 17.6583405,60.7432635 16.2774093,59.3670583 C15.5665023,58.6608477 14.8964781,57.9320022 14.2650655,57.1646773 C13.0022403,55.6322909 11.8961326,53.9980472 10.9898966,52.3094796 C9.39319492,49.4574754 8.30752864,46.431182 7.7147276,43.3030314 C5.80231964,33.4930423 8.66184651,22.9338362 16.2774093,15.3465996 C23.9111423,7.73672807 34.5066091,4.90509532 44.3502862,6.79285049 C47.4869078,7.40173075 50.5258649,8.48368156 53.387663,10.0568109 C55.0843005,10.980317 56.7014435,12.0826393 58.2413635,13.3411427 C59.0090522,13.9681309 59.7404006,14.6381256 60.4490363,15.3465996 C61.8322387,16.7228048 63.0723513,18.1963403 64.1398474,19.7490982 C72.5049287,31.8791701 71.2807151,48.5928202 60.4694777,59.3670583" id="Fill-21" fill-opacity="0.1" fill="#FFFFFF"></path>
                        <path d="M57.4385284,57.2407947 C46.1696376,68.4751354 27.907492,68.4730453 16.6365042,57.2407947 C5.38019496,46.0210848 5.38019496,27.8162276 16.6511827,16.583977 C27.907492,5.36426705 46.1696376,5.36426705 57.4259469,16.583977 C68.6948377,27.8162276 68.6948377,46.0210848 57.4385284,57.2407947 M63.2218557,10.8131836 C48.7572467,-3.60439452 25.317786,-3.60439452 10.8531769,10.8131836 C-3.6093352,25.2286715 -3.62191676,48.6065507 10.8405954,63.0241288 C24.0051091,76.1416586 44.6388802,77.3246608 59.1517186,66.5543244 C60.5692419,65.5009091 61.934342,64.319997 63.2365342,63.0241288 C64.5366296,61.7261706 65.7213939,60.365509 66.7761486,58.9525947 C77.5816184,44.484854 76.3842725,23.9328034 63.2218557,10.8131836" id="Fill-23" fill="#E0E2EE"></path>
                        <path d="M120.146601,117.37141 L119.539326,117.976711 C115.521806,121.983223 108.942988,121.983223 104.923402,117.976711 L67.827957,81.0019099 L83.051156,65.8282209 L120.146601,102.803022 C124.166187,106.809534 124.166187,113.364897 120.146601,117.37141" id="Fill-25" fill="url(#linearGradient-1)"></path>
                        <path d="M67.575774,57.8220859 L78.5376344,68.7482954 L70.7554196,76.5030675 L59.7956989,65.576858 C61.2421595,64.5019391 62.632987,63.2969209 63.963902,61.9746 C65.2905374,60.6522791 66.4994875,59.2638422 67.575774,57.8220859" id="Fill-27" fill="#E0E2EE"></path>
                        <polygon id="Fill-29" fill="#EF545F" points="119.591398 102.348273 104.465117 117.423313 101.741935 114.706942 116.866164 99.6319018"></polygon>
                        <polygon id="Fill-31" fill="url(#linearGradient-2)" points="83.8924731 66.3502367 68.3519489 81.8404908 66.0430108 79.5393338 81.583535 64.0490798"></polygon>
                        <path d="M49.9784946,12.7196335 L11.8667678,50.7055215 C10.4314786,48.1415198 9.45556361,45.4208292 8.92473118,42.6085671 L41.8547168,9.78527607 C44.6742537,10.334705 47.405999,11.3053628 49.9784946,12.7196335" id="Fill-33" fill-opacity="0.5" fill="#FFFFFF"></path>
                        <path d="M62.4731183,21.7485599 L21.2701961,60.4907975 C19.7946628,59.5225961 18.3902135,58.432863 17.0805431,57.2013432 C16.4063213,56.5673535 15.7687185,55.9171596 15.172043,55.2305063 L56.8768619,16.0122699 C57.6070894,16.5753662 58.3006977,17.1749219 58.9727655,17.8089116 C60.2824359,19.0404315 61.4607085,20.3590489 62.4731183,21.7485599" id="Fill-35" fill-opacity="0.5" fill="#FFFFFF"></path>
                    </g>
                </g>
            </g>
        </g>
    </g>
</svg>