<?xml version="1.0" encoding="UTF-8"?>
<svg width="24px" height="24px" viewBox="0 0 24 24" version="1.1" xmlns="http://www.w3.org/2000/svg" xmlns:xlink="http://www.w3.org/1999/xlink">
    <title>icons/basket</title>
    <g id="icons/basket" stroke="none" stroke-width="1" fill="none" fill-rule="evenodd">
        <path d="M12,1 C14.4852814,1 16.5,3.01471863 16.5,5.5 L18.2489672,5.5 C19.5019738,5.5 20.561435,6.42757565 20.727037,7.6695907 L20.727037,7.6695907 L21.589883,14.1409358 C22.064331,17.6992962 19.5643261,20.9685333 16.0059658,21.4429814 C15.7211859,21.480952 15.4342018,21.5 15.1469016,21.5 L15.1469016,21.5 L8.85309838,21.5 C5.26324751,21.5 2.35309838,18.5898509 2.35309838,15 C2.35309838,14.7126998 2.37214637,14.4257158 2.41011703,14.1409358 L2.41011703,14.1409358 L3.27296304,7.6695907 C3.43856505,6.42757565 4.49802625,5.5 5.75103279,5.5 L5.75103279,5.5 L7.5,5.5 L7.5,5.5 C7.5,3.01471863 9.51471863,1 12,1 Z M18.2489672,6.5 L5.75103279,6.5 C4.99922887,6.5 4.36355215,7.05654539 4.26419094,7.80175442 L4.26419094,7.80175442 L3.40134493,14.2730995 C3.36921591,14.5140672 3.35309838,14.7568999 3.35309838,15 C3.35309838,18.0375661 5.81553226,20.5 8.85309838,20.5 L8.85309838,20.5 L15.1469016,20.5 C15.3900018,20.5 15.6328344,20.4838825 15.8738021,20.4517535 C18.8847224,20.0502974 21.0001111,17.2840198 20.5986551,14.2730995 L20.5986551,14.2730995 L19.7358091,7.80175442 C19.6364479,7.05654539 19.0007711,6.5 18.2489672,6.5 L18.2489672,6.5 Z M16.8700746,8 C17.146217,8 17.3700746,8.22385763 17.3700746,8.5 C17.3700746,11.2738563 14.8965816,13.5 11.8700746,13.5 C8.84356762,13.5 6.37007463,11.2738563 6.37007463,8.5 C6.37007463,8.22385763 6.59393225,8 6.87007463,8 C7.146217,8 7.37007463,8.22385763 7.37007463,8.5 C7.37007463,10.6967064 9.37373414,12.5 11.8700746,12.5 C14.3664151,12.5 16.3700746,10.6967064 16.3700746,8.5 C16.3700746,8.22385763 16.5939323,8 16.8700746,8 Z M12,2 C10.0670034,2 8.5,3.56700338 8.5,5.5 L15.5,5.5 L15.5,5.5 C15.5,3.56700338 13.9329966,2 12,2 Z" id="Combined-Shape" fill="#000000"></path>
    </g>
</svg>