<?xml version="1.0" encoding="UTF-8"?>
<svg width="24px" height="24px" viewBox="0 0 24 24" version="1.1" xmlns="http://www.w3.org/2000/svg" xmlns:xlink="http://www.w3.org/1999/xlink">
    <title>054FAB65-2B2A-44AF-A543-7C5F8548F022</title>
    <defs>
        <rect id="path-1" x="0" y="2" width="427" height="205" rx="12"></rect>
        <filter x="-3.5%" y="-7.3%" width="107.0%" height="114.6%" filterUnits="objectBoundingBox" id="filter-2">
            <feOffset dx="0" dy="0" in="SourceAlpha" result="shadowOffsetOuter1"></feOffset>
            <feGaussianBlur stdDeviation="5" in="shadowOffsetOuter1" result="shadowBlurOuter1"></feGaussianBlur>
            <feColorMatrix values="0 0 0 0 0   0 0 0 0 0   0 0 0 0 0  0 0 0 0.149644545 0" type="matrix" in="shadowBlurOuter1"></feColorMatrix>
        </filter>
    </defs>
    <g id="Artboards" stroke="none" stroke-width="1" fill="none" fill-rule="evenodd">
        <g id="Dsk-share" transform="translate(-1084.000000, -463.000000)">
            <rect fill="#FFFFFF" x="0" y="0" width="1440" height="1459"></rect>
            <g id="Group-6" transform="translate(965.000000, 345.000000)">
                <g id="Rectangle" fill-rule="nonzero">
                    <use fill="black" fill-opacity="1" filter="url(#filter-2)" xlink:href="#path-1"></use>
                    <use fill="#FFFFFF" xlink:href="#path-1"></use>
                </g>
                <g id="Group" transform="translate(21.000000, 100.000000)">
                    <g id="elements/social-circle-copy" transform="translate(80.000000, 0.000000)">
                        <circle id="Oval" fill="#F6F6F6" cx="30" cy="30" r="30"></circle>
                        <g id="icons/facebook" transform="translate(18.000000, 18.000000)" fill="#000000">
                            <g id="link-2" transform="translate(1.500000, 6.500000)">
                                <path d="M15.9545455,0 C17.2926832,0 18.5760143,0.531573149 19.5222206,1.47777942 C20.4684269,2.4239857 21,3.7073168 21,5.04545455 C21,7.75865247 18.8583996,9.97165282 16.1734068,10.0862476 L15.9545455,10.0909091 L13.2272727,10.0909091 C12.9511304,10.0909091 12.7272727,9.86705147 12.7272727,9.59090909 C12.7272727,9.3454492 12.9041479,9.14130072 13.1373971,9.09896476 L13.2272727,9.09090909 L15.9545455,9.09090909 C18.1887883,9.09090909 20,7.2796974 20,5.04545455 C20,3.97253329 19.5737837,2.9435561 18.8151138,2.1848862 C18.1106346,1.48040702 17.1730843,1.06258424 16.183702,1.00648955 L15.9545455,1 L13.2272727,1 C12.9511304,1 12.7272727,0.776142375 12.7272727,0.5 C12.7272727,0.254540111 12.9041479,0.0503916296 13.1373971,0.00805566941 L13.2272727,0 L15.9545455,0 Z M7.77272727,1.77635684e-15 C8.04886965,1.77635684e-15 8.27272727,0.223857625 8.27272727,0.5 C8.27272727,0.745459889 8.09585211,0.94960837 7.86260291,0.991944331 L7.77272727,1 L5.04545455,1 C2.81121169,1 1,2.81121169 1,5.04545455 C1,6.1183758 1.42621631,7.14735299 2.1848862,7.90602289 C2.88936539,8.61050208 3.82691567,9.02832486 4.81629796,9.08441954 L5.04545455,9.09090909 L7.77272727,9.09090909 C8.04886965,9.09090909 8.27272727,9.31476672 8.27272727,9.59090909 C8.27272727,9.83636898 8.09585211,10.0405175 7.86260291,10.0828534 L7.77272727,10.0909091 L5.04545455,10.0909091 C3.7073168,10.0909091 2.4239857,9.55933594 1.47777942,8.61312967 C0.531573149,7.6669234 0,6.38359229 0,5.04545455 C0,2.33225662 2.14160041,0.119256266 4.8265932,0.00466150943 L5.04545455,1.77635684e-15 L7.77272727,1.77635684e-15 Z M14.1363636,4.54545455 C14.412506,4.54545455 14.6363636,4.76931217 14.6363636,5.04545455 C14.6363636,5.29091443 14.4594885,5.49506292 14.2262393,5.53739888 L14.1363636,5.54545455 L6.86363636,5.54545455 C6.58749399,5.54545455 6.36363636,5.32159692 6.36363636,5.04545455 C6.36363636,4.79999466 6.54051152,4.59584618 6.77376073,4.55351021 L6.86363636,4.54545455 L14.1363636,4.54545455 Z" id="Combined-Shape"></path>
                            </g>
                        </g>
                    </g>
                </g>
            </g>
        </g>
    </g>
</svg>