<?xml version="1.0" encoding="UTF-8"?>
<svg width="24px" height="24px" viewBox="0 0 24 24" version="1.1" xmlns="http://www.w3.org/2000/svg" xmlns:xlink="http://www.w3.org/1999/xlink">
    <title>icons/info</title>
    <g id="icons/info" stroke="none" stroke-width="1" fill="none" fill-rule="evenodd">
        <g id="info" transform="translate(2.000000, 2.000000)" fill="#000000">
            <path d="M10.5,0 C16.2989899,0 21,4.70101013 21,10.5 C21,16.2989899 16.2989899,21 10.5,21 C4.70101013,21 0,16.2989899 0,10.5 C0,4.70101013 4.70101013,0 10.5,0 Z M10.5,1 C5.25329488,1 1,5.25329488 1,10.5 C1,15.7467051 5.25329488,20 10.5,20 C15.7467051,20 20,15.7467051 20,10.5 C20,5.25329488 15.7467051,1 10.5,1 Z M10.5,10 C10.7454599,10 10.9496084,10.1768752 10.9919443,10.4101244 L11,10.5 L11,14.5 C11,14.7761424 10.7761424,15 10.5,15 C10.2545401,15 10.0503916,14.8231248 10.0080557,14.5898756 L10,14.5 L10,10.5 C10,10.2238576 10.2238576,10 10.5,10 Z M10.51,6 C10.7861424,6 11.01,6.22385763 11.01,6.5 C11.01,6.74545989 10.8331248,6.94960837 10.5998756,6.99194433 L10.5,7 C10.2238576,7 10,6.77614237 10,6.5 C10,6.25454011 10.1768752,6.05039163 10.4101244,6.00805567 L10.51,6 Z" id="Combined-Shape"></path>
        </g>
    </g>
</svg>