<?xml version="1.0" encoding="UTF-8"?>
<svg width="24px" height="24px" viewBox="0 0 24 24" version="1.1" xmlns="http://www.w3.org/2000/svg" xmlns:xlink="http://www.w3.org/1999/xlink">
    <title>icons/phone</title>
    <g id="icons/phone" stroke="none" stroke-width="1" fill="#FFFFFF" fill-rule="evenodd">
        <g id="smartphone" transform="translate(5.000000, 2.000000)" fill="#FFFFFF">
            <path d="M12.5,0 C13.8807119,0 15,1.11928813 15,2.5 L15,2.5 L15,18.5 C15,19.8807119 13.8807119,21 12.5,21 L12.5,21 L2.5,21 C1.11928813,21 0,19.8807119 0,18.5 L0,18.5 L0,2.5 C0,1.11928813 1.11928813,0 2.5,0 L2.5,0 Z M12.5,1 L2.5,1 C1.67157288,1 1,1.67157288 1,2.5 L1,2.5 L1,18.5 C1,19.3284271 1.67157288,20 2.5,20 L2.5,20 L12.5,20 C13.3284271,20 14,19.3284271 14,18.5 L14,18.5 L14,2.5 C14,1.67157288 13.3284271,1 12.5,1 L12.5,1 Z M7.51,15.5 C8.06228475,15.5 8.51,15.9477153 8.51,16.5 C8.51,17.0128358 8.12395981,17.4355072 7.62662113,17.4932723 L7.5,17.5 C6.94771525,17.5 6.5,17.0522847 6.5,16.5 C6.5,15.9871642 6.88604019,15.5644928 7.38337887,15.5067277 L7.51,15.5 Z" id="Combined-Shape"></path>
        </g>
    </g>
</svg>