<?xml version="1.0" encoding="UTF-8"?>
<svg width="20px" height="20px" viewBox="0 0 20 20" version="1.1" xmlns="http://www.w3.org/2000/svg" xmlns:xlink="http://www.w3.org/1999/xlink">
    <!-- Generator: Sketch 58 (84663) - https://sketch.com -->
    <title>CALL</title>
    <desc>Created with Sketch.</desc>
    <defs>
        <path d="M13.3587786,2 L6.64122137,2 C5.99346645,2 5.46651555,2.52721757 5.46651555,3.17470582 L5.46651555,16.8255609 C5.46651555,17.4733158 5.99346645,18.0005334 6.64122137,18.0005334 L13.358512,18.0005334 C14.0065336,18.0005334 14.5334844,17.4733158 14.5334844,16.8258275 L14.5334844,3.17470582 C14.5334844,2.52721757 14.0065336,2 13.3587786,2 Z M10.8000267,2.80002667 L11.0667022,2.80002667 C11.2139071,2.80002667 11.3333778,2.91923064 11.3333778,3.06670222 C11.3333778,3.21417381 11.2139071,3.33337778 11.0667022,3.33337778 L10.8000267,3.33337778 C10.6528218,3.33337778 10.5333511,3.21417381 10.5333511,3.06670222 C10.5333511,2.91923064 10.6528218,2.80002667 10.8000267,2.80002667 Z M8.93329778,2.80002667 L10,2.80002667 C10.1472049,2.80002667 10.2666756,2.91923064 10.2666756,3.06670222 C10.2666756,3.21417381 10.1472049,3.33337778 10,3.33337778 L8.93329778,3.33337778 C8.78609287,3.33337778 8.66662222,3.21417381 8.66662222,3.06670222 C8.66662222,2.91923064 8.78609287,2.80002667 8.93329778,2.80002667 Z M10,17.2005067 C9.41171372,17.2005067 8.93329778,16.7220907 8.93329778,16.1338045 C8.93329778,15.5455182 9.41171372,15.0671022 10,15.0671022 C10.5882863,15.0671022 11.0667022,15.5455182 11.0667022,16.1338045 C11.0667022,16.7220907 10.5882863,17.2005067 10,17.2005067 Z M10,15.6004533 C10.2945617,15.6004533 10.5333511,15.8392428 10.5333511,16.1338045 C10.5333511,16.4283661 10.2945617,16.6671556 10,16.6671556 C9.70543831,16.6671556 9.46664889,16.4283661 9.46664889,16.1338045 C9.46664889,15.8392428 9.70543831,15.6004533 10,15.6004533 Z M14.0001333,4.13340445 L14.0001333,14.2670756 L5.99986666,14.2670756 L5.99986666,4.13340445 L14.0001333,4.13340445 Z M17.0967699,3.21844061 C18.3010767,4.42274742 18.3010767,6.38254608 17.0967699,7.58658622 C17.0447682,7.63858795 16.9764992,7.66472216 16.9082303,7.66472216 C16.8399613,7.66472216 16.7716924,7.63858795 16.7196907,7.58658622 C16.6154205,7.48231608 16.6154205,7.31377713 16.7196907,7.20950698 C17.7159905,6.21294043 17.7159905,4.59181973 16.7196907,3.59551985 C16.6154205,3.49124971 16.6154205,3.32271076 16.7196907,3.21844061 C16.8239608,3.11417047 16.9924997,3.11417047 17.0967699,3.21844061 Z M3.28030934,3.21844061 C3.38457949,3.32271076 3.38457949,3.49124971 3.28030934,3.59551985 C2.28374279,4.5920864 2.28374279,6.21320711 3.28030934,7.20950698 C3.38457949,7.31377713 3.38457949,7.48231608 3.28030934,7.58658622 C3.22830761,7.63858795 3.16003867,7.66472216 3.09176973,7.66472216 C3.02350078,7.66472216 2.95523184,7.63858795 2.90323011,7.58658622 C1.6989233,6.38227941 1.6989233,4.42274742 2.90323011,3.21844061 C3.00750025,3.11417047 3.1760392,3.11417047 3.28030934,3.21844061 Z M15.9737991,3.82539418 C16.4047468,4.25580853 16.6415547,4.82942765 16.6415547,5.43958132 C16.6415547,6.04973499 16.4044801,6.62308744 15.9737991,7.05350178 C15.9217974,7.10550352 15.8535285,7.13163772 15.7852595,7.13163772 C15.7169906,7.13163772 15.6487216,7.10550352 15.5967199,7.05350178 C15.4924497,6.94923164 15.4924497,6.78069269 15.5967199,6.67642255 C15.9265976,6.34654488 16.1082036,5.90733024 16.1082036,5.43958132 C16.1082036,4.97183239 15.9265976,4.53235108 15.5967199,4.20247342 C15.4924497,4.09820327 15.4924497,3.92966432 15.5967199,3.82539418 C15.70099,3.72112404 15.869529,3.72112404 15.9737991,3.82539418 Z M4.40328011,3.75179173 C4.50728358,3.85606187 4.50728358,4.0248675 4.40328011,4.12887096 C4.07313577,4.45874862 3.89179639,4.89796327 3.89179639,5.36571219 C3.89179639,5.83346112 4.07340245,6.27294243 4.40328011,6.60282009 C4.50755025,6.70709024 4.50755025,6.87562919 4.40328011,6.97989933 C4.35127838,7.03190106 4.28300943,7.05803527 4.21474049,7.05803527 C4.14647155,7.05803527 4.07820261,7.03190106 4.02620087,6.97989933 C3.59551985,6.54921831 3.35844528,5.97586586 3.35844528,5.36571219 C3.35844528,4.75555852 3.59551985,4.18220607 4.02620087,3.75179173 C4.13047102,3.64752158 4.29900997,3.64752158 4.40328011,3.75179173 Z" id="path-1"></path>
    </defs>
    <g id="CALL" stroke="none" stroke-width="1" fill="none" fill-rule="evenodd">
        <mask id="mask-2" fill="white">
            <use xlink:href="#path-1"></use>
        </mask>
        <use id="Shape" fill="#ffffff" fill-rule="nonzero" xlink:href="#path-1"></use>
        <g id="black" mask="url(#mask-2)" fill="#ffffff">
            <g transform="translate(-39.000000, -38.000000)">
                <rect x="0" y="0" width="100" height="100"></rect>
            </g>
        </g>
    </g>
</svg>