<?xml version="1.0" encoding="UTF-8"?>
<svg width="24px" height="24px" viewBox="0 0 24 24" version="1.1" xmlns="http://www.w3.org/2000/svg" xmlns:xlink="http://www.w3.org/1999/xlink">
    <title>icons/share</title>
    <g id="icons/share" stroke="none" stroke-width="1" fill="none" fill-rule="evenodd">
        <g id="share-2" transform="translate(3.000000, 2.000000)" fill="#000000">
            <path d="M15.5,0 C17.4329966,0 19,1.56700338 19,3.5 C19,5.43299662 17.4329966,7 15.5,7 C14.3900121,7 13.4007076,6.48329314 12.7594956,5.67728866 L6.74516983,9.18647165 C6.90950023,9.59206432 7,10.0354635 7,10.5 C7,10.9641507 6.9096505,11.4071991 6.74557914,11.8125177 L12.7626662,15.3187318 C13.4039662,14.5150065 14.39184,14 15.5,14 C17.4329966,14 19,15.5670034 19,17.5 C19,19.4329966 17.4329966,21 15.5,21 C13.5670034,21 12,19.4329966 12,17.5 C12,17.0339202 12.0911021,16.5891184 12.2564705,16.1824304 L6.24050439,12.6772887 C5.59929244,13.4832931 4.6099879,14 3.5,14 C1.56700338,14 0,12.4329966 0,10.5 C0,8.56700338 1.56700338,7 3.5,7 C4.6099879,7 5.59929244,7.51670686 6.24050439,8.32271134 L12.2548302,4.81352835 C12.0904998,4.40793568 12,3.96453651 12,3.5 C12,1.56700338 13.5670034,0 15.5,0 Z M15.5,15 C14.6134156,15 13.8346214,15.4615045 13.3907448,16.157386 C13.3810827,16.1859541 13.3679973,16.2142933 13.3520041,16.2417389 C13.3360578,16.2691039 13.3179135,16.2943921 13.2979251,16.3175099 C13.107463,16.6694582 13,17.0721794 13,17.5 C13,18.8807119 14.1192881,20 15.5,20 C16.8807119,20 18,18.8807119 18,17.5 C18,16.1192881 16.8807119,15 15.5,15 Z M3.5,8 C2.11928813,8 1,9.11928813 1,10.5 C1,11.8807119 2.11928813,13 3.5,13 C4.41503541,13 5.21525157,12.5084003 5.65094582,11.7749036 C5.65199885,11.7687667 5.65494444,11.7634977 5.65799589,11.7582611 L5.67216416,11.7384861 C5.88078101,11.3733832 6,10.9506141 6,10.5 C6,10.0485491 5.88033782,9.62504671 5.67100103,9.25948053 C5.6654711,9.25425097 5.66175789,9.2481855 5.65815649,9.24201425 L5.6533328,9.22912345 C5.21817836,8.49339958 4.41670901,8 3.5,8 Z M15.5,1 C14.1192881,1 13,2.11928813 13,3.5 C13,3.95145094 13.1196622,4.37495329 13.328999,4.74051947 C13.3345289,4.74574903 13.3382421,4.7518145 13.3418435,4.75798575 L13.3466672,4.77087655 C13.7818216,5.50660042 14.583291,6 15.5,6 C16.8807119,6 18,4.88071187 18,3.5 C18,2.11928813 16.8807119,1 15.5,1 Z" id="Combined-Shape"></path>
        </g>
    </g>
</svg>