<?xml version="1.0" encoding="UTF-8"?>
<svg width="24px" height="24px" viewBox="0 0 24 24" version="1.1" xmlns="http://www.w3.org/2000/svg" xmlns:xlink="http://www.w3.org/1999/xlink">
    <title>icons/lock</title>
    <g id="icons/lock" stroke="none" stroke-width="1" fill="none" fill-rule="evenodd">
        <g id="lock" transform="translate(3.000000, 2.000000)" fill="#000000">
            <path d="M16.5,9 L2.5,9 C1.11928813,9 0,10.1192881 0,11.5 L0,18.5 C0,19.8807119 1.11928813,21 2.5,21 L16.5,21 C17.8807119,21 19,19.8807119 19,18.5 L19,11.5 C19,10.1192881 17.8807119,9 16.5,9 Z M2.5,10 L16.5,10 C17.3284271,10 18,10.6715729 18,11.5 L18,18.5 C18,19.3284271 17.3284271,20 16.5,20 L2.5,20 C1.67157288,20 1,19.3284271 1,18.5 L1,11.5 C1,10.6715729 1.67157288,10 2.5,10 Z M9.5,15 C9.77614237,15 10,15.2238576 10,15.5 L10,17.5 C10,17.7761424 9.77614237,18 9.5,18 C9.22385763,18 9,17.7761424 9,17.5 L9,15.5 C9,15.2238576 9.22385763,15 9.5,15 Z M9.5,0 C12.4634791,0 14.8795391,2.34378001 14.9956328,5.27879286 L15,5.5 L15,9.5 C15,9.77614237 14.7761424,10 14.5,10 C14.2545401,10 14.0503916,9.82312484 14.0080557,9.58987563 L14,9.5 L14,5.5 C14,3.01471863 11.9852814,1 9.5,1 C7.08572667,1 5.11551091,2.90123652 5.00489799,5.2881643 L5,5.5 L5,9.5 C5,9.77614237 4.77614237,10 4.5,10 C4.25454011,10 4.05039163,9.82312484 4.00805567,9.58987563 L4,9.5 L4,5.5 C4,2.46243388 6.46243388,0 9.5,0 Z" id="Combined-Shape"></path>
        </g>
    </g>
</svg>