<?xml version="1.0" standalone="no"?>
<!DOCTYPE svg PUBLIC "-//W3C//DTD SVG 20010904//EN"
 "http://www.w3.org/TR/2001/REC-SVG-20010904/DTD/svg10.dtd">
<svg version="1.0" xmlns="http://www.w3.org/2000/svg"
 width="1024.000000pt" height="1024.000000pt" viewBox="0 0 1024.000000 1024.000000"
 preserveAspectRatio="xMidYMid meet">
<metadata>
Created by potrace 1.14, written by Peter Selinger 2001-2017
</metadata>
<g transform="translate(0.000000,1024.000000) scale(0.100000,-0.100000)"
fill="#000000" stroke="none">
<path d="M5508 10230 c-1 -5 -165 -173 -363 -372 -198 -200 -427 -433 -509
-518 -82 -85 -188 -195 -235 -245 -177 -184 -579 -614 -922 -985 -737 -799
-1106 -1254 -1475 -1817 -604 -921 -981 -1843 -1091 -2663 -26 -193 -26 -734
0 -935 94 -726 348 -1373 747 -1900 168 -222 428 -501 630 -675 47 -40 97 -83
112 -96 l28 -24 2770 0 2770 0 28 24 c15 13 77 65 137 116 223 188 459 445
635 690 133 187 207 309 320 535 239 474 374 951 420 1480 14 156 14 517 0
670 -43 487 -167 936 -375 1360 -505 1031 -1327 1739 -2455 2115 -302 101
-483 143 -811 189 -420 59 -702 73 -998 51 -138 -11 -399 -48 -534 -76 -43 -9
-80 -14 -83 -12 -4 5 195 231 525 593 135 148 269 294 296 324 462 509 1413
1485 1939 1990 l200 191 -851 0 c-545 0 -853 -4 -855 -10z m-73 -4260 c647
-59 1236 -313 1716 -742 388 -347 684 -836 815 -1347 165 -645 99 -1296 -191
-1886 -220 -448 -536 -806 -962 -1091 -154 -103 -410 -233 -588 -298 -164 -61
-430 -129 -611 -156 -196 -31 -565 -38 -763 -16 -649 72 -1229 342 -1680 781
-305 297 -532 636 -676 1010 -279 725 -216 1611 163 2290 126 226 249 391 437
584 382 393 864 663 1425 800 115 28 352 66 460 74 105 8 353 6 455 -3z"/>
</g>
</svg>
