<?xml version="1.0" encoding="UTF-8"?>
<svg width="24px" height="24px" viewBox="0 0 24 24" version="1.1" xmlns="http://www.w3.org/2000/svg" xmlns:xlink="http://www.w3.org/1999/xlink">
    <title>icons/store</title>
    <g id="icons/store" stroke="none" stroke-width="1" fill="none" fill-rule="evenodd">
        <path d="M15.935273,14.0875409 L22.8458096,18.9095651 C23.298724,19.2256075 23.4096885,19.8489687 23.0936518,20.301887 C22.9540697,20.5019249 22.7461863,20.6440473 22.5091275,20.7015054 C21.7495718,20.8856058 21.1343888,21.1088347 20.6635783,21.371192 L20.6708272,21.3762329 L20.730172,21.4442088 L21.9057425,23.0622428 C22.0680549,23.2856466 22.0185305,23.5983315 21.7951266,23.7606439 C21.5965454,23.9049216 21.3274212,23.8818221 21.1560702,23.7180039 L21.0967255,23.650028 L19.921155,22.031994 L19.8808283,21.9620372 C19.4931502,22.3430876 19.0914079,22.8684938 18.6756013,23.5382556 C18.3843214,24.0075079 17.7677783,24.1517405 17.2985461,23.8604282 C17.0923684,23.7324275 16.9397705,23.5338213 16.8691966,23.3016301 L14.4062534,15.1984387 C14.245643,14.6700234 14.5438078,14.1114577 15.0722231,13.9508473 C15.3656473,13.8616618 15.6837698,13.9120474 15.935273,14.0875409 Z M15.363034,14.9076278 L17.8260136,23.0108082 C18.4581953,21.9925195 19.0798049,21.2527185 19.7181135,20.7889602 C20.276114,20.3835491 21.0199715,20.0630443 21.9548579,19.8111072 L22.2726961,19.7290449 L15.363034,14.9076278 Z M12,1 C14.4149432,1 16.3855824,2.90229173 16.4951937,5.29015131 L18.3060781,5.29001846 C19.6116704,5.29001846 20.7107879,6.22180004 20.8812044,7.45904071 L20.8981066,7.62210074 L21.3690083,14.3560247 C21.3882718,14.6314943 21.1805757,14.8704228 20.9051061,14.8896863 C20.6602442,14.9068095 20.4442543,14.7446065 20.3857502,14.5148788 L20.3714445,14.4257841 L19.9005427,7.69186014 C19.8489641,6.95428222 19.2319821,6.36331648 18.4537813,6.29634327 L18.3060781,6.29001846 L5.44831421,6.29001846 C4.65153995,6.29001846 3.99072293,6.83759727 3.87004771,7.55537453 L3.85384957,7.69186014 L3.38294782,14.4257841 C3.37446915,14.5470296 3.37022639,14.6685077 3.37022639,14.7900185 C3.37022639,17.7515855 5.83993665,20.1749264 8.94132816,20.2860382 L9.1639056,20.2900185 L13.5063185,20.2900185 C13.7824608,20.2900185 14.0063185,20.5138761 14.0063185,20.7900185 C14.0063185,21.0354783 13.8294433,21.2396268 13.5961941,21.2819628 L13.5063185,21.2900185 L9.1639056,21.2900185 C5.41706315,21.2900185 2.37022639,18.3853549 2.37022639,14.7900185 L2.37401686,14.5728999 L2.38538398,14.3560247 L2.85628572,7.62210074 C2.94458033,6.35948237 3.99297717,5.3750917 5.27924986,5.29525119 L5.44831421,5.29001846 L7.50422639,5.29 C7.61551091,2.90123652 9.58572667,1 12,1 Z M12.0815244,14.4068903 C12.3184169,14.4158047 12.5223925,14.5928792 12.5571156,14.8358707 C12.5918388,15.0788622 12.4456215,15.3059787 12.2207068,15.3808847 L12.1328745,15.4015733 L10.8282277,15.5880055 L10.7381163,15.5927447 C10.5012238,15.5838303 10.2972482,15.4067558 10.2625251,15.1637643 C10.2278019,14.9207729 10.3740192,14.6936563 10.5989339,14.6187503 L10.6867662,14.5980617 L11.991413,14.4116296 L12.0815244,14.4068903 Z M12.9232567,10.9141022 L12.9826014,10.9820781 L14.158172,12.6001121 C14.3204844,12.823516 14.27096,13.1362008 14.0475561,13.2985133 C13.8489749,13.442791 13.5798507,13.4196914 13.4084997,13.2558733 L13.349155,13.1878974 L12.1735845,11.5698634 C12.011272,11.3464595 12.0607965,11.0337747 12.2842003,10.8714623 C12.4827815,10.7271846 12.7519057,10.7502841 12.9232567,10.9141022 Z M17.2863535,10.025387 C17.5133482,10.1187894 17.6348347,10.3600412 17.5852299,10.5918534 L17.5584801,10.6780333 L17.1115538,11.7641936 C17.0064762,12.0195625 16.7142765,12.1413977 16.4589075,12.0363201 C16.2319129,11.9429178 16.1104264,11.701666 16.1600312,11.4698538 L16.1867809,11.3836739 L16.6337073,10.2975136 C16.7387849,10.0421447 17.0309846,9.92030944 17.2863535,10.025387 Z M12,2 C10.1372322,2 8.61434649,3.45520841 8.50614766,5.29082051 L15.4938523,5.29082051 C15.3856535,3.45520841 13.8627678,2 12,2 Z" id="Combined-Shape" fill="#000000"></path>
    </g>
</svg>