<?xml version="1.0" encoding="UTF-8"?>
<svg width="24px" height="24px" viewBox="0 0 24 24" version="1.1" xmlns="http://www.w3.org/2000/svg" xmlns:xlink="http://www.w3.org/1999/xlink">
    <title>icons/mail</title>
    <g id="icons/mail" stroke="none" stroke-width="1" fill="none" fill-rule="evenodd">
        <g id="mail" transform="translate(2.000000, 4.000000)" fill="#000000">
            <path d="M18.5,0 C19.8761424,0 21,1.12385763 21,2.5 L21,2.5 L21,14.5 C21,15.8761424 19.8761424,17 18.5,17 L18.5,17 L2.5,17 C1.12385763,17 0,15.8761424 0,14.5 L0,14.5 L0,2.5 C0,1.12385763 1.12385763,0 2.5,0 L2.5,0 Z M20,3.459 L10.7867312,9.90961596 C10.6391654,10.012912 10.4497352,10.0276686 10.2902082,9.95388569 L10.2132688,9.90961596 L1,3.46 L1,14.5 C1,15.2753954 1.59893581,15.9199427 2.35625429,15.9930888 L2.5,16 L18.5,16 C19.3238576,16 20,15.3238576 20,14.5 L20,14.5 L20,3.459 Z M18.5,1 L2.5,1 C1.75956661,1 1.13844766,1.54614229 1.0202502,2.25481983 L10.5,8.889 L19.9797498,2.25481983 C19.8615523,1.54614229 19.2404334,1 18.5,1 L18.5,1 Z" id="Combined-Shape"></path>
        </g>
    </g>
</svg>