<?xml version="1.0" encoding="UTF-8"?>
<svg width="20px" height="20px" viewBox="0 0 20 20" version="1.1" xmlns="http://www.w3.org/2000/svg" xmlns:xlink="http://www.w3.org/1999/xlink">
    <!-- Generator: Sketch 52.6 (67491) - http://www.bohemiancoding.com/sketch -->
    <title>account</title>
    <desc>Created with Sketch.</desc>
    <defs>
        <path d="M7.83674758,10.3650857 C6.73175,9.65328796 6,8.41207842 6,6.9999595 C6,4.79084287 7.79084287,3 9.9999595,3 C12.2090761,3 13.999919,4.79084287 13.999919,6.9999595 C13.999919,8.37496568 13.3061267,9.58792798 12.2495148,10.3078737 C14.5691835,11.0416085 16.1587808,13.0814939 16.9838849,16.3701422 C17.0507917,16.6368148 16.9032631,16.911109 16.6543707,16.9827954 C16.4054783,17.0544818 16.1494725,16.8964142 16.0825657,16.6297415 C15.1308709,12.836536 13.172986,10.9999911 10.1368644,10.9999911 C7.09321849,10.9999911 5.03945555,12.8474151 3.91153718,16.6513326 C3.83350107,16.9145102 3.57111749,17.0600779 3.32548704,16.9764671 C3.0798566,16.8928563 2.94399455,16.6117287 3.02203066,16.3485511 C3.96978212,13.1522486 5.584123,11.1416901 7.83674758,10.3650857 Z M9.9999685,9.999937 C11.6568054,9.999937 12.999937,8.65680535 12.999937,6.9999685 C12.999937,5.34313165 11.6568054,4 9.9999685,4 C8.34313165,4 7,5.34313165 7,6.9999685 C7,8.65680535 8.34313165,9.999937 9.9999685,9.999937 Z" id="path-1"></path>
    </defs>
    <g id="account" stroke="none" stroke-width="1" fill="none" fill-rule="evenodd">
        <mask id="mask-2" fill="white">
            <use xlink:href="#path-1"></use>
        </mask>
        <use id="Oval" fill="#000000" fill-rule="nonzero" xlink:href="#path-1"></use>
        <g id="black" mask="url(#mask-2)" fill="#000000">
            <rect x="0" y="0" width="20" height="20"></rect>
        </g>
    </g>
</svg>