<?xml version="1.0" encoding="UTF-8"?>
<svg width="24px" height="24px" viewBox="0 0 24 24" version="1.1" xmlns="http://www.w3.org/2000/svg" xmlns:xlink="http://www.w3.org/1999/xlink">
    <title>icons/close</title>
    <g id="icons/close" stroke="none" stroke-width="1" fill="none" fill-rule="evenodd">
        <path d="M11.725,1 C12.1426653,1 12.4878401,1.2887156 12.5424687,1.66330455 L12.55,1.76744186 L12.55,10.9 L22.2325581,10.9 C22.6564046,10.9 23,11.2693651 23,11.725 C23,12.1426653 22.7112844,12.4878401 22.3366955,12.5424687 L22.2325581,12.55 L12.55,12.55 L12.55,22.2325581 C12.55,22.6564046 12.1806349,23 11.725,23 C11.3073347,23 10.9621599,22.7112844 10.9075313,22.3366955 L10.9,22.2325581 L10.9,12.55 L1.76744186,12.55 C1.34359542,12.55 1,12.1806349 1,11.725 C1,11.3073347 1.2887156,10.9621599 1.66330455,10.9075313 L1.76744186,10.9 L10.9,10.9 L10.9,1.76744186 C10.9,1.34359542 11.2693651,1 11.725,1 Z" id="Combined-Shape" fill="#000000" transform="translate(12.000000, 12.000000) rotate(-315.000000) translate(-12.000000, -12.000000) "></path>
    </g>
</svg>