<?xml version="1.0" encoding="UTF-8"?>
<svg width="20px" height="20px" viewBox="0 0 20 20" version="1.1" xmlns="http://www.w3.org/2000/svg" xmlns:xlink="http://www.w3.org/1999/xlink">
    <!-- Generator: Sketch 52.6 (67491) - http://www.bohemiancoding.com/sketch -->
    <title>statement</title>
    <desc>Created with Sketch.</desc>
    <defs>
        <path d="M17.6744019,2 C17.8541863,2 18,2.14581369 18,2.32559812 L18,17.6744019 C18,17.8541863 17.8541863,18 17.6744019,18 C17.4946175,18 17.3488038,17.8541863 17.3488038,17.6744019 L17.3488038,2.65119623 L2.65119623,2.65119623 L2.65119623,17.3488038 L15.3723689,17.3488038 C15.5521534,17.3488038 15.697967,17.4946175 15.697967,17.6744019 C15.697967,17.8541863 15.5521534,18 15.3723689,18 L2.32559812,18 C2.14581369,18 2,17.8541863 2,17.6744019 L2,2.32559812 C2,2.14581369 2.14581369,2 2.32559812,2 L17.6744019,2 Z M5.57154001,5.38736001 C6.25980016,5.38736001 6.81966613,5.94722597 6.81966613,6.63548612 C6.81966613,7.32374628 6.25980016,7.88361224 5.57154001,7.88361224 C4.88327986,7.88361224 4.3234139,7.32374628 4.3234139,6.63548612 C4.3234139,5.94722597 4.88327986,5.38736001 5.57154001,5.38736001 Z M5.57154001,7.23241601 C5.90071971,7.23241601 6.16846989,6.96461155 6.16846989,6.63548612 C6.16846989,6.30636069 5.90066544,6.03855624 5.57154001,6.03855624 C5.24241458,6.03855624 4.97461013,6.30636069 4.97461013,6.63548612 C4.97461013,6.96461155 5.24241458,7.23241601 5.57154001,7.23241601 Z M15.3937499,6.30988801 C15.5735886,6.30988801 15.719348,6.4557017 15.719348,6.63548612 C15.719348,6.81527055 15.5735343,6.96108424 15.3937499,6.96108424 L7.79646048,6.96108424 C7.61667605,6.96108424 7.47086236,6.81527055 7.47086236,6.63548612 C7.47086236,6.4557017 7.61667605,6.30988801 7.79646048,6.30988801 L15.3937499,6.30988801 Z M5.57154001,8.75187388 C6.25980016,8.75187388 6.81966613,9.31173985 6.81966613,10 C6.81966613,10.6882602 6.25980016,11.2481261 5.57154001,11.2481261 C4.88327986,11.2481261 4.3234139,10.6882602 4.3234139,10 C4.3234139,9.82021557 4.46922759,9.67440188 4.64901201,9.67440188 C4.82879644,9.67440188 4.97461013,9.82021557 4.97461013,10 C4.97461013,10.3291254 5.24241458,10.5969299 5.57154001,10.5969299 C5.90066544,10.5969299 6.16846989,10.3291254 6.16846989,10 C6.16846989,9.67087457 5.90066544,9.40307012 5.57154001,9.40307012 C5.39175558,9.40307012 5.24594189,9.25725643 5.24594189,9.077472 C5.24594189,8.89768758 5.39175558,8.75187388 5.57154001,8.75187388 Z M15.3937499,9.67440188 C15.5735886,9.67440188 15.719348,9.82021557 15.719348,10 C15.719348,10.1797844 15.5735343,10.3255981 15.3937499,10.3255981 L7.79646048,10.3255981 C7.61667605,10.3255981 7.47086236,10.1797844 7.47086236,10 C7.47086236,9.82021557 7.61667605,9.67440188 7.79646048,9.67440188 L15.3937499,9.67440188 Z M5.57154001,12.1163878 C6.25980016,12.1163878 6.81966613,12.6762537 6.81966613,13.3645139 C6.81966613,14.052774 6.25980016,14.61264 5.57154001,14.61264 C4.88327986,14.61264 4.3234139,14.052774 4.3234139,13.3645139 C4.3234139,12.6762537 4.88327986,12.1163878 5.57154001,12.1163878 Z M5.57154001,13.9614438 C5.90071971,13.9614438 6.16846989,13.6936393 6.16846989,13.3645139 C6.16846989,13.0353884 5.90066544,12.767584 5.57154001,12.767584 C5.24241458,12.767584 4.97461013,13.0353884 4.97461013,13.3645139 C4.97461013,13.6936393 5.24241458,13.9614438 5.57154001,13.9614438 Z M15.3937499,13.0389158 C15.5735886,13.0389158 15.719348,13.1847294 15.719348,13.3645139 C15.719348,13.5442983 15.5735343,13.690112 15.3937499,13.690112 L7.79646048,13.690112 C7.61667605,13.690112 7.47086236,13.5442983 7.47086236,13.3645139 C7.47086236,13.1847294 7.61667605,13.0389158 7.79646048,13.0389158 L15.3937499,13.0389158 Z" id="path-1"></path>
    </defs>
    <g id="statement" stroke="none" stroke-width="1" fill="none" fill-rule="evenodd">
        <mask id="mask-2" fill="white">
            <use xlink:href="#path-1"></use>
        </mask>
        <use id="Path-2" fill="#000000" xlink:href="#path-1"></use>
        <g id="black" mask="url(#mask-2)" fill="#000000">
            <rect x="0" y="0" width="20" height="20"></rect>
        </g>
    </g>
</svg>