<?xml version="1.0" encoding="UTF-8"?>
<svg width="20px" height="20px" viewBox="0 0 20 20" version="1.1" xmlns="http://www.w3.org/2000/svg" xmlns:xlink="http://www.w3.org/1999/xlink">
    <!-- Generator: Sketch 52.6 (67491) - http://www.bohemiancoding.com/sketch -->
    <title>logout</title>
    <desc>Created with Sketch.</desc>
    <defs>
        <path d="M17.6960951,9.67741935 C17.8760611,9.85398981 17.8760611,10.1460102 17.6926995,10.3293718 L14.7792869,13.2427844 C14.6910017,13.3344652 14.5721562,13.3786078 14.4567063,13.3786078 C14.3412564,13.3786078 14.2224109,13.3310696 14.1341256,13.2427844 C13.9541596,13.0628183 13.9541596,12.7741935 14.1341256,12.5942275 L16.2665535,10.4617997 L6.96604414,10.4617997 C6.71137521,10.4617997 6.50764007,10.2580645 6.50764007,10.0033956 C6.50764007,9.74872666 6.71137521,9.54499151 6.96604414,9.54499151 L16.2665535,9.54499151 L14.1341256,7.41256367 C13.9541596,7.23259762 13.9541596,6.94397284 14.1341256,6.76400679 C14.3140917,6.58404075 14.6027165,6.58404075 14.7826825,6.76400679 L17.6960951,9.67741935 Z M10.1443124,17.0831919 C10.3955857,17.0831919 10.6027165,17.286927 10.6027165,17.5415959 C10.6027165,17.7962649 10.3989813,18 10.1443124,18 L5.97113752,18 C4.3344652,18 3,16.6689304 3,15.0288625 L3,4.97113752 C3,3.3344652 4.33106961,2 5.97113752,2 L10.2122241,2 C10.466893,2 10.6706282,2.20373514 10.6706282,2.45840407 C10.6706282,2.71307301 10.466893,2.91680815 10.2122241,2.91680815 L5.97113752,2.91680815 C4.84040747,2.91680815 3.91680815,3.83701188 3.91680815,4.97113752 L3.91680815,15.0288625 C3.91680815,16.1595925 4.83701188,17.0831919 5.97113752,17.0831919 L10.1443124,17.0831919 Z" id="path-1"></path>
    </defs>
    <g id="logout" stroke="none" stroke-width="1" fill="none" fill-rule="evenodd">
        <mask id="mask-2" fill="white">
            <use xlink:href="#path-1"></use>
        </mask>
        <use id="Path-3" fill="#000000" xlink:href="#path-1"></use>
        <g id="black" mask="url(#mask-2)" fill="#000000">
            <rect x="0" y="0" width="20" height="20"></rect>
        </g>
    </g>
</svg>