<?xml version="1.0" encoding="UTF-8"?>
<svg width="24px" height="24px" viewBox="0 0 24 24" version="1.1" xmlns="http://www.w3.org/2000/svg" xmlns:xlink="http://www.w3.org/1999/xlink">
    <title>icons/plus</title>
    <g id="icons/plus" stroke="none" stroke-width="1" fill="none" fill-rule="evenodd">
        <path d="M11.75,2 C12.1296958,2 12.443491,2.26246873 12.4931534,2.60300413 L12.5,2.69767442 L12.5,11 L21.3023256,11 C21.6876405,11 22,11.3357864 22,11.75 C22,12.1296958 21.7375313,12.443491 21.3969959,12.4931534 L21.3023256,12.5 L12.5,12.5 L12.5,21.3023256 C12.5,21.6876405 12.1642136,22 11.75,22 C11.3703042,22 11.056509,21.7375313 11.0068466,21.3969959 L11,21.3023256 L11,12.5 L2.69767442,12.5 C2.31235948,12.5 2,12.1642136 2,11.75 C2,11.3703042 2.26246873,11.056509 2.60300413,11.0068466 L2.69767442,11 L11,11 L11,2.69767442 C11,2.31235948 11.3357864,2 11.75,2 Z" id="Combined-Shape" fill="#000000"></path>
    </g>
</svg>