<?xml version="1.0" encoding="UTF-8"?>
<svg width="24px" height="24px" viewBox="0 0 24 24" version="1.1" xmlns="http://www.w3.org/2000/svg" xmlns:xlink="http://www.w3.org/1999/xlink">
    <title>icons/chat</title>
    <g id="icons/chat" stroke="none" stroke-width="1" fill="none" fill-rule="evenodd">
        <g id="chat" transform="translate(2.000000, 2.000000)" fill="#000000">
            <path d="M9.86449198,2.48689958e-14 C15.2602139,0.00534759358 19.6291979,4.39037433 19.6185223,9.78609626 C19.6185223,15.197861 15.2174332,19.5989305 9.80566845,19.5989305 C8.69336898,19.6042781 7.59176471,19.4117647 6.54363636,19.0320856 L6.54363636,19.0320856 L1.30834225,19.9518717 C1.20673797,19.9679144 1.0997861,19.9572193 1.00352941,19.9144385 C0.736149733,19.802139 0.607807487,19.486631 0.725454545,19.2139037 L0.725454545,19.2139037 L2.15326203,15.8983957 C0.773582888,14.171123 0.0195721925,12.026738 0.0195721925,9.81818182 C0.0195721925,4.40641711 4.42064171,0.00534759358 9.83240642,0.00534759358 C9.8484492,0.00534759358 9.85914439,0.00534759358 9.86449198,2.48689958e-14 Z M9.83775401,1.0694967 C5.01957219,1.0694967 1.0944385,4.98930481 1.0944385,9.81283422 C1.0944385,10.8983957 1.29764706,11.973262 1.69336898,12.9839572 C2.04631016,13.8877005 2.54898396,14.7219251 3.18,15.4545455 C3.31368984,15.6096257 3.3457754,15.828877 3.2655615,16.0160428 L3.2655615,16.0160428 L2.0997861,18.7272727 L6.50620321,17.9572193 C6.60245989,17.9411765 6.69871658,17.9465241 6.78962567,17.9839572 C7.75754011,18.3475936 8.77893048,18.5347594 9.81101604,18.5347594 C14.6291979,18.5347594 18.5543316,14.6149733 18.5543316,9.78609626 L18.5543316,9.78609626 L18.5543316,9.7540107 C18.548984,4.94652406 14.6452406,1.05882353 9.83775401,1.0694967 Z M13.1372193,10.5187166 C13.4313369,10.5187166 13.6719786,10.7593583 13.6719786,11.0534759 C13.6719786,11.3475936 13.4313369,11.5882353 13.1372193,11.5882353 L13.1372193,11.5882353 L6.50620321,11.5882353 C6.21208556,11.5882353 5.97144385,11.3475936 5.97144385,11.0534759 C5.97144385,10.7593583 6.21208556,10.5187166 6.50620321,10.5187166 L6.50620321,10.5187166 Z M9.39390374,7.84491979 C9.68802139,7.84491979 9.9286631,8.0855615 9.9286631,8.37967914 C9.9286631,8.67379679 9.68802139,8.9144385 9.39390374,8.9144385 L9.39390374,8.9144385 L6.50620321,8.9144385 C6.21208556,8.9144385 5.97144385,8.67379679 5.97144385,8.37967914 C5.97144385,8.0855615 6.21208556,7.84491979 6.50620321,7.84491979 L6.50620321,7.84491979 Z" id="Combined-Shape"></path>
        </g>
    </g>
</svg>