<?xml version="1.0" encoding="UTF-8"?>
<svg width="24px" height="24px" viewBox="0 0 24 24" version="1.1" xmlns="http://www.w3.org/2000/svg" xmlns:xlink="http://www.w3.org/1999/xlink">
    <title>C2DCA0ED-644B-48EE-96AC-6BF5BD12757D</title>
    <defs>
        <rect id="path-1" x="0" y="2" width="427" height="205" rx="12"></rect>
        <filter x="-3.5%" y="-7.3%" width="107.0%" height="114.6%" filterUnits="objectBoundingBox" id="filter-2">
            <feOffset dx="0" dy="0" in="SourceAlpha" result="shadowOffsetOuter1"></feOffset>
            <feGaussianBlur stdDeviation="5" in="shadowOffsetOuter1" result="shadowBlurOuter1"></feGaussianBlur>
            <feColorMatrix values="0 0 0 0 0   0 0 0 0 0   0 0 0 0 0  0 0 0 0.149644545 0" type="matrix" in="shadowBlurOuter1"></feColorMatrix>
        </filter>
    </defs>
    <g id="Artboards" stroke="none" stroke-width="1" fill="none" fill-rule="evenodd">
        <g id="Dsk-share" transform="translate(-1164.000000, -463.000000)">
            <rect fill="#FFFFFF" x="0" y="0" width="1440" height="1459"></rect>
            <g id="Group-6" transform="translate(965.000000, 345.000000)">
                <g id="Rectangle" fill-rule="nonzero">
                    <use fill="black" fill-opacity="1" filter="url(#filter-2)" xlink:href="#path-1"></use>
                    <use fill="#FFFFFF" xlink:href="#path-1"></use>
                </g>
                <g id="Group" transform="translate(21.000000, 100.000000)">
                    <g id="elements/social-circle-copy-2" transform="translate(160.000000, 0.000000)">
                        <circle id="Oval" fill="#F6F6F6" cx="30" cy="30" r="30"></circle>
                        <g id="icons/facebook" transform="translate(18.000000, 18.000000)" fill="#000000">
                            <g id="whatsapp-(1)" transform="translate(1.000000, 1.000000)">
                                <path d="M11,0 C17.0656538,0 22,4.93434615 22,11 C22,17.0656538 17.0656538,22 11,22 C8.99461538,22 7.03873077,21.4571923 5.33076923,20.4282692 L5.33076923,20.4282692 L0.970538462,21.7694231 C0.824153846,21.8142692 0.663384615,21.7761923 0.552115385,21.6691538 C0.440846154,21.5621154 0.397269231,21.4030385 0.437884615,21.2541154 C0.443136605,21.2354708 0.747480335,20.1190699 1.08150561,18.9108254 L1.19357712,18.5060555 C1.36222469,17.8979377 1.53080902,17.2948011 1.66565385,16.8223846 C0.574961538,15.0780385 0,13.0692692 0,11 C0,4.93434615 4.93434615,0 11,0 Z M11,0.846153846 C5.40142308,0.846153846 0.846153846,5.40142308 0.846153846,11 C0.846153846,12.9702692 1.41096154,14.8808846 2.47965385,16.5253846 C2.54607692,16.6281923 2.56511538,16.7551154 2.53126923,16.8727308 C2.23976923,17.8885385 1.73715385,19.7145385 1.4575,20.7354231 L1.4575,20.7354231 L5.26476923,19.5635 C5.30538462,19.5512308 5.34726923,19.5448846 5.38915385,19.5448846 C5.46742308,19.5448846 5.54569231,19.5664615 5.61380769,19.6091923 C7.22573077,20.6195 9.08811538,21.1538462 11,21.1538462 C16.5985769,21.1538462 21.1538462,16.5985769 21.1538462,11 C21.1538462,5.40142308 16.5985769,0.846153846 11,0.846153846 Z M5.84015385,4.23923077 C6.68926923,4.07 7.24476923,4.1085 7.49142308,4.35473077 C7.73723077,4.60053846 9.09615385,7.03280769 9.09615385,7.61538462 C9.09615385,8.18061538 8.81988462,8.67730769 8.05284615,9.46676923 C8.16326923,10.1166154 8.9155,11.0706538 10.1111154,12.067 C11.2821923,13.0421923 12.4604615,13.7119231 12.7121923,13.7512692 C12.9300769,13.7072692 13.6742692,12.8894615 14.2441538,12.0344231 C14.2593846,12.0115769 14.2771538,11.99 14.2970385,11.9701154 C14.4552692,11.8101923 14.8711538,11.6168462 15.4198846,11.8905769 C15.6161923,11.9891538 15.884,12.1638846 16.2546154,12.4058846 C16.7398846,12.7231923 17.4049615,13.1581154 18.1859615,13.5917692 C18.3425,13.6785 18.4275385,13.8545 18.3975,14.0309231 C17.996,16.4420385 16.5702308,17.6575385 14.1544615,17.6575385 C13.7449231,17.6575385 13.3074615,17.6228462 12.8408077,17.5530385 C8.73442308,16.9370385 5.51353846,13.145 4.25869231,9.88265385 C3.11553846,6.91011538 5.52115385,4.45753846 5.62396154,4.35473077 C5.68319231,4.29592308 5.7585,4.25573077 5.84015385,4.23923077 Z M6.92026923,4.99061538 C6.78234615,4.96903846 6.45192308,4.99146154 6.138,5.04476923 C5.75215385,5.48138462 4.21511538,7.41273077 5.04857692,9.57888462 C5.88880769,11.7628077 8.624,16.0650769 12.9664615,16.7161923 C16.3180769,17.2196538 17.1955385,15.6919231 17.5094615,14.1815385 C16.8181538,13.7851154 16.2326154,13.4026538 15.7917692,13.1145385 C15.4579615,12.8962308 15.1939615,12.7240385 15.0416538,12.6474615 C14.9676154,12.6102308 14.9155769,12.5996538 14.8846923,12.5983846 C14.3503462,13.3865769 13.4119615,14.5961538 12.6923077,14.5961538 C11.8647692,14.5961538 7.19230769,11.5229231 7.19230769,9.30769231 C7.19230769,9.19515385 7.23673077,9.08769231 7.31626923,9.00857692 C8.17765385,8.14676923 8.25,7.8375 8.25,7.61538462 C8.206,7.27607692 7.20838462,5.39126923 6.92026923,4.99061538 Z" id="Combined-Shape"></path>
                            </g>
                        </g>
                    </g>
                </g>
            </g>
        </g>
    </g>
</svg>