<?xml version="1.0" encoding="UTF-8"?>
<svg width="286px" height="231px" viewBox="0 0 286 231" version="1.1" xmlns="http://www.w3.org/2000/svg" xmlns:xlink="http://www.w3.org/1999/xlink">
    <title>Group 2</title>
    <defs>
        <polygon id="path-1" points="0 231 286 231 286 0 0 0"></polygon>
        <linearGradient x1="100%" y1="0%" x2="0%" y2="100%" id="linearGradient-3">
            <stop stop-color="#FF8960" offset="0%"></stop>
            <stop stop-color="#FF62A5" offset="100%"></stop>
        </linearGradient>
    </defs>
    <g id="ES+NPS+Notification" stroke="none" stroke-width="1" fill="none" fill-rule="evenodd">
        <g id="ES-empty-cart" transform="translate(-45.000000, -158.000000)">
            <g id="Group-2" transform="translate(45.000000, 158.000000)">
                <g id="No-Message">
                    <path d="M119,92 L119,93 C119,92.6650988 119.014,92.3330198 119.026,92 L119,92 Z" id="Fill-9" fill="#E7EAF0"></path>
                    <mask id="mask-2" fill="white">
                        <use xlink:href="#path-1"></use>
                    </mask>
                    <g id="Clip-18"></g>
                    <path d="M65.1339615,23.047583 C33.0380227,21.8581186 8,43.1744869 8,63.9414976 C8,84.83734 26.0704465,109.855795 54.5560399,104.183962 C83.0416332,98.512129 85.2464181,80.1653703 111.527227,80.1653703 C127.624028,80.1653703 147.51267,90.6088351 157,96.1955904" id="Stroke-28" stroke="#D7DAE9" stroke-dasharray="8.081,8.081" mask="url(#mask-2)"></path>
                    <path d="M160,98 C161.916865,99.2401301 163,100 163,100" id="Stroke-29" stroke="#9D9D9D" mask="url(#mask-2)"></path>
                    <path d="M287,63.9268593 C287,63.9268593 285.346343,64.2470513 284.242564,63.5475549 C282.295563,62.312763 283.020871,60.6816994 281.54092,59.9400581 C279.702054,59.0172482 278.747823,60.9165069 276.985456,60.032558 C274.914215,58.9937127 276.279704,57.3008 274.324651,56.3199725 C272.278143,55.293716 270.77461,56.9390104 268.84544,55.9707716 C267.840592,55.4666744 267.71175,54.9746187 267.283813,54.0419568 C266.821364,53.0364991 266.911093,52.1618549 265.648562,51.5329649 C263.987428,50.705939 262.753657,52.4585114 260.707149,51.4322549 C258.752095,50.4514274 260.117009,48.7585147 258.045768,47.7196695 C256.283402,46.8357206 255.329745,48.7349792 253.490304,47.8127167 C252.010929,47.070528 252.788578,45.3611952 250.788661,44.2046726 C249.155136,43.2605166 247.847165,44.1192881 247.003369,43.9950426 C245.526869,43.7782972 245,42 245,42" id="Stroke-30" stroke="#F06D8D" mask="url(#mask-2)"></path>
                    <path d="M68,166 C68,166 68.1173191,164.285685 69.1380614,163.401026 C70.9396054,161.841112 72.42631,163.01668 73.5928727,161.774845 C75.0431223,160.231497 73.3410012,158.754416 74.7302714,157.275347 C76.3627963,155.537838 77.7407985,157.359505 79.2818543,155.718083 C80.8951575,154.00178 79.6046475,152.057519 81.1264816,150.438628 C81.9178883,149.595717 82.4607377,149.608971 83.5391454,149.453244 C84.7023939,149.28559 85.5806301,149.622887 86.5722084,148.562622 C87.8746491,147.166386 86.4005381,145.456046 88.0131784,143.73908 C89.5555599,142.098321 90.9328993,143.919988 92.5654242,142.182479 C93.9546943,140.702747 92.2532361,139.226329 93.7028228,137.682981 C94.8693855,136.441146 96.4230349,137.69027 98.1576341,136.056137 C99.5747427,134.721529 99.0424984,133.192097 99.3984326,132.398887 C100.022146,131.010603 102,131 102,131" id="Stroke-31" stroke="#F06D8D" mask="url(#mask-2)"></path>
                    <path d="M57.9317349,127.383716 C57.7232007,126.717885 56.8166797,125.90848 54.8605935,126.570721 C53.4594499,127.044519 51.2103816,128.379769 50.1211777,129.343518 C50.6864608,127.943659 51.248297,125.228292 51.248297,123.684858 C51.248297,121.545586 50.1659868,121 49.4938514,121 C48.8234395,121 47.8031726,121.649678 47.8031726,123.78895 C47.8031726,125.325205 48.3288168,127.965195 48.8716954,129.341723 C47.7687041,128.349259 45.4627629,126.95299 44.0530021,126.475602 C42.0969159,125.815156 41.2662256,126.717885 41.0576913,127.383716 C40.8508804,128.047751 41.1283517,129.259168 43.0827144,129.919614 C44.4838581,130.395207 47.05693,130.691331 48.483925,130.576471 C47.2361661,131.36434 45.2490583,133.216461 44.3770058,134.463771 C43.170609,136.195648 43.7376155,137.299383 44.2804941,137.710367 C44.825096,138.121351 46.0159819,138.221854 47.2241021,136.489977 C48.0892609,135.248051 49.1560603,132.791119 49.4938514,131.342804 C49.8264722,132.821629 50.9036122,135.362911 51.7739413,136.612016 C52.9820614,138.342098 54.1643303,138.121351 54.7089322,137.710367 C55.2518107,137.299383 55.7102415,136.150781 54.5038448,134.418904 C53.6369625,133.178773 51.7205151,131.362545 50.5037778,130.58006 C51.9566242,130.709278 54.610697,130.425717 56.0204578,129.950124 C57.9748205,129.289677 58.1385458,128.047751 57.9317349,127.383716" id="Fill-57" fill="url(#linearGradient-3)" mask="url(#mask-2)"></path>
                    <path d="M69.9994565,80.6369705 C70.0150613,80.2825177 69.6982849,79.7281172 68.5763035,79.6841893 C67.772659,79.6523794 66.379155,79.8765632 65.6457319,80.1355864 C66.1903376,79.5720974 66.9721354,78.3799847 67.2514604,77.6438135 C67.6415791,76.6228682 67.1859205,76.1623825 66.842616,76.0396873 C66.4993116,75.9154774 65.8595169,76.0381726 65.4693982,77.0591178 C65.1900732,77.7922595 64.9778487,79.1494805 65.0059372,79.9053436 C64.6220604,79.2282478 63.6951384,78.1391386 63.0615856,77.6513873 C62.1799174,76.9758063 61.5884975,77.2545213 61.3622286,77.5347511 C61.1343993,77.8134661 61.057936,78.4420897 61.9380438,79.1176707 C62.5684756,79.6008777 63.8324602,80.2158685 64.5814881,80.42339 C63.7996902,80.5703213 62.4451981,81.0883677 61.774194,81.5231025 C60.8394696,82.12749 60.9299771,82.7591431 61.1328388,83.0545204 C61.3357005,83.3514125 61.928681,83.6180095 62.8618449,83.013622 C63.5297281,82.5804019 64.5237505,81.6033846 64.9606834,80.974761 C64.8608131,81.7412274 64.9513206,83.1529796 65.1682266,83.9088426 C65.4725192,84.9570535 66.1185557,85.0691454 66.471223,84.972201 C66.8238903,84.8767714 67.2686256,84.4132562 66.9658935,83.3635306 C66.7474271,82.6122118 66.0967091,81.3943483 65.6160829,80.7975346 C66.3370222,81.1247218 67.7476914,81.4791746 68.5544569,81.5109845 C69.6764382,81.5549124 69.9854122,80.9914233 69.9994565,80.6369705" id="Fill-58" fill="#DFE1EC" mask="url(#mask-2)"></path>
                    <path d="M225.042298,28.2620583 C222.439923,27.2808318 220.330295,25.6548891 219.045571,23.6398704 L218,22 L217.172786,23.3909695 C215.882863,25.5591926 213.65077,27.3046436 210.868742,28.3182183 L209,29.0002246 L210.928819,29.7541157 C213.248139,30.6607618 215.167137,32.084978 216.440308,33.844806 L218,36 L219.198074,34.2374763 C220.391528,32.4825904 222.220988,31.0381567 224.459435,30.0834376 L227,29.0002246 L225.042298,28.2620583 Z" id="Fill-94" fill="#E8E9EB" mask="url(#mask-2)"></path>
                    <path d="M232.347208,16.7891808 C231.479909,16.5089129 230.776427,16.0439979 230.34865,15.4682123 L230,15 L229.724294,15.397321 C229.294663,16.0167955 228.550381,16.5155075 227.62312,16.805255 L227,17.0002061 L227.642901,17.2153529 C228.416237,17.4746007 229.056048,17.8814013 229.480115,18.3842349 L230,19 L230.399341,18.4967543 C230.796827,17.9951571 231.406965,17.5821741 232.153101,17.3097372 L233,17.0002061 L232.347208,16.7891808 Z" id="Fill-95" fill="#E8E9EB" mask="url(#mask-2)"></path>
                    <path d="M211.347208,21.7891808 C210.479909,21.5089129 209.776427,21.0444101 209.34865,20.4686244 L209,20 L208.724294,20.397321 C208.294663,21.0167955 207.550381,21.5155075 206.62312,21.805255 L206,22.0002061 L206.643519,22.2157651 C207.416237,22.4746007 208.056048,22.8814013 208.480115,23.3842349 L209,24 L209.399341,23.4967543 C209.797445,22.9951571 210.406965,22.5821741 211.153101,22.3097372 L212,22.0002061 L211.347208,21.7891808 Z" id="Fill-96" fill="#E8E9EB" mask="url(#mask-2)"></path>
                    <path d="M210.482012,37 C201.073381,47.3221005 208.389114,54.8267521 215,57" id="Stroke-97" stroke="#E8E9EB" mask="url(#mask-2)" transform="translate(210.500000, 47.000000) rotate(16.000000) translate(-210.500000, -47.000000) "></path>
                </g>
                <g id="circles" transform="translate(148.000000, 20.000000)" fill="#FF6D93" font-family="AvenirNext-Regular, Avenir Next" font-size="67" font-weight="normal">
                    <text id="?">
                        <tspan x="0.353" y="67">?</tspan>
                    </text>
                </g>
                <g id="flaticon1589353010-svg" transform="translate(119.000000, 115.000000)" fill-rule="nonzero">
                    <path d="M77.0438272,100.5 L24.9562305,100.5 C13.9105355,100.5 4.95623047,91.545695 4.95623047,80.5 C4.95623047,80.1887408 4.96349664,79.8775241 4.97802305,79.566604 L8.67207064,0.5 L8.67207064,0.5 L93.3282049,0.5 L97.0220372,79.566659 C97.5375072,90.6003197 89.010829,99.96274 77.9771682,100.47821 C77.6662665,100.492735 77.3550681,100.5 77.0438272,100.5 Z" id="Path" fill="#D8DBEA"></path>
                    <path d="M75.1394445,100.5 L18.8606074,100.5 C8.91948193,100.5 0.860607426,92.4411255 0.860607426,82.5 C0.860607426,82.2198667 0.86714698,81.9397717 0.880220742,81.6599436 L4.67207064,0.5 L4.67207064,0.5 L89.3282049,0.5 L93.1198335,81.6599931 C93.5837565,91.5902877 85.9097461,100.016466 75.9794514,100.480389 C75.6996398,100.493461 75.4195613,100.5 75.1394445,100.5 Z" id="Path" fill="#F1F2F7"></path>
                    <g id="Group" transform="translate(22.000000, 7.500000)" fill="#F1F3F7">
                        <ellipse id="Oval" cx="5.64365957" cy="5.48219048" rx="5.62706383" ry="5.32819048"></ellipse>
                        <ellipse id="Oval" cx="46.1591277" cy="5.48219048" rx="5.62706383" ry="5.32819048"></ellipse>
                    </g>
                    <path d="M47.5001386,51.5 C34.5280444,51.5 24,41.0159616 24,28.0980891 L24,13.6825362 C24,11.9040926 25.4099861,10.5 27.1958947,10.5 C28.9818032,10.5 30.3917893,11.9040926 30.3917893,13.6825362 L30.3917893,28.0980891 C30.3917893,37.552386 38.0998614,45.1346515 47.4998614,45.1346515 C56.8998614,45.1346515 64.6079335,37.4587982 64.6079335,28.0980891 L64.6079335,13.6825362 C64.6079335,11.9040926 66.0179196,10.5 67.8038281,10.5 C69.5897366,10.5 71,11.9040926 71,13.6825362 L71,28.0980891 C71,41.0159616 60.4722329,51.5 47.5001386,51.5 Z" id="Path" fill="#E0E2EE"></path>
                </g>
            </g>
        </g>
    </g>
</svg>