<svg xmlns="http://www.w3.org/2000/svg" xmlns:xlink="http://www.w3.org/1999/xlink" width="263.245" height="190.422" viewBox="0 0 263.245 190.422">
  <defs>
    <linearGradient id="linear-gradient" x1="1" x2="0" y2="1" gradientUnits="objectBoundingBox">
      <stop offset="0" stop-color="#ff8960"/>
      <stop offset="1" stop-color="#ff62a5"/>
    </linearGradient>
  </defs>
  <g id="Group_156734" data-name="Group 156734" transform="translate(-135.645 -115.454)">
    <g id="EmptyState_NoProductFound_NoItemFound" data-name="EmptyState, NoProductFound, NoItemFound" transform="translate(136.145 131.761)">
      <circle id="Ellipse_1" data-name="Ellipse 1" cx="15.602" cy="15.602" r="15.602" transform="translate(224.84 122.532)" fill="#e8e9eb" stroke="rgba(0,0,0,0)" stroke-width="1"/>
      <circle id="Ellipse_2" data-name="Ellipse 2" cx="5.859" cy="5.859" r="5.859" transform="translate(200.188 82.858)" stroke="rgba(0,0,0,0)" stroke-width="1" fill="url(#linear-gradient)"/>
      <circle id="Ellipse_4" data-name="Ellipse 4" cx="5.859" cy="5.859" r="5.859" transform="translate(50.533 122.978)" stroke="rgba(0,0,0,0)" stroke-width="1" opacity="0.2" fill="url(#linear-gradient)"/>
      <circle id="Ellipse_5" data-name="Ellipse 5" cx="10.571" cy="10.571" r="10.571" transform="translate(0 24.833)" stroke="rgba(0,0,0,0)" stroke-width="1" opacity="0.2" fill="url(#linear-gradient)"/>
      <circle id="Ellipse_6" data-name="Ellipse 6" cx="4.585" cy="4.585" r="4.585" transform="translate(69.957 0)" stroke="rgba(0,0,0,0)" stroke-width="1" fill="url(#linear-gradient)"/>
      <path id="Path_210" data-name="Path 210" d="M100.932,14.21l-3.12,14.138-6.368-7.642,9.489-6.5Zm-78.011,6.5-5.8,6.941L14.26,14.719Z" transform="translate(74.419 35.724)" stroke="rgba(0,0,0,0)" stroke-width="1" opacity="0.2" fill="url(#linear-gradient)"/>
      <path id="Path_211" data-name="Path 211" d="M94.242,122.5a36.744,36.744,0,0,1-4.585,0,19.614,19.614,0,0,1-12.036-4.776,20.187,20.187,0,0,0,12.1.573c1.465-.446,2.929-.892,4.394-1.465a23.627,23.627,0,0,0,11.972-9.807l-.318-5.349-.573-5.222-3.248-53.939-41.33,9.552-41.33-9.552L17.823,65.439l-.892,13.246-.509,8.725a50.946,50.946,0,0,0,19.1,9.935c2.993.764,5.923,1.592,8.979,2.1,20.187,3.566,38.21-1.719,40.12-12.036a2.609,2.609,0,0,0,0-.7A8.088,8.088,0,0,1,85.2,89.7a10.635,10.635,0,0,1-2.42,6.368,21.78,21.78,0,0,1-7.515,6.368,58.97,58.97,0,0,1-27.511,6.368,54.624,54.624,0,0,1-9.234-.51,47.762,47.762,0,0,1-22.671-8.088L14.7,117.977a12.737,12.737,0,0,0,12.737,13.628H94.306a12.737,12.737,0,0,0,12.737-13.246,25.473,25.473,0,0,1-12.8,4.139ZM37.5,71.043H36.355a4.267,4.267,0,0,1-1.21-3.057,4.713,4.713,0,0,1,4.713-4.713h.955a4.33,4.33,0,0,1,1.274,3.12A4.713,4.713,0,0,1,37.5,71.043Zm46.234,0H82.589a4.267,4.267,0,0,1-1.21-3.057,4.713,4.713,0,0,1,4.713-4.713h1.146a4.267,4.267,0,0,1,1.21,3.057A4.712,4.712,0,0,1,83.735,71.043ZM107.616,33.6l-47,8.916-47-8.916L36.546,22.071,27.567,14.62h66.1C90.74,16.594,66.6,32.961,53.8,31.751a62.346,62.346,0,0,0,40.311-5.222Z" transform="translate(70.984 37.925)" fill="#f1f2f7" stroke="rgba(0,0,0,0)" stroke-width="1" opacity="0.6"/>
      <path id="Path_212" data-name="Path 212" d="M113.446,40.207a.573.573,0,0,0,0-.318L109.5,35.176l4.139-18.532v-.318a.764.764,0,0,0-.509-.573L72.052,13.588a101.89,101.89,0,0,0-12.737,0L18.559,15.562a.764.764,0,0,0-.509.573s0,0,0,.318l4.139,18.532L18.24,39.7v.318L12.7,128.408a13.564,13.564,0,0,0,3.694,10.126A13.31,13.31,0,0,0,26.2,142.8h79.6a13.31,13.31,0,0,0,9.807-4.267,13.564,13.564,0,0,0,3.694-10.126Zm-5.413-6.687-6.941-8.215,10.38-7.132ZM19.9,18.173l10.38,7.132-6.941,8.215Zm12.163,7.451a.955.955,0,0,0,0-.637,1.4,1.4,0,0,0-.318-.509l-10.635-7.2,38.21-1.847a99.978,99.978,0,0,1,12.355,0l38.592,1.847L99.436,24.732a1.4,1.4,0,0,0-.318.509.956.956,0,0,0,0,.637l11.845,14.074L65.684,48.613,20.214,39.7Zm82.087,112.018a11.781,11.781,0,0,1-8.661,3.757h-79.6a11.972,11.972,0,0,1-11.909-12.737l5.477-87.5,46.234,9.043,46.106-8.979,5.477,87.5a11.845,11.845,0,0,1-3.12,8.916Z" transform="translate(65.918 31.315)" fill="#d8dbea"/>
      <path id="Path_213" data-name="Path 213" d="M21.132,11.1A37.7,37.7,0,0,1,24,15.808l-.7.573-.573.7a35.027,35.027,0,0,1-4.776-2.738,2.165,2.165,0,0,1,0-3.184,2.293,2.293,0,0,1,3.184-.064Z" transform="translate(90.473 15.721)" stroke="rgba(0,0,0,0)" stroke-width="1" opacity="0.2" fill="url(#linear-gradient)"/>
      <path id="Path_214" data-name="Path 214" d="M34.182,27.245a.764.764,0,0,1-.7-.446c-2.038-3.63-8.151-13.182-8.916-13.947a3.694,3.694,0,0,0-2.611-1.083,3.948,3.948,0,0,0-2.611,1.146,3.757,3.757,0,0,0-1.083,2.738A3.439,3.439,0,0,0,19.344,18.2a70.053,70.053,0,0,0,8.088,4.649.764.764,0,0,1,.318,1.083.828.828,0,0,1-1.083,0,49.928,49.928,0,0,1-8.406-4.9,5.286,5.286,0,0,1,0-7.515A5.413,5.413,0,0,1,22.019,9.86a5.349,5.349,0,0,1,3.694,1.528c1.019,1.019,7.387,11.017,9.234,14.329a.828.828,0,0,1-.318,1.083Z" transform="translate(87.485 12.372)" fill="#e8e9eb"/>
      <path id="Path_215" data-name="Path 215" d="M30.174,14.127A43.241,43.241,0,0,1,24.7,18.712a3.375,3.375,0,0,0-.892-.764,2.42,2.42,0,0,0-.955-.573A41.523,41.523,0,0,1,25.4,11.007a2.929,2.929,0,0,1,4.776,3.375Z" transform="translate(120.533 12.626)" stroke="rgba(0,0,0,0)" stroke-width="1" opacity="0.2" fill="url(#linear-gradient)"/>
      <path id="Path_216" data-name="Path 216" d="M22.749,29.161a.764.764,0,0,1-.573-.318.7.7,0,0,1,0-1.083c3.184-2.484,11.845-10,12.737-10.89a3.63,3.63,0,0,0,.637-2.8,3.5,3.5,0,0,0-1.465-2.42,4.076,4.076,0,0,0-2.8-.7,3.694,3.694,0,0,0-2.42,1.528A68.207,68.207,0,0,0,23.64,23.238a.764.764,0,0,1-1.019.446.7.7,0,0,1-.446-.955,69.605,69.605,0,0,1,5.349-11.208,5.222,5.222,0,0,1,3.5-2.1,5.349,5.349,0,0,1,4.012.955,5.286,5.286,0,0,1,2.1,3.439,5.158,5.158,0,0,1-.955,3.948A168.186,168.186,0,0,1,23.449,29.033Z" transform="translate(115.539 9.629)" fill="#e8e9eb"/>
      <path id="Path_217" data-name="Path 217" d="M26.149,11.663a41.839,41.839,0,0,1-2.229,6.75,2.42,2.42,0,0,0-1.146,0,2.356,2.356,0,0,0-1.146,0,46.107,46.107,0,0,1-1.337-7.005A2.8,2.8,0,0,1,23.347,8.67a2.993,2.993,0,0,1,2.8,2.993Z" transform="translate(106.79 5.92)" stroke="rgba(0,0,0,0)" stroke-width="1" opacity="0.2" fill="url(#linear-gradient)"/>
      <path id="Path_218" data-name="Path 218" d="M45.353,23.684a.828.828,0,0,1-.446-1.019,53.941,53.941,0,0,0,2.8-8.852,4.2,4.2,0,0,0-.955-2.675,3.757,3.757,0,0,0-2.547-1.274,4.076,4.076,0,0,0-2.8.955,4.012,4.012,0,0,0-1.21,2.547,72.281,72.281,0,0,0,1.783,9.17.781.781,0,1,1-1.528.318A55.594,55.594,0,0,1,38.6,13.3,5.222,5.222,0,0,1,40.385,9.61,5.8,5.8,0,0,1,44.27,8.272a5.54,5.54,0,0,1,3.63,1.783,5.413,5.413,0,0,1,1.4,3.885,53.173,53.173,0,0,1-3.311,9.234.7.7,0,0,1-.637.509ZM74.9,100.23a5.859,5.859,0,1,0-6.368,5.731v.637A21.461,21.461,0,0,1,45.99,126.468,21.525,21.525,0,0,1,23.127,106.6v-.509a5.986,5.986,0,1,0-1.592,0v.637A23.181,23.181,0,0,0,45.99,128.06,23.117,23.117,0,0,0,70.38,106.6v-.764a5.8,5.8,0,0,0,4.521-5.6Zm-56.614,0a4.2,4.2,0,1,1,4.2,4.2A4.2,4.2,0,0,1,18.287,100.23Zm50.946,4.076a4.2,4.2,0,1,1,4.2-4.2A4.2,4.2,0,0,1,69.234,104.306Z" transform="translate(85.612 3.834)" stroke="rgba(0,0,0,0)" stroke-width="1" fill="url(#linear-gradient)"/>
    </g>
    <g id="Group_156733" data-name="Group 156733" transform="translate(355.156 105.876) rotate(30)">
      <path id="Fill_94" data-name="Fill 94" d="M27.392,10.671A20.583,20.583,0,0,1,17.153,2.794L15.367,0,13.955,2.37a20.469,20.469,0,0,1-10.764,8.4L0,11.929l3.293,1.285A20.88,20.88,0,0,1,12.7,20.185l2.663,3.673,2.046-3A20.428,20.428,0,0,1,26.4,13.775l4.338-1.846Z" transform="translate(9.52 11.929)" fill="#e8e9eb"/>
      <path id="Fill_95" data-name="Fill 95" d="M9.13,3.049A6.813,6.813,0,0,1,5.718.8l-.6-.8L4.652.677a6.757,6.757,0,0,1-3.588,2.4L0,3.409l1.1.367A6.973,6.973,0,0,1,4.235,5.767l.888,1.049L5.8,5.959A6.73,6.73,0,0,1,8.8,3.936l1.446-.527Z" transform="translate(40.255 0)" fill="#e8e9eb"/>
      <path id="Fill_96" data-name="Fill 96" d="M9.13,3.049A6.812,6.812,0,0,1,5.718.8l-.6-.8L4.652.677a6.757,6.757,0,0,1-3.588,2.4L0,3.409l1.1.367A6.969,6.969,0,0,1,4.235,5.767l.888,1.049L5.8,5.959A6.736,6.736,0,0,1,8.8,3.936l1.446-.527Z" transform="translate(4.398 8.521)" fill="#e8e9eb"/>
      <path id="Stroke_97" data-name="Stroke 97" d="M7.66,0c-16.072,17.6-3.589,30.385,7.7,34.083" transform="translate(9.395 36.03) rotate(16)" fill="none" stroke="#e8e9eb" stroke-width="1"/>
    </g>
  </g>
</svg>
