<svg width="195" height="102" viewBox="0 0 195 102" fill="none" xmlns="http://www.w3.org/2000/svg">
<rect width="195" height="102" rx="7" fill="#78E9C2"/>
<mask id="mask0" mask-type="alpha" maskUnits="userSpaceOnUse" x="11" y="28" width="24" height="43">
<path fill-rule="evenodd" clip-rule="evenodd" d="M11.0544 28.1895H34.3863V70.1998H11.0544V28.1895Z" fill="white"/>
</mask>
<g mask="url(#mask0)">
<path fill-rule="evenodd" clip-rule="evenodd" d="M34.1797 69.6164C33.1877 69.9659 30.9127 70.1998 29.4536 70.1998C24.9022 70.1998 21.5767 68.6822 19.6512 66.1155C18.192 64.1899 17.5502 61.681 17.5502 57.6538V47.7358H11.0544V41.3174H17.5502V28.1895H25.1361V41.3174H34.3865V47.7358H25.1361V58.5296C25.1361 60.2804 25.4278 61.3309 26.0696 62.089C26.8277 62.964 28.0529 63.4896 29.9207 63.4896C31.029 63.4896 32.4874 63.3142 33.013 63.1972L34.1797 69.6164Z" fill="#1D1D1B"/>
</g>
<path fill-rule="evenodd" clip-rule="evenodd" d="M131.409 83.6199L139.227 66.7571L126.566 41.3179H134.909L143.195 58.2969L150.839 41.3179H158.833L139.344 83.6199H131.409Z" fill="#1D1D1B"/>
<path fill-rule="evenodd" clip-rule="evenodd" d="M49.5738 63.4399C45.1707 63.4399 41.6008 59.8707 41.6008 55.4669C41.6008 51.0638 45.1707 47.494 49.5738 47.494C53.9769 47.494 57.5468 51.0638 57.5468 55.4669C57.5468 59.8707 53.9769 63.4399 49.5738 63.4399V63.4399ZM57.1769 41.3175V43.5932C54.9597 41.7846 52.1006 40.7334 48.8914 40.7334C41.1899 40.7334 35.0046 47.1526 35.0046 55.4959C35.0046 59.347 36.4046 62.8479 38.6225 65.4153C41.1314 68.3328 45.0995 70.1999 49.3 70.1999C52.1591 70.1999 54.8434 69.3241 57.1769 67.3408V69.6165H64.4704V41.3175H57.1769Z" fill="#1D1D1B"/>
<path fill-rule="evenodd" clip-rule="evenodd" d="M82.7992 63.4396C78.3961 63.4396 74.8262 59.8705 74.8262 55.4667C74.8262 51.0636 78.3961 47.4937 82.7992 47.4937C87.2023 47.4937 90.7722 51.0636 90.7722 55.4667C90.7722 59.8705 87.2023 63.4396 82.7992 63.4396M83.4816 40.7333C80.2724 40.7333 77.4133 41.7845 75.1961 43.5931V28.1895H67.9026V69.6164H75.1961V67.3407C77.5296 69.324 80.2139 70.1998 83.073 70.1998C87.2735 70.1998 91.2416 68.3327 93.7505 65.4152C95.9684 62.8478 97.3691 59.3469 97.3691 55.4958C97.3691 47.1525 91.1831 40.7333 83.4816 40.7333" fill="#1D1D1B"/>
<path fill-rule="evenodd" clip-rule="evenodd" d="M114.14 63.4396C109.737 63.4396 106.167 59.8705 106.167 55.4667C106.167 51.0636 109.737 47.4937 114.14 47.4937C118.543 47.4937 122.113 51.0636 122.113 55.4667C122.113 59.8705 118.543 63.4396 114.14 63.4396M114.822 40.7333C111.613 40.7333 108.755 41.7845 106.537 43.5931V28.1895H99.2439V69.6164H106.537V67.3407C108.871 69.324 111.555 70.1998 114.414 70.1998C118.615 70.1998 122.583 68.3327 125.091 65.4152C127.309 62.8478 128.71 59.3469 128.71 55.4958C128.71 47.1525 122.524 40.7333 114.822 40.7333" fill="#1D1D1B"/>
<path fill-rule="evenodd" clip-rule="evenodd" d="M176.747 29.2026L172.892 35.8808H180.607C180.35 33.1247 178.884 30.7244 176.747 29.2026M177.082 31.1277C178.049 32.1044 178.747 33.3094 179.11 34.6279H175.062L177.082 31.1277" fill="#1D1D1B"/>
<path fill-rule="evenodd" clip-rule="evenodd" d="M167.529 45.1703C168.704 45.7091 170.007 46.0182 171.385 46.0182C172.762 46.0182 174.065 45.7091 175.24 45.1703L171.384 38.4922L167.529 45.1703Z" fill="#1D1D1B"/>
<path fill-rule="evenodd" clip-rule="evenodd" d="M172.892 37.6213L176.747 44.2995C178.884 42.7777 180.35 40.3774 180.607 37.6213H172.892Z" fill="#1D1D1B"/>
<path fill-rule="evenodd" clip-rule="evenodd" d="M175.24 28.3323C174.065 27.7935 172.761 27.4844 171.385 27.4844C170.006 27.4844 168.704 27.7935 167.529 28.3323L171.384 35.0104L175.24 28.3323Z" fill="#1D1D1B"/>
<path fill-rule="evenodd" clip-rule="evenodd" d="M169.751 37.5344H162.035C162.292 40.2905 163.758 42.6908 165.895 44.2126L169.751 37.5344Z" fill="#1D1D1B"/>
<path fill-rule="evenodd" clip-rule="evenodd" d="M169.751 35.7939L165.895 29.1157C163.758 30.6368 162.292 33.0378 162.035 35.7939H169.751Z" fill="#1D1D1B"/>
</svg>
