<?xml version="1.0" encoding="utf-8"?>
<!-- Generator: Adobe Illustrator 25.4.1, SVG Export Plug-In . SVG Version: 6.00 Build 0)  -->
<svg version="1.1" id="Layer_1" xmlns="http://www.w3.org/2000/svg" xmlns:xlink="http://www.w3.org/1999/xlink" x="0px" y="0px"
	 viewBox="0 0 595.28 300.77" style="enable-background:new 0 0 595.28 300.77;" xml:space="preserve">
<path d="M111.82,128.45h-9.01v9.23h9.01V128.45z M168.6,195.07h8.89v-9.23h-8.89V195.07z M277.95,119.39h-9v9.23h9V119.39z
	 M182.36,195.07h8.89v-9.23h-8.89V195.07z M125.47,128.45h-8.89v9.23h8.89V128.45z M264.19,119.39h-8.89v9.23h8.89V119.39z
	 M441.73,105.42h14.22v34.33h7.38v-34.33h14.22v-6.93h-35.82V105.42z M508.89,98.52v15.27h-19.41V98.52h-7.38v41.23h7.38v-19.03
	h19.41v19.03h7.41V98.52H508.89z M437.44,138.76c-5.34-9.64-16.55-15.47-27.26-14.19c-1.44,0.17-2.89,0.48-4.31,0.92
	c-0.91,0.28-1.73,0.61-2.49,1c-0.07,0.03-0.13,0.07-0.2,0.11c8.1-9.15,17.04-18.81,27.47-28.07l0.61-0.54l-3.74,0
	c-1.98,0-4.07,0.01-5.93-0.02c-0.12,0-0.17,0-0.22,0c-0.05,0-0.09,0.01-0.2,0L421.04,98c-0.1,0.05-0.7,0.61-0.72,0.63
	c-7.18,6.81-14.44,14.29-22.2,22.89c-4.71,5.22-8.24,10.37-10.8,15.74c-2.95,6.2-4.04,11.53-3.43,16.75
	c0.64,5.4,2.59,10.06,5.82,13.84c5.79,6.8,13.29,10.23,22.34,10.23c0.99,0,1.99-0.04,3.02-0.12c6.09-0.49,11.64-2.84,16.49-7
	c8.86-7.59,11.59-20.64,6.5-31.02C437.86,139.55,437.66,139.15,437.44,138.76z M429.87,159.23c-2.43,4.97-6.97,8.67-12.45,10.14
	c-9.52,2.55-19.09-1.69-23.28-10.32c-1.2-2.47-1.78-5.11-1.78-8.06c0-9.05,6.18-16.55,15.37-18.66c1.45-0.33,2.92-0.49,4.37-0.49
	c7.76,0,15.12,4.58,18.16,11.79C432.39,148.68,432.25,154.37,429.87,159.23z M195.5,163.35L195.5,163.35
	c-0.03-1.69-0.14-10.45-0.34-25.98l0-0.3h-8.33l0,0.31c0.19,16.12,0.32,25.64,0.33,26.11c-0.02,4.47-2.82,7.25-7.3,7.25h-20.59
	c-2.13,0-4.07-0.96-5.93-2.92c-2.16-2.27-3.27-5.28-3.38-9.19l-0.45-21.56h-8.33l0.01,0.31c0.33,15.47,0.45,24.86,0.45,27.4
	c0,4.01-1.36,5.96-4.17,5.96h-32.33c-4.04,0-7.7-1.44-10.87-4.28c-4.8-4.35-7.4-11.47-7.73-21.15l-0.35-6.89h-7.21l0.35,6.92
	c0.34,9.3,2.38,16.91,6.09,22.64c4.4,7,11.04,10.55,19.73,10.55h34.23c5.11,0,8.41-2.5,9.82-7.45c2.4,4.94,6.06,7.45,10.88,7.45
	h19.91c9.72,0,15.52-5.55,15.52-14.85V163.35z M372.14,137.37l0-0.31h-8.34l0,0.31c0.23,16.46,0.34,25.49,0.34,27.63
	c0,5.04-3.83,7.3-7.64,7.3c-3.97,0-7.14-0.99-9.42-2.95c-2.49-2.06-3.81-5.14-3.92-9.16c-0.11-8.83-0.11-15.3-0.11-19.57v-0.31
	h-8.34l0,0.31c0.22,13.86,0.34,22.06,0.34,24.38c0,4.5-2.8,7.3-7.3,7.3c-8.45,0-12.67-3.96-12.89-12.11v-19.88h-8.34l0.01,0.31
	c0.11,5.14,0.11,9.48,0.11,12.97v17.14h-26.2c-2.07,0-4.12-1.01-5.93-2.92c-2.16-2.27-3.27-5.28-3.38-9.19l0-0.21
	c-0.11-6.86-0.22-13.95-0.22-21.04v-0.31h-8.34l0.01,0.31c0.31,17.43,0.31,24.7,0.21,25.83l-0.1,0.01c0,2.49-1.05,4.38-3.21,5.78
	c-1.76,1.1-3.6,1.63-5.65,1.63c-0.91,0-3.02,0-6.38,0.11h-12.19c-1.98,0-3.93-0.92-5.93-2.82c-2.16-2.16-3.27-4.84-3.38-8.17
	l-0.11-22.57h-8.33l0.11,31.85c0,7.38-2.23,13.64-6.63,18.59c-4.68,5.13-10.46,7.62-17.67,7.62h-0.47l0.19,0.43
	c1.56,3.48,2.63,5.7,3.37,6.96l0.1,0.17l0.19-0.02c8.25-0.68,15.09-3.91,20.34-9.61c5.16-5.6,8.14-12.64,8.85-20.91
	c2.59,4.14,6,6.24,10.17,6.24l19.93,0c6.31-0.34,11.69-3.66,13.94-8.53c0.59,1.46,1.44,2.83,2.58,4.17
	c2.46,2.93,5.32,4.36,8.74,4.36l33.53,0v-4.33c1.27,1.78,2.7,3.08,4.36,3.96c2.16,1.14,5.18,1.71,8.98,1.71
	c7.15,0,11.87-2.82,14.03-8.38c1.64,3.09,3.59,5.27,5.95,6.66c2.23,1.29,5.29,1.94,9.1,1.94c8.94,0,15.18-6.2,15.18-15.07
	c0-0.2-0.01-0.98-0.02-2.33C372.3,158.85,372.22,150.44,372.14,137.37z"/>
</svg>
