<?xml version="1.0" encoding="UTF-8" standalone="no" ?>
<!DOCTYPE svg PUBLIC "-//W3C//DTD SVG 1.1//EN" "http://www.w3.org/Graphics/SVG/1.1/DTD/svg11.dtd">
<svg xmlns="http://www.w3.org/2000/svg" xmlns:xlink="http://www.w3.org/1999/xlink" version="1.1" width="492" height="59" viewBox="0 0 492 59" xml:space="preserve">
<desc>Created with Fabric.js 3.6.3</desc>
<defs>
</defs>
<g transform="matrix(1 0 0 1 241.9 29.44)" id="Layer_1"  >
<path style="stroke: none; stroke-width: 1; stroke-dasharray: none; stroke-linecap: butt; stroke-dashoffset: 0; stroke-linejoin: miter; stroke-miterlimit: 4; fill: rgb(0,0,0); fill-rule: nonzero; opacity: 1;"  transform=" translate(-297.63, -150.39)" d="M 229.87 147.35 h 13.28 v 31.68 h 6.11 v -31.68 h 13.3 v -5.81 h -32.69 V 147.35 z M 219.04 150.77 c -3.27 -1.6 -6.8 -2.33 -9.85 -2.89 c -1.69 -0.31 -3.38 -0.6 -5.07 -0.89 l -0.18 -0.03 c -2.22 -0.38 -4.51 -0.78 -6.76 -1.2 c -2.45 -0.47 -4.45 -1.2 -6.13 -2.23 c -1.86 -1.15 -2.89 -2.54 -3.15 -4.26 c -0.55 -3.64 0.65 -6.51 3.56 -8.52 c 2.2 -1.52 4.88 -2.29 8.41 -2.43 c 6.2 -0.24 12.02 1.34 17.34 4.68 c 0.12 0.08 0.25 0.14 0.38 0.21 l 0.74 0.39 l 3.94 -4.87 l -0.9 -0.65 c -0.14 -0.1 -0.26 -0.19 -0.38 -0.27 c -4.47 -2.88 -9.4 -4.74 -14.65 -5.54 c -5.51 -0.84 -10.36 -0.45 -14.81 1.19 c -6.78 2.49 -10.4 7.21 -10.77 14.02 c -0.28 5.17 1.83 9.03 6.27 11.48 c 3.54 1.96 7.31 2.77 11.19 3.49 c 1.66 0.31 3.33 0.61 4.99 0.9 c 2.42 0.43 4.93 0.87 7.4 1.37 c 2.36 0.47 4.3 1.23 5.93 2.32 c 2.41 1.61 3.36 3.78 2.91 6.64 c -0.42 2.66 -1.93 4.76 -4.6 6.42 c -3.95 2.44 -8.67 3.23 -14.43 2.4 c -4.81 -0.69 -9.3 -2.67 -13.74 -6.03 c -0.43 -0.32 -0.84 -0.66 -1.27 -1 l -1.21 -0.96 l -3.75 4.17 l -0.35 0.54 l 0.43 0.63 l 0.12 0.11 c 6.66 5.5 13.57 8.52 21.11 9.23 c 1 0.09 2 0.14 2.97 0.14 c 4.24 0 8.24 -0.89 11.9 -2.64 c 3.89 -1.87 6.63 -4.42 8.37 -7.81 c 1.75 -3.4 2.11 -7.1 1.01 -10.41 C 224.91 155.16 222.44 152.43 219.04 150.77 z M 81.23 140.42 c -2.21 -0.5 -4.16 -0.61 -5.96 -0.33 c -1.07 0.16 -1.92 0.33 -2.69 0.54 c 4.55 -5.08 10.56 -11.55 17.52 -17.74 l 1.61 -1.43 l -4.52 0 c -1.29 0 -2.62 0 -3.84 -0.01 c -0.09 0 -0.14 0 -0.2 0 l -0.33 0.03 c -0.19 0.05 -0.27 0.11 -0.78 0.59 c -5.04 4.78 -10.13 10.03 -15.58 16.06 c -3.34 3.69 -5.84 7.35 -7.66 11.17 c -2.12 4.45 -2.9 8.28 -2.45 12.06 c 0.46 3.9 1.88 7.27 4.21 10.01 c 4.17 4.9 9.58 7.38 16.1 7.38 c 0.71 0 1.44 -0.03 2.17 -0.09 c 4.39 -0.35 8.4 -2.05 11.89 -5.04 c 6.41 -5.49 8.38 -14.93 4.7 -22.44 C 92.65 145.53 87.87 141.91 81.23 140.42 z M 88.61 164.66 c -1.63 3.32 -4.66 5.8 -8.33 6.78 c -6.38 1.72 -12.8 -1.13 -15.6 -6.91 c -0.8 -1.64 -1.19 -3.4 -1.19 -5.38 c 0 -6.05 4.14 -11.07 10.29 -12.48 c 0.98 -0.22 1.96 -0.33 2.93 -0.33 c 5.2 0 10.12 3.07 12.16 7.89 C 90.29 157.62 90.19 161.41 88.61 164.66 z M 103.06 147.5 h 13.28 v 31.68 h 6.11 V 147.5 h 13.3 v -5.81 h -32.69 V 147.5 z M 165.33 155.84 h -17.67 v -14.15 h -6.09 v 37.49 h 6.09 v -17.5 h 17.67 v 17.5 h 6.11 v -37.49 h -6.11 V 155.84 z M 364.9 147.35 h 13.28 v 31.68 h 6.11 v -31.68 h 13.3 v -5.81 H 364.9 V 147.35 z M 475.93 141.54 c -10.64 0 -18.97 8.23 -18.97 18.75 c 0 10.51 8.33 18.75 18.97 18.75 c 10.65 0 19 -8.23 19 -18.75 C 494.93 149.77 486.59 141.54 475.93 141.54 z M 475.93 173.3 c -7.14 0 -12.74 -5.71 -12.74 -13.01 c 0 -7.28 5.59 -12.99 12.74 -12.99 s 12.74 5.7 12.74 12.99 C 488.67 167.58 483.07 173.3 475.93 173.3 z M 535.22 141.56 l -14.96 18.91 l -14.88 -18.81 l -0.08 -0.09 h -3.81 v 37.47 h 6.11 v -26.27 l 12.66 16.21 l 12.66 -16.21 v 26.27 h 6.11 v -37.47 H 535.22 z M 433.67 147.28 c 5.7 0 10.64 3.7 12.3 9.19 l 0.24 0.79 l 5.84 -1.78 l -0.24 -0.78 c -2.43 -7.88 -9.72 -13.18 -18.14 -13.18 c -10.47 0 -19 8.42 -19 18.77 c 0 10.34 8.51 18.75 18.97 18.75 c 8.53 0 15.83 -5.29 18.16 -13.16 l 0.23 -0.77 l -5.83 -1.81 l -0.24 0.79 c -1.69 5.6 -6.51 9.22 -12.3 9.22 c -7.14 0 -12.74 -5.71 -12.74 -13.01 C 420.94 152.99 426.53 147.28 433.67 147.28 z M 296.02 152.41 c 0 -6.08 -4.81 -10.85 -10.95 -10.85 h -16.77 v 37.47 h 6.09 v -15.85 h 8.02 l 9.23 15.85 h 6.95 l -9.68 -16.6 C 293.3 160.85 296.02 157.04 296.02 152.41 z M 284.63 157.44 h -10.24 v -10.07 h 10.21 c 2.97 0 5.38 2.26 5.38 5.03 C 289.99 155.52 287.21 157.44 284.63 157.44 z M 304.56 179.03 h 25.37 v -5.81 h -19.25 v -11.69 h 14.73 v -5.81 h -14.73 v -8.34 h 19.25 v -5.84 h -25.37 V 179.03 z M 335.74 179.03 h 25.37 v -5.81 h -19.25 v -11.69 h 14.73 v -5.81 h -14.73 v -8.34 h 19.25 v -5.84 h -25.37 V 179.03 z M 405.7 172.77 c -1.54 0 -2.85 1.31 -2.85 2.85 c 0 1.57 1.28 2.85 2.85 2.85 s 2.85 -1.28 2.85 -2.85 C 408.55 174.04 407.27 172.77 405.7 172.77 z" stroke-linecap="round" />
</g>
</svg>