<?xml version="1.0" encoding="UTF-8"?>
<svg width="24px" height="24px" viewBox="0 0 24 24" version="1.1" xmlns="http://www.w3.org/2000/svg" xmlns:xlink="http://www.w3.org/1999/xlink">
    <title>icons/help</title>
    <g id="icons/help" stroke="none" stroke-width="1" fill="none" fill-rule="evenodd">
        <path d="M12,1 C18.0751322,1 23,5.92486775 23,12 C23,18.0751322 18.0751322,23 12,23 C5.92486775,23 1,18.0751322 1,12 C1,5.92486775 5.92486775,1 12,1 Z M12,3 C7.02943725,3 3,7.02943725 3,12 C3,16.9705627 7.02943725,21 12,21 C16.9705627,21 21,16.9705627 21,12 C21,7.02943725 16.9705627,3 12,3 Z M12.01,16 C12.5622847,16 13.01,16.4477153 13.01,17 C13.01,17.5128358 12.6239598,17.9355072 12.1266211,17.9932723 L12,18 C11.4477153,18 11,17.5522847 11,17 C11,16.4871642 11.3860402,16.0644928 11.8833789,16.0067277 L12.01,16 Z M12.596234,6.05310594 C14.5186231,6.38284678 15.9229036,8.0510253 15.9200079,10 C15.9200079,11.2797252 15.1618143,12.2906429 13.9747015,13.0820506 C13.3257819,13.5146631 12.6882584,13.7980066 12.2362274,13.9486834 C11.7122841,14.123331 11.1459642,13.8401708 10.9713166,13.3162274 C10.8091438,12.8297086 11.0417135,12.3066508 11.4952635,12.0945779 L11.7903943,11.9806521 C11.8462119,11.9579447 11.9108082,11.9306012 11.9826124,11.8986883 C12.2857157,11.7639759 12.5884455,11.6025202 12.8653019,11.4179494 C13.5531912,10.9593571 13.9200034,10.4702748 13.9200045,9.9985125 C13.9214551,9.02327937 13.2193138,8.18918878 12.2581187,8.02431827 C11.3503233,7.86860722 10.4614651,8.35270643 10.0928767,9.1819783 L10.0333344,9.33184353 C9.85006232,9.85283276 9.2791457,10.1266066 8.75815647,9.94333444 C8.23716724,9.76006232 7.96339344,9.1891457 8.14666556,8.66815647 C8.79391472,6.82821572 10.6738437,5.7233649 12.596234,6.05310594 Z" id="Combined-Shape" fill="#000000" fill-rule="nonzero"></path>
    </g>
</svg>