<?xml version="1.0" encoding="UTF-8"?>
<svg width="24px" height="24px" viewBox="0 0 24 24" version="1.1" xmlns="http://www.w3.org/2000/svg" xmlns:xlink="http://www.w3.org/1999/xlink">
    <title>55320429-E8E1-4C22-AEE3-EB264AD537E6</title>
    <g id="Artboards" stroke="none" stroke-width="1" fill="none" fill-rule="evenodd">
        <g id="Dsk-PDP" transform="translate(-196.000000, -631.000000)">
            <rect fill="#FFFFFF" x="0" y="0" width="1440" height="3493"></rect>
            <g id="icons/video" transform="translate(196.000000, 631.000000)" fill="#000000" fill-rule="nonzero">
                <path d="M14,4.5 C15.3807119,4.5 16.5,5.61928813 16.5,7 L16.5,7 L16.5,11.028 L22.7093809,6.59313326 C23.016677,6.37363607 23.4349876,6.56193212 23.4931785,6.91556724 L23.5,7 L23.5,17 C23.5,17.4066863 23.0403151,17.6432483 22.7093809,17.4068667 L22.7093809,17.4068667 L16.5,12.971 L16.5,17 C16.5,18.3254834 15.4684641,19.4100387 14.1643757,19.4946823 L14,19.5 L3,19.5 C1.61928813,19.5 0.5,18.3807119 0.5,17 L0.5,17 L0.5,7 C0.5,5.61928813 1.61928813,4.5 3,4.5 L3,4.5 Z M14,5.5 L3,5.5 C2.17157288,5.5 1.5,6.17157288 1.5,7 L1.5,7 L1.5,17 C1.5,17.8284271 2.17157288,18.5 3,18.5 L3,18.5 L14,18.5 C14.8284271,18.5 15.5,17.8284271 15.5,17 L15.5,17 L15.5,7 C15.5,6.17157288 14.8284271,5.5 14,5.5 L14,5.5 Z M22.5,7.97 L16.859,11.999 L22.5,16.029 L22.5,7.97 Z" id="Combined-Shape"></path>
            </g>
        </g>
    </g>
</svg>