<?xml version="1.0" encoding="UTF-8"?>
<svg width="24px" height="24px" viewBox="0 0 24 24" version="1.1" xmlns="http://www.w3.org/2000/svg" xmlns:xlink="http://www.w3.org/1999/xlink">
    <title>icons/return</title>
    <g id="icons/return" stroke="none" stroke-width="1" fill="none" fill-rule="evenodd">
        <g id="refresh-ccw" transform="translate(1.000000, 3.000000)" fill="#000000">
            <path d="M21,10.5 L21.0165395,10.5002736 C21.036925,10.5009481 21.0572699,10.5028621 21.0774516,10.506012 L21,10.5 C21.0382629,10.5 21.0755219,10.5042979 21.1113206,10.5124374 C21.1274193,10.5161411 21.1438391,10.5207449 21.1600289,10.5261974 C21.1712026,10.5299287 21.1822421,10.5341018 21.1930874,10.5386462 C21.2095781,10.5455355 21.2259478,10.5534355 21.2419273,10.5622719 C21.2528888,10.5683897 21.263688,10.5749173 21.2742105,10.5818313 C21.285645,10.5892795 21.2966523,10.5971711 21.3073895,10.60556 C21.3214774,10.6165942 21.3353351,10.6286659 21.3484912,10.6414555 C21.353773,10.6465794 21.3591239,10.6520217 21.3643765,10.6576117 L21.3721349,10.6660537 C21.3824061,10.6774919 21.3921576,10.6894062 21.4013523,10.7017596 L21.3643765,10.6576117 C21.388889,10.6836983 21.4100584,10.7117206 21.4279014,10.7411502 C21.4330394,10.7496888 21.4378694,10.758217 21.4424516,10.7668964 C21.4513804,10.7837493 21.4593215,10.801191 21.4662071,10.8189381 C21.4697347,10.8280292 21.4728862,10.8368912 21.475791,10.8458643 C21.4818605,10.8646866 21.4868172,10.8838812 21.4906176,10.9032498 C21.4910556,10.9053282 21.4915085,10.9077233 21.4919443,10.9101244 L21.4945921,10.9263572 C21.4978498,10.9483692 21.4996342,10.9705476 21.4999504,10.9927346 L21.5,11 L21.5,16.4545455 C21.5,16.7306878 21.2761424,16.9545455 21,16.9545455 C20.7545401,16.9545455 20.5503916,16.7776703 20.5080557,16.5444211 L20.5,16.4545455 L20.499,12.1559864 L17.1354602,15.3171011 C15.0281329,17.4254848 11.9864728,18.3052882 9.07900947,17.6474379 C6.17154616,16.9895876 3.80489648,14.8860859 2.81046016,12.075889 C2.7183401,11.8155652 2.85469622,11.5298529 3.11502006,11.4377329 C3.37534391,11.3456128 3.66105615,11.4819689 3.75317621,11.7422928 C4.63307013,14.228802 6.72712141,16.0900156 9.29969366,16.6720926 C11.7803883,17.233381 14.3714926,16.529574 16.2353679,14.7960941 L16.4394299,14.5992598 L19.737,11.4999864 L15.5454545,11.5 C15.2999947,11.5 15.0958462,11.3231248 15.0535102,11.0898756 L15.0454545,11 C15.0454545,10.7545401 15.2223297,10.5503916 15.4555789,10.5080557 L15.5454545,10.5 L21,10.5 Z M12.9209905,0.716198492 C15.8284538,1.37404878 18.1951035,3.4775505 19.1895398,6.28774734 C19.2816599,6.54807119 19.1453038,6.83378342 18.8849799,6.92590348 C18.6246561,7.01802354 18.3389438,6.88166742 18.2468238,6.62134357 C17.3669299,4.13483433 15.2728786,2.27362076 12.7003063,1.69154381 C10.2196117,1.13025532 7.62850737,1.83406236 5.7646321,3.56754228 L5.56057011,3.76437653 L2.262,6.86298639 L6.45454545,6.86363636 C6.70000534,6.86363636 6.90415382,7.04051152 6.94648979,7.27376073 L6.95454545,7.36363636 C6.95454545,7.60909625 6.77767029,7.81324473 6.54442109,7.85558069 L6.45454545,7.86363636 L1,7.86363636 L0.975531606,7.8630378 C0.957800791,7.86217105 0.940112757,7.86036573 0.922548437,7.85762436 L1,7.86363636 C0.961737135,7.86363636 0.924478109,7.85933842 0.888679359,7.85119897 C0.872924279,7.847573 0.856841548,7.84308192 0.840977916,7.83777686 C0.826607629,7.83300064 0.81251906,7.82754464 0.798755477,7.82148621 C0.787418956,7.81652756 0.775757967,7.81087448 0.764290058,7.8047449 C0.749803761,7.79693103 0.736041515,7.78866562 0.722729715,7.77977845 C0.712407901,7.77295552 0.702397039,7.76572245 0.692610547,7.75807632 C0.679780944,7.74802224 0.667075617,7.73706035 0.654950716,7.72549528 C0.648118661,7.71897317 0.641803071,7.71260111 0.635623468,7.70602466 L0.623980421,7.69320566 C0.61693415,7.68517272 0.610141176,7.67691208 0.603613973,7.66843619 L0.635623468,7.70602466 C0.610841678,7.67965138 0.589476725,7.65129969 0.571511624,7.62151549 C0.566586845,7.61328672 0.561953094,7.60508318 0.557548418,7.59673997 C0.548619565,7.57988708 0.540678537,7.56244534 0.533792937,7.54469831 C0.530265335,7.53560715 0.527113756,7.52674512 0.52420896,7.51777203 C0.518158056,7.49900723 0.51321297,7.47987188 0.509417101,7.46056326 C0.508944439,7.45830821 0.508491481,7.45591309 0.508055669,7.453512 L0.505327499,7.43673377 C0.502158281,7.41515567 0.500404368,7.39341885 0.50006113,7.37167208 L0.5,7.36363636 L0.5,1.90909091 C0.5,1.63294853 0.723857625,1.40909091 1,1.40909091 C1.24545989,1.40909091 1.44960837,1.58596607 1.49194433,1.81921528 L1.5,1.90909091 L1.5,6.20698639 L4.86453984,3.04653522 C6.97186711,0.938151554 10.0135272,0.0583482082 12.9209905,0.716198492 Z" id="Combined-Shape"></path>
        </g>
    </g>
</svg>