<?xml version="1.0" encoding="UTF-8"?>
<svg width="21px" height="21px" viewBox="0 0 21 21" version="1.1" xmlns="http://www.w3.org/2000/svg" xmlns:xlink="http://www.w3.org/1999/xlink">
    <title>61B4C229-6F28-4F6B-9B22-3FB309297479</title>
    <defs>
        <rect id="path-1" x="0" y="50" width="1440" height="435"></rect>
        <filter x="-0.0%" y="-0.3%" width="100.1%" height="100.5%" filterUnits="objectBoundingBox" id="filter-2">
            <feOffset dx="0" dy="-1" in="SourceAlpha" result="shadowOffsetOuter1"></feOffset>
            <feColorMatrix values="0 0 0 0 0   0 0 0 0 0   0 0 0 0 0  0 0 0 0.147871377 0" type="matrix" in="shadowOffsetOuter1"></feColorMatrix>
        </filter>
    </defs>
    <g id="Dsk-Shopping" stroke="none" stroke-width="1" fill="none" fill-rule="evenodd">
        <g id="Dsk-Home" transform="translate(-585.000000, -8048.000000)">
            <rect fill="#FFFFFF" x="0" y="0" width="1440" height="8546"></rect>
            <g id="Footer" transform="translate(0.000000, 7912.000000)">
                <g id="Rectangle" fill-rule="nonzero">
                    <use fill="black" fill-opacity="1" filter="url(#filter-2)" xlink:href="#path-1"></use>
                    <use fill="#F6F6F6" xlink:href="#path-1"></use>
                </g>
                <g id="Group" transform="translate(479.000000, 114.000000)">
                    <g id="elements/social-circle" transform="translate(84.000000, 0.000000)">
                        <circle id="Oval" fill="#FFFFFF" cx="32" cy="32" r="32"></circle>
                        <g id="icons/facebook" transform="translate(22.653061, 22.653061)" fill="#000000">
                            <g id="instagram" transform="translate(1.666667, 1.666667)">
                                <path d="M12.5,-0.416666667 C15.0313051,-0.416666667 17.0833333,1.63536156 17.0833333,4.16666667 L17.0833333,4.16666667 L17.0833333,12.5 C17.0833333,15.0313051 15.0313051,17.0833333 12.5,17.0833333 L12.5,17.0833333 L4.16666667,17.0833333 C1.63536156,17.0833333 -0.416666667,15.0313051 -0.416666667,12.5 L-0.416666667,12.5 L-0.416666667,4.16666667 C-0.416666667,1.63536156 1.63536156,-0.416666667 4.16666667,-0.416666667 L4.16666667,-0.416666667 Z M12.5,0.416666667 L4.16666667,0.416666667 C2.09559885,0.416666667 0.416666667,2.09559885 0.416666667,4.16666667 L0.416666667,4.16666667 L0.416666667,12.5 C0.416666667,14.5710678 2.09559885,16.25 4.16666667,16.25 L4.16666667,16.25 L12.5,16.25 C14.5710678,16.25 16.25,14.5710678 16.25,12.5 L16.25,12.5 L16.25,4.16666667 C16.25,2.09559885 14.5710678,0.416666667 12.5,0.416666667 L12.5,0.416666667 Z M5.01975722,6.61131535 C5.74709721,5.16625349 7.31916558,4.35053793 8.91945145,4.58784022 C10.5534922,4.83014792 11.8365187,6.1131745 12.0788264,7.74721522 C12.3161287,9.34750109 11.5004132,10.9195695 10.0553513,11.6469094 C8.61028946,12.3742494 6.86168448,12.0928752 5.71773797,10.9489287 C4.57379146,9.80498218 4.29241723,8.05637721 5.01975722,6.61131535 Z M8.79721522,5.41215978 C7.55254843,5.22759134 6.32982859,5.86203677 5.76411971,6.98597377 C5.19841082,8.10991078 5.41725745,9.46993687 6.30699362,10.359673 C7.1967298,11.2494092 8.55675589,11.4682558 9.68069289,10.902547 C10.8046299,10.3368381 11.4390753,9.11411824 11.2545069,7.86945145 C11.0660453,6.59853089 10.0681358,5.60062133 8.79721522,5.41215978 Z M13.0049505,3.33333333 C13.2783588,3.33333333 13.5,3.55719096 13.5,3.83333333 C13.5,4.07879322 13.3248761,4.2829417 13.0939363,4.32527766 L12.9950495,4.33333333 C12.7216412,4.33333333 12.5,4.10947571 12.5,3.83333333 C12.5,3.58787344 12.6751239,3.38372496 12.9060637,3.341389 L13.0049505,3.33333333 Z" id="Combined-Shape"></path>
                            </g>
                        </g>
                    </g>
                </g>
            </g>
        </g>
    </g>
</svg>