<?xml version="1.0" encoding="UTF-8"?>
<svg width="21px" height="21px" viewBox="0 0 21 21" version="1.1" xmlns="http://www.w3.org/2000/svg" xmlns:xlink="http://www.w3.org/1999/xlink">
    <title>354EFB3F-83CF-498C-AA5E-CBB8475F4E79</title>
    <defs>
        <rect id="path-1" x="0" y="50" width="1440" height="435"></rect>
        <filter x="-0.0%" y="-0.3%" width="100.1%" height="100.5%" filterUnits="objectBoundingBox" id="filter-2">
            <feOffset dx="0" dy="-1" in="SourceAlpha" result="shadowOffsetOuter1"></feOffset>
            <feColorMatrix values="0 0 0 0 0   0 0 0 0 0   0 0 0 0 0  0 0 0 0.147871377 0" type="matrix" in="shadowOffsetOuter1"></feColorMatrix>
        </filter>
    </defs>
    <g id="Dsk-Shopping" stroke="none" stroke-width="1" fill="none" fill-rule="evenodd">
        <g id="Dsk-Home" transform="translate(-835.000000, -8048.000000)">
            <rect fill="#FFFFFF" x="0" y="0" width="1440" height="8546"></rect>
            <g id="Footer" transform="translate(0.000000, 7912.000000)">
                <g id="Rectangle" fill-rule="nonzero">
                    <use fill="black" fill-opacity="1" filter="url(#filter-2)" xlink:href="#path-1"></use>
                    <use fill="#F6F6F6" xlink:href="#path-1"></use>
                </g>
                <g id="Group" transform="translate(479.000000, 114.000000)">
                    <g id="elements/social-circle" transform="translate(334.000000, 0.000000)">
                        <circle id="Oval" fill="#FFFFFF" cx="32" cy="32" r="32"></circle>
                        <g id="icons/facebook" transform="translate(22.653061, 22.653061)" fill="#000000" fill-rule="nonzero">
                            <g id="pinterest" transform="translate(3.333333, 1.666667)">
                                <path d="M6.43622668,0.00142175964 L5.3728112,0.134357619 C4.70456219,0.260011279 4.05623215,0.47519317 3.44545541,0.774048975 C2.05148513,1.50740942 0.956013687,2.70276125 0.346664834,4.15527471 C0.264561591,4.4276433 0.200735244,4.70515226 0.155614157,4.98601674 C-0.310018323,6.64014722 0.291048811,8.41029314 1.66759893,9.43893968 C1.87528443,9.56352243 2.35712338,9.79619588 2.49834096,9.48877278 C2.56338101,9.30029229 2.60800233,9.10531494 2.63127682,8.90719624 C2.71138103,8.74084793 2.75657351,8.55993522 2.76421268,8.3755242 C2.71437958,8.10137076 2.42359131,7.93523663 2.29900856,7.71091629 C2.09417882,7.2587773 1.96502685,6.77601023 1.91683581,6.28196289 L1.91683581,6.04100772 C1.97852034,4.00142037 3.40890162,2.26040325 5.39772775,1.8041234 C6.01985615,1.63599024 6.66840038,1.58801339 7.3085201,1.66290583 L8.23064661,1.82075823 C9.28456668,2.09591119 10.1560034,2.8358399 10.5983614,3.83121678 C10.8882929,4.68416239 10.9456938,5.5989353 10.7644955,6.48136668 C10.673111,6.86353943 10.6897458,7.19580769 10.5734448,7.54478217 C10.1497207,8.8324466 9.52666415,10.0370797 8.12269869,10.3527845 C7.35906714,10.5523311 6.5660212,10.1540232 6.27009256,9.42230485 C6.16478622,9.19991216 6.12723291,8.9514606 6.16207325,8.70786385 C6.40302842,7.6610832 6.76021322,6.73060357 6.99281528,5.68389431 C7.27939129,4.90933945 6.88386784,4.04911165 6.10931299,3.76246424 C6.06933228,3.74768565 6.02870902,3.73454914 5.98758601,3.72326886 C5.02390811,3.49066681 4.28447917,4.38787677 4.02696056,4.96945331 C3.78621957,5.58522763 3.72853312,6.25740331 3.86082643,6.90516221 C4.00104449,7.18624087 4.10171021,7.48538226 4.15989642,7.79409045 C3.97712746,8.62483248 3.76116023,9.45564591 3.53683989,10.2863879 C3.31251955,11.11713 3.17130198,11.9479434 2.93869992,12.7786854 C2.83068061,13.1442234 2.83903372,13.5346778 2.74764924,13.9168506 L2.74764924,14.4734392 C2.69010558,14.9137981 2.70981036,15.3607967 2.80583545,15.7943733 C2.85566855,16.0186936 2.80583545,16.292847 2.88893821,16.4589812 C2.88529711,16.5326599 2.90571583,16.6055533 2.94712443,16.6666667 C3.28774579,16.6666667 3.77786646,15.7611036 3.92743715,15.503585 C4.25106672,14.9888333 4.52907544,14.4468092 4.75817918,13.8835809 C4.98249952,13.3601906 5.01569779,12.7786854 5.19018503,12.2220254 C5.36602876,11.763461 5.49139684,11.2871194 5.56400466,10.8014252 C5.67180979,11.0372399 5.85229414,11.2323601 6.07911327,11.3580138 C6.87665704,11.9220273 7.87481829,12.1240727 8.82892937,11.9146023 C9.9890125,11.6893539 11.0312953,11.0592293 11.7698675,10.1367459 C12.271911,9.45364687 12.6591528,8.69315666 12.9163144,7.88533214 C13.057532,7.46996112 13.0824485,7.00468561 13.1904678,6.56439805 C13.3694529,5.48677513 13.2278784,4.38038039 12.7833785,3.3825761 C11.827911,1.21433654 9.75098449,-0.0484113393 6.43622668,0.00142175964 Z" id="Path"></path>
                            </g>
                        </g>
                    </g>
                </g>
            </g>
        </g>
    </g>
</svg>