<?xml version="1.0" encoding="UTF-8"?>
<svg width="21px" height="21px" viewBox="0 0 21 21" version="1.1" xmlns="http://www.w3.org/2000/svg" xmlns:xlink="http://www.w3.org/1999/xlink">
    <title>C538BCF9-5462-4D44-A22B-BFF4C0E88D88</title>
    <defs>
        <rect id="path-1" x="0" y="50" width="1440" height="435"></rect>
        <filter x="-0.0%" y="-0.3%" width="100.1%" height="100.5%" filterUnits="objectBoundingBox" id="filter-2">
            <feOffset dx="0" dy="-1" in="SourceAlpha" result="shadowOffsetOuter1"></feOffset>
            <feColorMatrix values="0 0 0 0 0   0 0 0 0 0   0 0 0 0 0  0 0 0 0.147871377 0" type="matrix" in="shadowOffsetOuter1"></feColorMatrix>
        </filter>
    </defs>
    <g id="Dsk-Shopping" stroke="none" stroke-width="1" fill="none" fill-rule="evenodd">
        <g id="Dsk-Home" transform="translate(-668.000000, -8048.000000)">
            <rect fill="#FFFFFF" x="0" y="0" width="1440" height="8546"></rect>
            <g id="Footer" transform="translate(0.000000, 7912.000000)">
                <g id="Rectangle" fill-rule="nonzero">
                    <use fill="black" fill-opacity="1" filter="url(#filter-2)" xlink:href="#path-1"></use>
                    <use fill="#F6F6F6" xlink:href="#path-1"></use>
                </g>
                <g id="Group" transform="translate(479.000000, 114.000000)">
                    <g id="elements/social-circle" transform="translate(167.000000, 0.000000)">
                        <circle id="Oval" fill="#FFFFFF" cx="32" cy="32" r="32"></circle>
                        <g id="icons/facebook" transform="translate(22.653061, 22.653061)" fill="#000000">
                            <g id="snapchat" transform="translate(0.833333, 1.666667)">
                                <path d="M17.4702741,12.5297678 C15.2083778,12.1428741 14.1964484,9.88094291 14.0774122,9.6130854 L14.0774122,9.58333508 C13.9583761,9.34522788 13.9285909,9.1666562 13.9881264,9.01786972 C14.1071625,8.75001221 14.6131273,8.57144053 14.9405203,8.48215469 C15.0298061,8.45240437 15.119092,8.42261917 15.1786275,8.39286885 C15.8036284,8.12501134 16.1310214,7.7976183 16.1310214,7.41072462 C16.1310214,7.11311679 15.8929142,6.81547407 15.5357708,6.69643791 C15.4167347,6.6369024 15.2679133,6.60715207 15.119092,6.60715207 C15.0298061,6.60715207 14.8809848,6.6369024 14.7321983,6.69643791 C14.4345905,6.81547407 14.1964833,6.90475991 14.0179116,6.90475991 C13.9583761,6.90475991 13.8988754,6.90475991 13.8393399,6.87500959 C13.8690902,6.78572375 13.8690902,6.69643791 13.8690902,6.57740175 L13.8690902,6.51786624 C13.9286257,5.29761481 14.0476619,3.77975555 13.630983,2.88689716 C12.4107316,0.208321998 9.88097779,9.91271941e-16 9.13694076,9.91271941e-16 L8.7797974,9.91271941e-16 C8.03576037,9.91271941e-16 5.50597169,0.208321998 4.31550546,2.88689716 C3.89882659,3.77975555 3.98811243,5.29761481 4.07739827,6.51786624 C4.10714859,6.6369024 4.10714859,6.75597343 4.10714859,6.87500959 C4.04761307,6.87500959 3.95832723,6.90475991 3.86904139,6.90475991 C3.63093419,6.90475991 3.39286188,6.84522439 3.09521916,6.69643791 C2.67854029,6.51786624 1.87496774,6.78572375 1.7856819,7.32143879 C1.72614638,7.61904662 1.84521742,8.0357255 2.73807581,8.39286885 C2.79761132,8.42261917 2.88689716,8.45240437 3.00593332,8.48215469 C3.30354116,8.57144053 3.80950587,8.75001221 3.92854203,9.01786972 C3.98807755,9.13690588 3.95829235,9.34526276 3.83925619,9.58333508 C3.77972067,9.67262092 2.73807581,12.0833386 0.386858799,12.4702322 C0.148821357,12.5297678 0,12.7380898 0,12.976197 C0,13.0654828 0.0297503205,13.1250183 0.0595355183,13.184519 C0.238107196,13.6606985 1.01192943,13.9583412 2.41071765,14.1964135 C2.44046797,14.2856993 2.47025317,14.464271 2.5,14.5535569 C2.52975381,14.672593 2.55953901,14.8214144 2.58928933,14.9702357 C2.61903965,15.1190571 2.767861,15.3571294 3.12500436,15.3571294 C3.24404052,15.3571294 3.39286188,15.3273791 3.54168323,15.2975939 C3.77979043,15.2380584 4.07739827,15.1785577 4.46429194,15.1785577 C4.70239914,15.1785577 4.91072114,15.208308 5.14882833,15.2678436 C5.56550721,15.3273791 5.95240088,15.5952366 6.36907976,15.8928444 C6.99408063,16.3392736 7.55954598,16.6666667 8.72026189,16.6666667 C8.75001221,16.6666667 8.7797974,16.6666667 8.80954773,16.6666667 C8.83929805,16.6666667 8.89883356,16.6666667 8.92858388,16.6666667 C9.94047843,16.6666667 10.8333368,16.3988092 11.6071591,15.8928444 C12.0238379,15.6249869 12.4107316,15.3273791 12.8274105,15.2678436 C13.0357325,15.2380932 13.2738397,15.208308 13.4821617,15.208308 C13.839305,15.208308 14.1369129,15.2380584 14.4047704,15.2975939 C14.5833421,15.3273442 14.7321634,15.3571294 14.8511996,15.3571294 C15.0893068,15.3571294 15.2976288,15.208308 15.3571643,14.9702357 C15.3869146,14.8214144 15.4166998,14.7023782 15.4464501,14.5535569 C15.4762004,14.4940213 15.5059856,14.3154497 15.535736,14.2261638 C16.9345591,14.0178418 17.6190606,13.6904488 17.8274174,13.2440196 C17.8571678,13.1844841 17.886953,13.0951982 17.886953,13.0356976 C17.886953,12.7976253 17.7083464,12.5595181 17.4702741,12.5297678 Z M15.3571643,13.6309481 C15.0000209,13.6606985 14.9404854,14.0178418 14.8511996,14.4047704 C14.8214492,14.4940562 14.7916641,14.6130924 14.7619137,14.7321634 C14.7023782,14.7321634 14.6130924,14.7321634 14.4643059,14.7024131 C14.1666981,14.6428776 13.839305,14.5833769 13.4226261,14.5833769 C13.184519,14.5833769 12.9464466,14.6131273 12.6785891,14.6429124 C12.1428741,14.7321983 11.6666946,15.0595913 11.2202654,15.3869495 C10.5654793,15.8630941 9.82144227,16.0714161 8.92858388,16.0714161 C8.89883356,16.0714161 8.86904837,16.0714161 8.80954773,16.0714161 C8.80149107,16.0714161 8.79402734,16.0714161 8.78722627,16.0714161 C8.78468022,16.0714161 8.78213418,16.0714161 8.7797974,16.0714161 C7.79765318,16.0714161 7.32147366,15.7738083 6.75597343,15.3868797 C6.30954424,15.0594867 5.86311504,14.7321285 5.29764969,14.6428427 C5.05954249,14.6130924 4.79168498,14.5833072 4.55361266,14.5833072 C4.10718346,14.5833072 3.75004011,14.6428427 3.51193291,14.7023433 C3.39289675,14.7320937 3.30361091,14.7618789 3.21432159,14.7618789 C3.18457476,14.6428427 3.15478956,14.5237717 3.12503924,14.4047355 C3.0357534,14.0178418 2.97621788,13.6606985 2.61907452,13.6011629 C1.30953726,13.4225913 0.863108068,13.1547338 0.714321588,13.0356976 C3.15478956,12.5297329 4.28575514,10.1488004 4.4345765,9.8214074 C4.61314818,9.43451372 4.6428985,9.07737036 4.52386234,8.77972765 C4.28575514,8.24401262 3.63100395,8.03569062 3.21432159,7.91661958 C3.12503924,7.91661958 3.06550372,7.88686926 3.00600308,7.85708406 C2.50000349,7.64879694 2.41071765,7.47022527 2.41071765,7.44047494 C2.41071765,7.35118911 2.61903965,7.23215295 2.79761132,7.23215295 C2.85714684,7.23215295 2.88689716,7.23215295 2.88689716,7.23215295 C3.24404052,7.41072462 3.60118387,7.50001046 3.89879171,7.50001046 C4.34522091,7.50001046 4.5833281,7.29168846 4.64282874,7.23215295 C4.70232938,7.17261743 4.73211458,7.11311679 4.73211458,7.02383095 C4.73211458,6.84525927 4.70236426,6.66668759 4.70236426,6.48811592 C4.61307842,5.32740001 4.52379258,3.89882659 4.88093594,3.12500436 C5.92261568,0.773822229 8.15476166,0.595250551 8.80951285,0.595250551 L9.10712069,0.595250551 L9.13687101,0.595250551 C9.7916222,0.595250551 12.0237682,0.773822229 13.0951982,3.06550372 C13.4225913,3.83932595 13.3333054,5.26789937 13.2737699,6.42861527 L13.2737699,6.48815079 C13.2737699,6.66672247 13.2440196,6.81554383 13.2440196,6.96433031 C13.2440196,7.05361615 13.2737699,7.14290199 13.3333054,7.2024375 C13.3928409,7.26197302 13.6011629,7.4405447 14.0475921,7.47029502 C14.3452,7.4405447 14.6428427,7.35125886 14.999986,7.2024375 C15.0595216,7.17268718 15.208308,7.17268718 15.3273791,7.23218782 C15.4762004,7.29172334 15.5357011,7.38100918 15.5357011,7.4107595 C15.5357011,7.47029502 15.4166649,7.6488667 14.9404505,7.82743838 C14.880915,7.8571887 14.7916292,7.88697389 14.7023433,7.91672421 C14.3154497,8.03576037 13.6606636,8.24411725 13.4225913,8.77983228 C13.2737699,9.07744012 13.3333054,9.43458347 13.5118771,9.82151203 C13.6309133,10.1191199 14.7321285,12.5596227 17.2023468,13.0655525 C17.0535952,13.184519 16.6369163,13.4226261 15.3571643,13.6309481 Z" id="Shape"></path>
                            </g>
                        </g>
                    </g>
                </g>
            </g>
        </g>
    </g>
</svg>