<?xml version="1.0" encoding="UTF-8"?>
<svg width="21px" height="21px" viewBox="0 0 21 21" version="1.1" xmlns="http://www.w3.org/2000/svg" xmlns:xlink="http://www.w3.org/1999/xlink">
    <title>AAE5D68F-95D4-46B9-9D62-21C0D6E1C436</title>
    <defs>
        <rect id="path-1" x="0" y="50" width="1440" height="435"></rect>
        <filter x="-0.0%" y="-0.3%" width="100.1%" height="100.5%" filterUnits="objectBoundingBox" id="filter-2">
            <feOffset dx="0" dy="-1" in="SourceAlpha" result="shadowOffsetOuter1"></feOffset>
            <feColorMatrix values="0 0 0 0 0   0 0 0 0 0   0 0 0 0 0  0 0 0 0.147871377 0" type="matrix" in="shadowOffsetOuter1"></feColorMatrix>
        </filter>
    </defs>
    <g id="Dsk-Shopping" stroke="none" stroke-width="1" fill="none" fill-rule="evenodd">
        <g id="Dsk-Home" transform="translate(-752.000000, -8048.000000)">
            <rect fill="#FFFFFF" x="0" y="0" width="1440" height="8546"></rect>
            <g id="Footer" transform="translate(0.000000, 7912.000000)">
                <g id="Rectangle" fill-rule="nonzero">
                    <use fill="black" fill-opacity="1" filter="url(#filter-2)" xlink:href="#path-1"></use>
                    <use fill="#F6F6F6" xlink:href="#path-1"></use>
                </g>
                <g id="Group" transform="translate(479.000000, 114.000000)">
                    <g id="elements/social-circle" transform="translate(251.000000, 0.000000)">
                        <circle id="Oval" fill="#FFFFFF" cx="32" cy="32" r="32"></circle>
                        <g id="icons/facebook" transform="translate(22.653061, 22.653061)" fill="#000000">
                            <g id="tik-tok" transform="translate(2.500000, 1.666667)">
                                <path d="M14.6351237,4.17310564 C13.6824819,4.17310564 12.8035215,3.85751452 12.0976798,3.32511753 C11.2881625,2.71480083 10.7065359,1.81953926 10.5011409,0.787673689 C10.4502812,0.532723017 10.4228952,0.269621747 10.420287,0 L7.69896566,0 L7.69896566,7.43595261 L7.69570542,11.5089689 C7.69570542,12.5978887 6.98660349,13.5211883 6.0036415,13.8459081 C5.7183706,13.940129 5.41027804,13.9847942 5.08947054,13.967189 C4.67998455,13.9446933 4.29625445,13.8211303 3.96273202,13.6216036 C3.25297804,13.1971206 2.77176679,12.4270522 2.75872584,11.5461356 C2.73818633,10.1693368 3.85123185,9.04683659 5.22705262,9.04683659 C5.49863051,9.04683659 5.75944961,9.09117584 6.0036415,9.17170374 L6.0036415,7.13927088 L6.0036415,6.40865137 C5.74608263,6.37050658 5.48395943,6.35061912 5.21890202,6.35061912 C3.71299773,6.35061912 2.30457458,6.97658497 1.29781284,8.10430156 C0.536873109,8.95652798 0.0804396801,10.0438176 0.0100185224,11.1839231 C-0.0822462351,12.6816768 0.465799904,14.1054231 1.52863775,15.155872 C1.68480318,15.3100813 1.84879319,15.4532058 2.02028175,15.5852455 C2.93151849,16.2865228 4.04554208,16.6666667 5.21890202,16.6666667 C5.48395943,16.6666667 5.74608263,16.6471052 6.0036415,16.6089604 C7.09973377,16.4466005 8.11105984,15.9448498 8.9091663,15.155872 C9.88984612,14.186603 10.4316978,12.8997868 10.4375662,11.5301605 L10.4235472,5.447859 C10.8913915,5.80876743 11.4029229,6.10740531 11.9519471,6.33920828 C12.8058037,6.69946467 13.711172,6.88203804 14.6429868,6.88171202 L14.6429868,4.90568129 L14.6429868,4.17245359 C14.6436003,4.17310564 14.6357757,4.17310564 14.6351237,4.17310564 L14.6351237,4.17310564 Z" id="Path"></path>
                            </g>
                        </g>
                    </g>
                </g>
            </g>
        </g>
    </g>
</svg>