<?xml version="1.0" encoding="UTF-8"?>
<svg width="21px" height="21px" viewBox="0 0 21 21" version="1.1" xmlns="http://www.w3.org/2000/svg" xmlns:xlink="http://www.w3.org/1999/xlink">
    <title>8E57991E-A422-451A-A2E8-1E4955104507</title>
    <defs>
        <rect id="path-1" x="0" y="50" width="1440" height="435"></rect>
        <filter x="-0.0%" y="-0.3%" width="100.1%" height="100.5%" filterUnits="objectBoundingBox" id="filter-2">
            <feOffset dx="0" dy="-1" in="SourceAlpha" result="shadowOffsetOuter1"></feOffset>
            <feColorMatrix values="0 0 0 0 0   0 0 0 0 0   0 0 0 0 0  0 0 0 0.147871377 0" type="matrix" in="shadowOffsetOuter1"></feColorMatrix>
        </filter>
    </defs>
    <g id="Dsk-Shopping" stroke="none" stroke-width="1" fill="none" fill-rule="evenodd">
        <g id="Dsk-Home" transform="translate(-501.000000, -8048.000000)">
            <rect fill="#FFFFFF" x="0" y="0" width="1440" height="8546"></rect>
            <g id="Footer" transform="translate(0.000000, 7912.000000)">
                <g id="Rectangle" fill-rule="nonzero">
                    <use fill="black" fill-opacity="1" filter="url(#filter-2)" xlink:href="#path-1"></use>
                    <use fill="#F6F6F6" xlink:href="#path-1"></use>
                </g>
                <g id="elements/social-circle" transform="translate(479.000000, 114.000000)">
                    <circle id="Oval" fill="#FFFFFF" cx="32" cy="32" r="32"></circle>
                    <g id="icons/facebook" transform="translate(22.653061, 22.653061)" fill="#000000">
                        <g id="twitter" transform="translate(0.833333, 2.500000)">
                            <path d="M11.2476796,-0.0735490356 C9.7769642,0.564177859 8.80452549,1.99439978 8.75190926,3.59614461 L8.75,4.2 L8.62631168,4.19756294 C5.98961638,4.10124368 3.53559892,2.77813936 2.00764855,0.60242258 C1.8215259,0.337394221 1.41744158,0.376719201 1.28591185,0.672661092 L1.22057222,0.831133705 L1.16015828,0.990784797 C1.06966201,1.23743148 0.979506791,1.51744299 0.895518795,1.82622238 C0.417983648,3.58186631 0.334561922,5.42761289 0.901461834,7.16979311 L0.98004577,7.39868483 C1.60996173,9.14094331 2.8722179,10.5925328 4.85241555,11.6586722 L4.97,11.72 L4.79892642,11.8166994 C3.33825228,12.6060396 1.68696046,12.99199 0.0165602717,12.925548 C-0.421935634,12.9081064 -0.585968716,13.4929968 -0.202351221,13.7061177 C7.89452049,18.2043797 17.0833333,13.31356 17.0833333,3.75855212 L17.0745092,3.50000423 L17.0641334,3.3713681 L17.0441667,3.20833333 L16.892572,3.3635549 C17.7981589,2.47047558 18.437218,1.34290498 18.7381678,0.107142987 C18.8292635,-0.266914866 18.4077642,-0.553843534 18.093164,-0.331932572 L17.8038738,-0.136479931 C17.2178943,0.242461212 16.5882821,0.549246761 15.9287335,0.777203048 L15.8391667,0.805833333 L15.7659841,0.732261997 C14.6166496,-0.366186203 12.9262292,-0.718643334 11.4198227,-0.143679015 L11.2476796,-0.0735490356 Z M1.69963691,2.04494251 L1.75867027,1.83652109 L1.80083333,1.69916667 L1.84187936,1.74978724 C3.65321428,3.88735543 6.34659412,5.10681628 9.17746715,5.03341212 C9.4033028,5.02755623 9.58333333,4.84279701 9.58333333,4.61688545 L9.58333333,3.78355212 C9.56463984,2.38637395 10.4167513,1.13114272 11.7169797,0.63487231 C13.0172082,0.138601903 14.4889713,0.506858127 15.4022691,1.55698454 C15.5098198,1.6806483 15.6798759,1.72977788 15.8368054,1.68252305 L16.1607553,1.57861309 C16.5898972,1.43243691 17.0076132,1.25586924 17.4107792,1.05043242 L17.5608333,0.97 L17.4952764,1.1138913 C17.1977497,1.72676264 16.7969162,2.28748849 16.307428,2.770216 C16.2084007,2.8678756 16.1646303,3.00850613 16.190743,3.14511482 C16.2294819,3.34777734 16.2493201,3.55359899 16.2500023,3.75992963 L16.2474647,4.025549 C16.0921197,12.1306546 8.83087004,16.492464 1.79999282,13.7327583 L1.675,13.6825 L1.91255587,13.6503148 C3.39366765,13.424148 4.81438211,12.8704736 6.0673458,12.019964 C6.33775241,11.8364125 6.30120901,11.4271979 6.00255769,11.294464 C3.66988174,10.2577191 2.29505956,8.75940991 1.69389774,6.91193698 C1.18465553,5.34694874 1.26101148,3.65753602 1.69963691,2.04494251 Z" id="Path"></path>
                        </g>
                    </g>
                </g>
            </g>
        </g>
    </g>
</svg>