<?xml version="1.0" encoding="utf-8"?>
<!-- Generator: Adobe Illustrator 26.3.1, SVG Export Plug-In . SVG Version: 6.00 Build 0)  -->
<svg version="1.1" id="Layer_1" xmlns="http://www.w3.org/2000/svg" xmlns:xlink="http://www.w3.org/1999/xlink" x="0px" y="0px"
	 viewBox="0 0 60 60" style="enable-background:new 0 0 60 60;" xml:space="preserve">
<style type="text/css">
	.st0{fill:#FFFFFF;}
	.st1{fill:#010101;}
</style>
<g>
	<circle class="st0" cx="30" cy="30" r="30"/>
	<g>
		<path class="st1" d="M41.4,24.2c-0.3-1-1.1-1.8-2.1-2.1c-1.9-0.5-9.3-0.5-9.3-0.5s-7.4,0-9.3,0.5c-1,0.3-1.8,1.1-2.1,2.1
			c-0.5,1.9-0.5,5.8-0.5,5.8s0,3.9,0.5,5.8c0.3,1,1.1,1.8,2.1,2.1c1.9,0.5,9.3,0.5,9.3,0.5s7.4,0,9.3-0.5c1-0.3,1.8-1.1,2.1-2.1
			c0.5-1.9,0.5-5.8,0.5-5.8S41.9,26.1,41.4,24.2z M27.6,33.5v-7.1l6.2,3.5L27.6,33.5z"/>
	</g>
</g>
</svg>
