<?xml version="1.0" encoding="UTF-8"?>
<svg width="24px" height="24px" viewBox="0 0 24 24" version="1.1" xmlns="http://www.w3.org/2000/svg" xmlns:xlink="http://www.w3.org/1999/xlink">
    <title>icons/share filled</title>
    <g id="icons/share-filled" stroke="none" stroke-width="1" fill="none" fill-rule="evenodd">
        <g id="share-2" transform="translate(3.000000, 2.000000)" fill="#000000">
            <path d="M15.5,0 C17.4329966,0 19,1.56700338 19,3.5 C19,5.43299662 17.4329966,7 15.5,7 C14.3900121,7 13.4007076,6.48329314 12.7594956,5.67728866 L6.74516983,9.18647165 C6.90950023,9.59206432 7,10.0354635 7,10.5 C7,10.9641507 6.9096505,11.4071991 6.74557914,11.8125177 L12.7626662,15.3187318 C13.4039662,14.5150065 14.39184,14 15.5,14 C17.4329966,14 19,15.5670034 19,17.5 C19,19.4329966 17.4329966,21 15.5,21 C13.5670034,21 12,19.4329966 12,17.5 C12,17.0339202 12.0911021,16.5891184 12.2564705,16.1824304 L6.24050439,12.6772887 C5.59929244,13.4832931 4.6099879,14 3.5,14 C1.56700338,14 0,12.4329966 0,10.5 C0,8.56700338 1.56700338,7 3.5,7 C4.6099879,7 5.59929244,7.51670686 6.24050439,8.32271134 L12.2548302,4.81352835 C12.0904998,4.40793568 12,3.96453651 12,3.5 C12,1.56700338 13.5670034,0 15.5,0 Z" id="Combined-Shape"></path>
        </g>
    </g>
</svg>