<?xml version="1.0" encoding="UTF-8"?>
<svg width="34px" height="21px" viewBox="0 0 34 21" version="1.1" xmlns="http://www.w3.org/2000/svg" xmlns:xlink="http://www.w3.org/1999/xlink">
    <title>flags/uae</title>
    <g id="flags/uae" stroke="none" stroke-width="1" fill="none" fill-rule="evenodd">
        <g id="flaticon1589995536-svg" fill-rule="nonzero">
            <path d="M18.5984121,14.0024473 L18.5970996,6.89501367 L18.5969355,5.97212109 C18.5968125,5.45503711 18.3209414,4.97728711 17.8730508,4.71880664 L10.0324629,0.193798828 C9.5846543,-0.0646816406 9.03291211,-0.0645996094 8.58514453,0.194044922 L5.73324609,1.84123242 L0.746074219,4.72163672 C0.298306641,4.98028125 0.0225996094,5.45807227 0.0225996094,5.97515625 L0.0240761719,15.0278379 C0.0241992187,15.5449219 0.300070312,16.0226719 0.747960937,16.2811523 L5.73320508,19.1582754 L8.58854883,20.8062012 C9.03635742,21.0646816 9.58809961,21.0645586 10.0358262,20.8059551 L17.8749375,16.2783223 C18.3227051,16.0196777 18.5984121,15.5418867 18.5984121,15.0247617 L18.5984121,14.0024473 Z" id="Path" fill="#F5F5F5"></path>
            <path d="M18.5970996,6.89501367 L18.5969355,5.97212109 C18.5968125,5.45503711 18.3209414,4.97728711 17.8730508,4.71880664 L10.0324629,0.193798828 C9.5846543,-0.0646816406 9.03291211,-0.0645996094 8.58514453,0.194044922 L5.73324609,1.84123242 L5.2100918,4.50314648 L5.73324609,6.8950957 L18.5970996,6.8950957 L18.5970996,6.89501367 L18.5970996,6.89501367 L18.5970996,6.89501367 Z" id="Path" fill="#73AF00"></path>
            <path d="M5.73328711,19.1582754 L8.58863086,20.8062012 C9.03643945,21.0646816 9.58818164,21.0645586 10.0359492,20.8059551 L17.8750195,16.2782812 C18.3227871,16.0196367 18.5984941,15.5418457 18.5984941,15.0247207 L18.5983301,14.0023652 L5.73328711,14.0023652 L5.10759375,16.3943145 L5.73328711,19.1582754 Z" id="Path" fill="#464655"></path>
            <path d="M0.0226406067,5.97519727 L0.0241171875,15.0278789 C0.0242402344,15.5449629 0.300111328,16.0227129 0.748001953,16.2811934 L5.73324609,19.1583164 L5.73324609,14.0024473 L5.73324609,6.89501367 L5.73324609,1.84119141 L0.746074219,4.72163672 C0.298347656,4.98028125 0.0225585937,5.45811328 0.0226406067,5.97519727 Z" id="Path" fill="#FF4B55"></path>
        </g>
    </g>
</svg>