<?xml version="1.0" encoding="UTF-8"?>
<svg width="34px" height="21px" viewBox="0 0 34 21" version="1.1" xmlns="http://www.w3.org/2000/svg" xmlns:xlink="http://www.w3.org/1999/xlink">
    <title>flags/bahrain</title>
    <g id="flags/bahrain" stroke="none" stroke-width="1" fill="none" fill-rule="evenodd">
        <g id="flaticon1589995613-svg" fill-rule="nonzero">
            <path d="M18.5984121,15.0247207 L18.598084,13.285248 L18.5978789,12.1710996 L18.5973047,8.82869531 L18.5970996,7.71454688 L18.5967715,5.97195703 C18.5967305,5.84460352 18.5794629,5.71983398 18.5474707,5.59994531 C18.5302441,5.53546875 18.5085879,5.47250977 18.4827891,5.41139648 C18.3774609,5.16157031 18.2033086,4.94303906 17.9757539,4.78467773 C17.9424492,4.76150391 17.9084063,4.73915039 17.8728457,4.71860156 L16.9003652,4.15734375 L15.9899004,3.63193359 L15.2569512,3.20893945 L12.4541484,1.59140625 L12.4541484,1.59140625 L11.3607129,0.960339844 L10.5406055,0.487060547 L10.0324219,0.193757813 C9.58461328,-0.0646816406 9.03287109,-0.0645585937 8.58510352,0.194003906 L8.08032422,0.485542969 L7.2602168,0.959191406 L6.16678125,1.59075 L6.16678125,1.59075 L3.36414258,3.20939062 L2.13592969,3.91883789 L1.22575195,4.44457617 L0.745992187,4.72167773 C0.711498047,4.74161133 0.678398437,4.76330859 0.645955078,4.78574414 C0.506830078,4.88208984 0.387720703,5.00124023 0.291662109,5.13585352 C0.227185547,5.22633398 0.173414062,5.32391016 0.13125,5.42673633 C0.0609082031,5.59814062 0.0225175453,5.78381836 0.0225175453,5.97515625 L0.0228046875,7.71462891 L0.0230097656,8.82877734 L0.0235839844,12.1706484 L0.0235839844,12.1712227 L0.0235839844,12.1714277 L0.0237890625,13.2853711 L0.0240761719,15.0276328 L0.0240761719,15.0278789 C0.0241992187,15.5039473 0.258480469,15.9461367 0.645052734,16.2151172 C0.678357422,16.238291 0.712400391,16.2606445 0.747960937,16.2811934 L1.7067832,16.8345352 L2.61724805,17.3600273 L3.36389648,17.7909375 L7.26033984,20.0396602 L8.08044727,20.5129395 L8.58863086,20.8062422 C9.03643945,21.0646816 9.58818164,21.0645586 10.0359492,20.8059961 L10.5407285,20.514457 L11.3608359,20.0408086 L12.4542715,19.409291 L12.4542715,19.409291 L14.8162383,18.0450703 L15.2568281,17.7905684 L16.3775801,17.1432598 L17.2877578,16.6175215 L17.8750605,16.2783223 C17.9095547,16.2583887 17.9426543,16.2366914 17.9750977,16.2142559 C18.3632285,15.9453984 18.5984121,15.5020195 18.5984121,15.0247207 L18.5984121,15.0247207 L18.5984121,15.0247207 Z" id="Path" fill="#F5F5F5"></path>
            <path d="M18.598125,13.2853301 L18.5979199,12.1711816 L18.5973457,8.82877734 L18.5971406,7.71462891 L18.5968125,5.97203906 C18.5967715,5.84468555 18.5795039,5.719875 18.5475117,5.60002734 C18.5302852,5.53555078 18.5086289,5.4725918 18.4828301,5.41147852 C18.377502,5.16161133 18.2033496,4.94312109 17.9757949,4.78475977 C17.9424902,4.76158594 17.9084473,4.73923242 17.8728867,4.71868359 L16.9004062,4.15742578 L15.9899414,3.63201563 L15.2569922,3.20902148 L14.0355059,2.50404492 L12.4541484,1.59140625 L11.3607129,0.960339844 L10.5406055,0.487060547 L10.0324219,0.193757813 C9.58461328,-0.0646816406 9.03287109,-0.0645585937 8.58510352,0.194003906 L8.08032422,0.485542969 L7.2602168,0.959191406 L6.16678125,1.59075 L6.16678125,1.59075 L4.58538281,2.50412695 L4.53645117,2.53242773 L7.80789844,3.50363672 L4.44121289,4.50310547 L7.80789844,5.50257422 L4.44121289,6.50204297 L7.80789844,7.50151172 L4.44121289,8.50098047 L7.80789844,9.50044922 L4.44121289,10.5000051 L7.80798047,11.4994687 L4.44121289,12.4989375 L7.80798047,13.4984062 L4.44121289,14.497875 L7.80798047,15.4973437 L4.44121289,16.4968125 L7.80798047,17.4962812 L4.53649219,18.4675312 L4.58542383,18.495791 L7.26033984,20.0395371 L8.08044727,20.5128164 L8.58863086,20.8061191 C9.03643945,21.0645586 9.58818164,21.0644355 10.0359492,20.805873 L10.5407285,20.514334 L11.3608359,20.0406855 L12.4542715,19.409168 L14.0356699,18.495791 L14.8162383,18.0449473 L15.2568281,17.7904453 L16.3775801,17.1431367 L17.2877578,16.6173984 L17.8750605,16.2781992 C17.9095547,16.2582656 17.9426543,16.2366504 17.9750977,16.2141328 C18.3633105,15.9452344 18.5985352,15.5018965 18.5985352,15.0246387 L18.598125,13.2853301 Z" id="Path" fill="#FF4B55"></path>
        </g>
    </g>
</svg>