<?xml version="1.0" encoding="UTF-8"?>
<svg width="34px" height="21px" viewBox="0 0 34 21" version="1.1" xmlns="http://www.w3.org/2000/svg" xmlns:xlink="http://www.w3.org/1999/xlink">
    <title>flags/kuwait</title>
    <g id="flags/kuwait" stroke="none" stroke-width="1" fill="none" fill-rule="evenodd">
        <g id="flaticon1589995588-svg" fill-rule="nonzero">
            <path d="M18.2561777,15.2517012 C18.2633965,15.2266406 18.270041,15.201334 18.2758242,15.1758223 C18.277752,15.1675781 18.2794746,15.159375 18.2811973,15.1510898 C18.285832,15.1289004 18.2899336,15.1065879 18.293502,15.0840703 C18.2950195,15.0743906 18.2966191,15.0646699 18.2980137,15.0549082 C18.3011309,15.0325547 18.3033867,15.0100781 18.3053965,14.9875195 C18.3062168,14.978291 18.3073242,14.9691855 18.3079805,14.959875 C18.3101133,14.928416 18.3114258,14.896834 18.3114258,14.8650059 L18.3114258,14.8650059 L18.3114258,14.8650059 L18.3114258,14.8647598 L18.3112207,13.1870566 L18.3112207,13.1870156 L18.3110156,12.1122422 L18.3110156,12.1121602 L18.3109746,11.9393613 L18.3108105,10.8904277 L18.3108105,10.8904277 L18.3104824,8.88788086 L18.3102773,7.81310742 L18.3099902,6.13208203 C18.3099902,6.00919922 18.2933379,5.88885937 18.2624121,5.77319531 C18.2458008,5.71097461 18.2248828,5.65027148 18.2000684,5.59129102 C18.0983906,5.35024219 17.9303906,5.13946289 17.710957,4.9867207 C17.6788008,4.96436719 17.6459883,4.94279297 17.6116582,4.92298242 L16.6734668,4.38157617 L15.7951582,3.87470508 L15.0880488,3.46664062 L12.3840527,1.90599609 L11.3292539,1.29724219 L10.5381445,0.84065625 L10.0478848,0.557730469 C9.61586719,0.3084375 9.08364844,0.308478516 8.65171289,0.557976563 L8.16477539,0.839220703 L7.37366602,1.29613477 L6.31886719,1.90538086 L6.31886719,1.90538086 L3.6154043,3.46692773 L2.43046289,4.15131445 L1.55240039,4.65847266 L1.08966211,4.92577148 C1.05639844,4.94500781 1.02444727,4.96592578 0.993152344,4.98758203 C0.858949219,5.08052344 0.744064453,5.19544922 0.651451172,5.32538672 C0.589230469,5.41266797 0.537386719,5.50679883 0.496699219,5.60597461 C0.428818359,5.77130859 0.391822232,5.95046484 0.391822232,6.13503516 L0.392068359,7.81306641 L0.392273438,8.88783984 L0.392765625,11.91225 L0.392765625,12.0767637 L0.392765625,12.1115859 L0.392765625,12.111668 L0.392765625,12.1122012 L0.392765625,12.1122012 L0.392765625,12.1124062 L0.392765625,12.1124062 L0.392970703,13.1870156 L0.392970703,13.1870156 L0.392970703,13.2634687 L0.393052734,13.7809629 L0.393216797,14.8677539 L0.393216797,14.868 L0.393216797,14.868 C0.393216797,14.8997051 0.394570313,14.931123 0.396662109,14.9625 C0.397318359,14.9716875 0.398384766,14.980793 0.399164063,14.9899395 C0.401132813,15.012498 0.403470703,15.0348926 0.406546875,15.057123 C0.407900391,15.0668027 0.4095,15.0764414 0.410976563,15.0860801 C0.414544922,15.1084746 0.418605469,15.1306641 0.423199219,15.1527715 C0.424921875,15.1610156 0.426726563,15.1693008 0.428572266,15.1775039 C0.434314453,15.2027285 0.440794922,15.227625 0.447890625,15.2523574 C0.449244141,15.2569922 0.450392578,15.261668 0.451787109,15.2663027 C0.489070313,15.3910723 0.543662109,15.5095254 0.613388672,15.6185859 C0.613388672,15.6185859 0.613388672,15.618627 0.613429688,15.618668 L0.613470703,15.618709 C0.661541016,15.6938496 0.716707031,15.7643555 0.778558594,15.8294062 C0.780650391,15.8315391 0.782619141,15.8337539 0.784628906,15.8358867 C0.813708984,15.8660332 0.844265625,15.8949082 0.876134766,15.9225117 C0.881261719,15.9270234 0.886552734,15.9313301 0.891802734,15.9357187 C0.924041016,15.9628301 0.957222656,15.9890391 0.992085938,16.0132383 C1.02424219,16.0355918 1.05705469,16.057125 1.09130273,16.0769766 L2.01628711,16.6107949 L2.8945957,17.117707 L3.61487109,17.5334004 L7.37370703,19.7027168 L8.16481641,20.1593027 L8.65507617,20.4422285 C9.08709375,20.6915215 9.6193125,20.6914805 10.051248,20.4419824 L10.5381855,20.1607383 L11.3292949,19.7038242 L12.3840938,19.0946191 L14.6626758,17.7785918 L15.0877207,17.5331133 L16.1688926,16.9086914 L17.0469551,16.4015332 L17.6135039,16.0743105 C17.6468496,16.0550742 17.6787188,16.0341562 17.7100137,16.0125 C17.744877,15.9883008 17.7780586,15.9622148 17.8102969,15.9352676 C17.8155879,15.9308789 17.8209199,15.9265312 17.8261289,15.9220605 C17.8580801,15.894457 17.8887188,15.8656641 17.9178398,15.8355176 C17.9197266,15.8335488 17.9215313,15.831498 17.923418,15.8295293 C18.0762012,15.6699375 18.1889941,15.4764258 18.2523223,15.2649492 C18.2537988,15.2605605 18.2549473,15.2560898 18.2561777,15.2517012 Z" id="Path" fill="#FFFFFF"></path>
            <path d="M5.64313477,8.02770117 L1.03888477,4.95817383 C1.02366797,4.96801758 1.00791797,4.97720508 0.993029297,4.9875 C0.858826172,5.08044141 0.743941406,5.19536719 0.651328125,5.32530469 C0.589107422,5.41258594 0.537263672,5.5067168 0.496576172,5.60589258 C0.428695312,5.77122656 0.391699185,5.95038281 0.391699185,6.13495313 L0.391945312,7.81298438 L0.392150391,8.88775781 L0.392642578,11.912168 L0.392642578,12.0766816 L0.392642578,12.1115039 L0.392642578,12.1115859 L0.392642578,12.1121191 L0.392642578,12.1121191 L0.392642578,12.1123242 L0.392642578,12.1123242 L0.392847656,13.1869336 L0.392847656,13.1869746 L0.392847656,13.2633867 L0.392888672,13.7808809 L0.39309375,14.8676719 L0.39309375,14.867918 L0.39309375,14.867918 C0.39309375,14.899623 0.394447266,14.931041 0.396539062,14.962418 C0.397195312,14.9716055 0.398261719,14.9807109 0.399041016,14.9898574 C0.401050781,15.012416 0.403347656,15.0348105 0.406423828,15.057041 C0.407777344,15.0667207 0.409335937,15.0763594 0.410935547,15.085998 C0.414462891,15.1083926 0.418482422,15.130582 0.423158203,15.1526895 C0.424880859,15.1609336 0.426603516,15.1692188 0.428490234,15.1774219 C0.434232422,15.2026465 0.440712891,15.227543 0.447808594,15.2522754 C0.449162109,15.2569102 0.450310547,15.2615859 0.451705078,15.2662207 C0.488988281,15.3909902 0.543539062,15.5094434 0.613306641,15.6185039 C0.613306641,15.6185039 0.613306641,15.6185449 0.613347656,15.6185859 L0.613388672,15.618627 C0.661458984,15.6937676 0.716625,15.7642734 0.778476562,15.8293242 C0.780568359,15.831457 0.782537109,15.8336719 0.784546875,15.8358047 C0.813626953,15.8659512 0.844183594,15.8949082 0.876052734,15.9224297 C0.881179687,15.9269414 0.886470703,15.931248 0.891720703,15.9356367 C0.923958984,15.962748 0.957099609,15.988957 0.992003906,16.0131563 C1.00672852,16.0234512 1.02247852,16.0325977 1.03757227,16.0424414 L5.64301172,12.9721348 L5.64301172,8.02770117 L5.64313477,8.02770117 Z" id="Path" fill="#333333"></path>
            <path d="M17.5099805,8.02770117 L18.3103184,8.02770117 L18.3103184,7.81302539 L18.3099902,6.132 C18.3099902,6.00911719 18.2933379,5.88877734 18.2624121,5.77311328 C18.2458008,5.71089258 18.2249238,5.65018945 18.2000684,5.59120898 C18.0983906,5.35016016 17.9303906,5.13938086 17.710957,4.98663867 C17.6788008,4.96428516 17.6459883,4.94271094 17.6116582,4.92290039 L16.6734668,4.38149414 L15.7951582,3.87462305 L15.0880488,3.46655859 L12.3840527,1.90599609 L11.3292539,1.29724219 L10.5381445,0.84065625 L10.0478848,0.557730469 C9.61586719,0.3084375 9.08364844,0.308478516 8.65171289,0.557976563 L8.16477539,0.839220703 L7.37366602,1.29613477 L6.31886719,1.90538086 L6.31886719,1.90538086 L3.6154043,3.46692773 L2.43046289,4.15131445 L1.55240039,4.65847266 L1.08966211,4.92577148 C1.07214844,4.93586133 1.0557832,4.9473457 1.0389668,4.95821484 L5.64325781,8.0277832 L17.5099805,8.0277832 L17.5099805,8.02770117 Z" id="Path" fill="#259245"></path>
            <path d="M1.03773633,16.0425234 C1.05553711,16.0540898 1.0728457,16.0662715 1.09138477,16.0769766 L2.01636914,16.6107949 L2.89467773,17.117707 L3.61495312,17.5334004 L7.37378906,19.7027168 L8.16489844,20.1593027 L8.6551582,20.4422285 C9.08717578,20.6915215 9.61939453,20.6914805 10.0513301,20.4419824 L10.5382676,20.1607383 L11.329377,19.7038242 L12.3841758,19.0946191 L14.6627578,17.7785918 L15.0878027,17.5331133 L16.1689746,16.9086504 L17.0470371,16.4014922 L17.6135859,16.0742695 C17.6469316,16.0550332 17.6788008,16.0341152 17.7100957,16.012459 C17.744959,15.9882598 17.7781406,15.9621738 17.8103789,15.9352266 C17.8156699,15.9308379 17.821002,15.9264902 17.8262109,15.9219785 C17.8581621,15.894457 17.8888008,15.865623 17.9179219,15.8354355 C17.9198496,15.8334668 17.9216133,15.831416 17.9235,15.8294473 C18.0762422,15.6698555 18.1890762,15.4763437 18.2524043,15.2648672 C18.2537578,15.2605195 18.2548652,15.2560488 18.2560957,15.2516602 C18.2633145,15.2265996 18.269959,15.201293 18.2757422,15.1757812 C18.2776699,15.1675371 18.2793926,15.159334 18.2811152,15.1510488 C18.28575,15.1288594 18.2898516,15.1065469 18.2934199,15.0840703 C18.2949375,15.0743906 18.2965371,15.0646699 18.2979316,15.0549082 C18.3010488,15.0325547 18.3033047,15.0100781 18.3053145,14.9875195 C18.3061348,14.978291 18.3072422,14.9691855 18.3078984,14.959875 C18.3100312,14.928416 18.3113437,14.896834 18.3113437,14.8650059 L18.3113437,14.8650059 L18.3113437,14.8647598 L18.3113437,13.1870977 L18.3113437,13.1870566 L18.3113437,12.9723809 L5.64313477,12.9723809 L1.03773633,16.0425234 Z" id="Path" fill="#ED1F34"></path>
        </g>
    </g>
</svg>