<?xml version="1.0" encoding="UTF-8"?>
<svg width="34px" height="21px" viewBox="0 0 34 21" version="1.1" xmlns="http://www.w3.org/2000/svg" xmlns:xlink="http://www.w3.org/1999/xlink">
    <title>flags/oman</title>
    <g id="flags/oman" stroke="none" stroke-width="1" fill="none" fill-rule="evenodd">
        <g id="flaticon1589995489-svg" fill-rule="nonzero">
            <path d="M0.0241582031,15.0279199 L0.0226815995,5.97523828 C0.0226815995,5.4581543 0.298388672,4.98032227 0.74615625,4.72167773 L8.58518555,0.194044922 C9.03295313,-0.0645996094 9.5846543,-0.064640625 10.0325039,0.193798828 L17.8730918,4.71884766 C18.3209004,4.97732813 18.5968535,5.45507812 18.5969766,5.97216211 L18.5984532,15.0248438 C18.5984532,15.5419277 18.3227461,16.0197598 17.8749785,16.2784043 L10.0358672,20.8060371 C9.58809961,21.0646816 9.03639844,21.0647227 8.58854883,20.8062832 L0.748042969,16.2812344 C0.300152344,16.0227539 0.0242402344,15.5450039 0.0241582031,15.0279199 Z" id="Path" fill="#F5F5F5"></path>
            <path d="M6.38900391,19.5367676 L8.58863086,20.8062012 C9.03643945,21.0646816 9.58818164,21.0645586 10.0359492,20.8059961 L17.8750605,16.2783223 C18.3228281,16.0196777 18.5985352,15.5418867 18.5985352,15.0247617 L18.5983711,14.0366133 L5.87651367,13.3700273 L6.38900391,19.5367676 Z" id="Path" fill="#73AF00"></path>
            <path d="M18.5971816,6.96338672 L6.38900391,6.96338672 L6.38900391,1.46249414 L0.746074219,4.72167773 C0.298306641,4.98028125 0.0225996094,5.45811328 0.0225996094,5.97519727 L0.0225996094,6.96338672 L0.023953125,14.0366543 L0.0241171875,15.0278789 C0.0242402344,15.5449629 0.300111328,16.0227129 0.748001953,16.2811934 L6.38896289,19.5368086 L6.38896289,14.0366543 L18.5982891,14.0366543 L18.5971816,6.96338672 Z" id="Path" fill="#FF4B55"></path>
            <g id="Group" transform="translate(0.984375, 5.126953)" fill="#F5F5F5">
                <path d="M0.664539062,2.62586133 C0.630102719,2.62873242 0.596844166,2.63176758 0.564539062,2.63492578 L0.564539062,2.95538086 C0.597124593,2.96149219 0.63032706,2.96748047 0.664539062,2.97338672 C0.664539062,2.97338672 0.664539062,2.62586133 0.664539062,2.62586133 Z" id="Path"></path>
                <path d="M1.74611719,3.23658398 C1.67934375,3.23125195 1.57668164,3.22095703 1.45412695,3.20598633 L0.685617187,3.88951172 C0.785162109,3.90472852 0.904476562,3.92486719 0.954310547,3.94078125 C1.15163672,3.76806445 1.41643359,3.53263477 1.74611719,3.23658398 Z" id="Path"></path>
                <polygon id="Path" points="2.90259375 2.15077667 2.90259375 2.11645269 2.90259375 2.08359375 1.53894727 2.08359375 1.53894727 2.11645269 1.53894727 2.15077667 1.53894727 2.18359375 2.90259375 2.18359375"></polygon>
                <path d="M1.89303516,0.199294922 C1.89303516,0.2953125 2.03773828,0.376441406 2.20906055,0.376441406 C2.38042383,0.376441406 2.52508594,0.295353516 2.52508594,0.199294922 C2.52508594,0.103277344 2.38038281,0.0221484375 2.20906055,0.0221484375 C2.03769727,0.0221484375 1.89303516,0.103277344 1.89303516,0.199294922 Z" id="Path"></path>
                <path d="M1.59747656,2.5824668 C1.2896543,2.58099023 0.982447266,2.59226953 0.731308594,2.61597656 L0.731308594,2.99422266 C1.026375,3.0575918 1.37008594,3.10607227 1.59747656,3.13018945 L1.59747656,2.5824668 Z" id="Path"></path>
                <path d="M0.0117304688,4.44945703 C0.133423828,4.44691406 0.400640625,4.39880273 0.581601563,4.25742188 C0.637710938,4.21361719 0.733482422,4.13298047 0.868054688,4.01600391 C0.776753906,3.99725977 0.623601563,3.97457813 0.541980469,3.96329883 L0.0117304688,4.44945703 Z" id="Path"></path>
                <path d="M1.77306445,1.98995508 L1.77306445,1.81797656 C1.75001367,1.78356445 1.72618359,1.74820898 1.70190234,1.71219727 L1.49251758,1.86440625 C1.53418945,1.93601953 1.56089063,1.98150586 1.5658125,1.98991406 L1.77306445,1.98995508 L1.77306445,1.98995508 Z" id="Path"></path>
                <path d="M0.162216797,2.76646289 C0.161560547,2.76929297 0.159919922,2.77577344 0.170460937,2.78930859 C0.209302734,2.83906055 0.321726563,2.88663867 0.470900391,2.92995117 L0.470900391,2.64874805 C0.291744141,2.67852539 0.174398438,2.71777734 0.162216797,2.76646289 Z" id="Path"></path>
                <path d="M2.5572832,2.63221875 L2.5572832,2.27521875 L1.86666211,2.27521875 L1.86666211,3.14721094 L2.04220898,3.14721094 C2.32624219,3.14725195 2.5572832,2.91616992 2.5572832,2.63221875 Z" id="Path"></path>
                <path d="M1.44735937,1.33546875 C1.07764453,0.790453125 0.682746094,0.217669922 0.586400391,0.104220703 C0.600181641,0.154957031 0.633568359,0.250236328 0.711416016,0.428654297 C0.811863281,0.658875 1.05574219,1.10032617 1.25758008,1.45564453 L1.44735937,1.33546875 Z" id="Path"></path>
                <path d="M1.30396875,1.53714258 C1.35650977,1.62918164 1.40474414,1.71293555 1.44534961,1.78303125 L1.64960742,1.63447266 C1.60100391,1.56236719 1.55104687,1.48845703 1.49998242,1.4130293 L1.30396875,1.53714258 Z" id="Path"></path>
                <path d="M1.79111523,3.14561133 L1.79111523,2.58472266 C1.75783195,2.58414844 1.72454867,2.58361523 1.69111523,2.58324609 L1.69111523,3.13945898 C1.72965377,3.14220703 1.76323736,3.14425781 1.79111523,3.14561133 Z" id="Path"></path>
                <rect id="Rectangle" x="1.86662109" y="1.50855469" width="1" height="1"></rect>
                <path d="M3.51708984,1.98408984 L3.51708984,1.98991406 L3.55219922,1.98991406 C3.57808008,1.98991406 3.59899805,2.01087305 3.59899805,2.03671289 L3.59899805,2.22833789 C3.59899805,2.25421875 3.57803906,2.27513672 3.55219922,2.27513672 L3.51708984,2.27513672 L3.51708984,2.28096094 C3.51708984,2.30675977 3.53804883,2.32775977 3.56388867,2.32775977 L4.35397266,2.32775977 C4.3798125,2.32775977 4.40077148,2.30675977 4.40077148,2.28096094 L4.40077148,1.98392578 C4.40077148,1.95812695 4.3798125,1.93712695 4.35397266,1.93712695 L3.56388867,1.93712695 C3.53804883,1.93725 3.51708984,1.95833203 3.51708984,1.98408984 Z" id="Path"></path>
                <path d="M4.40105859,4.44679102 L3.87380273,3.96333984 C3.79214063,3.97457812 3.63898828,3.99725977 3.54772852,4.01604492 C3.68480273,4.1349082 3.78049219,4.21558594 3.83418164,4.25754492 C4.01223047,4.39654688 4.27399219,4.44531445 4.40105859,4.44679102 Z" id="Path"></path>
                <polygon id="Path" points="3.31808203 2.11645269 3.31808203 2.15077667 3.31808203 2.18359375 3.50535937 2.18359375 3.50535937 2.08359375 3.31808203 2.08359375"></polygon>
                <path d="M3.46134961,3.9409043 C3.51110156,3.92494922 3.63066211,3.90476953 3.73033008,3.88955273 L2.59809375,2.87913281 C2.56737305,2.94803906 2.52459375,3.01038281 2.47184766,3.06292383 L2.501625,3.08954297 C2.91186328,3.45679688 3.23248242,3.74111719 3.46134961,3.9409043 Z" id="Path"></path>
                <path d="M0.924451172,2.28108398 L0.924451172,2.27525977 L0.889341797,2.27525977 C0.863460938,2.27525977 0.842542969,2.2543418 0.842542969,2.22846094 L0.842542969,2.03683594 C0.842542969,2.01095508 0.863501953,1.99003711 0.889341797,1.99003711 L0.924451172,1.99003711 L0.924451172,1.98421289 C0.924451172,1.95841406 0.903492188,1.93741406 0.877652344,1.93741406 L0.0875273438,1.93741406 C0.0616875,1.93741406 0.0407285156,1.95841406 0.0407285156,1.98421289 L0.0407285156,2.28124805 C0.0407285156,2.30704688 0.0616875,2.32804688 0.0875273438,2.32804688 L0.877611328,2.32804688 C0.903492188,2.32792383 0.924451172,2.30692383 0.924451172,2.28108398 Z" id="Path"></path>
                <polygon id="Path" points="1.12341797 2.15077667 1.12341797 2.11645269 1.12341797 2.08359375 0.936181641 2.08359375 0.936181641 2.18359375 1.12341797 2.18359375"></polygon>
                <path d="M2.92314258,1.86440625 L2.71379883,1.71219727 C2.69238867,1.74406641 2.6714707,1.77519727 2.65092187,1.80575391 L2.65092187,1.98995508 L2.84980664,1.98995508 C2.85472852,1.98154688 2.8814707,1.93601953 2.92314258,1.86440625 Z" id="Path"></path>
                <polygon id="Path" points="1.929375 1.22185547 2.49489844 1.22185547 2.37041602 1.08375586 2.05385742 1.08375586"></polygon>
                <rect id="Rectangle" x="1.86662109" y="1.31988281" width="1" height="1"></rect>
                <path d="M2.20906055,0.470080078 C2.16361523,0.470080078 2.12091797,0.464255859 2.0803125,0.455560547 L2.0803125,0.984785156 L2.34076172,0.984785156 L2.34076172,0.454945312 C2.29933594,0.464009766 2.2556543,0.470080078 2.20906055,0.470080078 Z" id="Path"></path>
                <path d="M1.86666211,1.80030273 L2.55424805,1.80030273 C2.55408398,1.79427511 2.55510937,1.78849863 2.5572832,1.78272216 L2.5572832,1.70030273 L1.86666211,1.70030273 L1.86666211,1.80030273 Z" id="Path"></path>
                <path d="M2.76613477,1.63451367 L2.97039258,1.78307227 C3.01099805,1.71293555 3.05923242,1.62926367 3.11177344,1.53718359 L2.91575977,1.41311133 C2.86473633,1.48845703 2.81473828,1.56236719 2.76613477,1.63451367 Z" id="Path"></path>
                <rect id="Rectangle" x="1.86662109" y="1.89205078" width="1" height="1"></rect>
                <path d="M3.15816211,1.45560352 C3.36,1.10028516 3.60387891,0.658833984 3.70432617,0.428613281 C3.78237891,0.249744141 3.81568359,0.154341797 3.82942383,0.103810547 C3.73480078,0.214880859 3.33891797,0.789058594 2.96825977,1.33542773 L3.15816211,1.45560352 Z" id="Path"></path>
            </g>
            <path d="M5.51582227,9.56632031 L4.90526367,9.00641602 C4.89500977,8.99698242 4.88122852,8.99242969 4.86732422,8.99452148 C4.86215625,8.99517773 4.85034375,8.99681836 4.83467578,8.99899219 C4.83385547,8.99813086 4.83348633,8.99698242 4.83258398,8.99616211 L3.61556836,7.91010938 C3.62795508,7.86171094 3.63529688,7.81134375 3.63529688,7.75921289 L3.63529688,7.40221289 L3.93052734,7.40221289 C3.96854883,7.45167773 4.02765234,7.48416211 4.09475391,7.48416211 C4.16185547,7.48416211 4.22095898,7.45171875 4.25893945,7.40221289 L4.40782617,7.40221289 L4.40782617,7.40803711 C4.40782617,7.48547461 4.47082617,7.54847461 4.54826367,7.54847461 L5.33834766,7.54847461 C5.41578516,7.54847461 5.47878516,7.48547461 5.47878516,7.40803711 L5.47878516,7.11100195 C5.47878516,7.03356445 5.41578516,6.97056445 5.33834766,6.97056445 L4.54826367,6.97056445 C4.47082617,6.97056445 4.40782617,7.03356445 4.40782617,7.11100195 L4.40782617,7.11682617 L4.25893945,7.11682617 C4.22095898,7.06736133 4.16181445,7.03491797 4.09475391,7.03491797 C4.04389453,7.03491797 3.99791602,7.05399023 3.96178125,7.08438281 C4.11960938,6.81421289 4.61540625,5.95792969 4.77462891,5.59305469 C4.94545898,5.20151953 4.93167773,5.15090625 4.89127734,5.11846289 C4.84870312,5.08437891 4.79476758,5.12358984 4.77442383,5.13851953 C4.696125,5.1954082 3.93643359,6.31771875 3.63537891,6.76495312 L3.63537891,6.39560742 C3.63537891,6.39458203 3.63488672,6.3937207 3.63476367,6.39269531 L3.63472266,6.39257227 C3.63365625,6.37674023 3.62479687,6.36349219 3.61179492,6.35586328 L3.41877539,6.14176172 L3.41877539,5.5531875 C3.53041992,5.50528125 3.60314062,5.4224707 3.60314062,5.32616602 C3.60314062,5.1744082 3.42316406,5.05538086 3.19343555,5.05538086 C2.96370703,5.05538086 2.78373047,5.17432617 2.78373047,5.32616602 C2.78373047,5.42329102 2.85780469,5.5064707 2.97100781,5.55421289 L2.97100781,6.14528906 L2.78163867,6.35533008 C2.76744727,6.36336914 2.75739844,6.37805273 2.75739844,6.39556641 L2.75739844,6.77709375 C2.46212695,6.33839063 1.68906445,5.19585938 1.61015039,5.1384375 C1.58968359,5.12363086 1.53578906,5.08441992 1.49325586,5.11838086 C1.45281445,5.15082422 1.43907422,5.20139648 1.6099043,5.59297266 C1.76408203,5.94628125 2.23366992,6.7601543 2.40667383,7.0567793 C2.3790293,7.04320312 2.34839062,7.03483594 2.31557813,7.03483594 C2.24847656,7.03483594 2.18937305,7.0672793 2.15139258,7.11674414 L2.00250586,7.11674414 L2.00250586,7.11091992 C2.00250586,7.03348242 1.93950586,6.97048242 1.86206836,6.97048242 L1.07190234,6.97048242 C0.994464844,6.97048242 0.931464844,7.03348242 0.931464844,7.11091992 L0.931464844,7.40795508 C0.931464844,7.48539258 0.994464844,7.54839258 1.07190234,7.54839258 L1.86198633,7.54839258 C1.93942383,7.54839258 2.00242383,7.48539258 2.00242383,7.40795508 L2.00242383,7.40213086 L2.15131055,7.40213086 C2.18933203,7.4515957 2.24843555,7.48408008 2.31549609,7.48408008 C2.38255664,7.48408008 2.44170117,7.45163672 2.47968164,7.40213086 L2.75731641,7.40213086 L2.75731641,7.61770898 C2.32324805,7.60839844 1.12153125,7.60700391 1.05570117,7.87069336 C1.04958984,7.89509766 1.04897461,7.93295508 1.08092578,7.97380664 C1.20758203,8.13602344 1.84951758,8.25443555 2.31516797,8.31706641 L1.55182617,8.99599805 C1.55092383,8.99685937 1.55051367,8.99800781 1.54969336,8.99891016 C1.53402539,8.99669531 1.52225391,8.99513672 1.51708594,8.99443945 C1.50297656,8.99242969 1.48935938,8.99690039 1.4791875,9.00633398 L0.868587891,9.56623828 C0.850130859,9.58305469 0.848244141,9.61147852 0.86428125,9.63071484 C0.884542969,9.65507812 0.935935547,9.66689063 1.00471875,9.66689063 C1.17394922,9.66689063 1.44854883,9.59470313 1.6235625,9.45803906 C1.76781445,9.34536914 2.16742969,8.99505469 2.811375,8.41669336 C2.83926562,8.39167383 2.85772266,8.3750625 2.86592578,8.36780273 L3.02666602,8.36780273 C3.16025391,8.36780273 3.28346484,8.32403906 3.38395312,8.25082617 L3.42361523,8.28626367 C4.16501367,8.94985547 4.61491406,9.34405664 4.76092969,9.45812109 C4.93598437,9.5949082 5.21046094,9.66697266 5.37969141,9.66697266 C5.44847461,9.66697266 5.49986719,9.65507812 5.52016992,9.63079687 C5.53616602,9.61156055 5.5342793,9.58317773 5.51582227,9.56632031 Z M2.85103711,8.27420508 L2.85103711,7.40221289 L3.54161719,7.40221289 L3.54161719,7.75921289 C3.54161719,8.04316406 3.31061719,8.27424609 3.02658398,8.27424609 L2.85103711,8.27424609 L2.85103711,8.27420508 Z M1.45523438,8.05694531 C1.30606055,8.01367383 1.19367773,7.96613672 1.15479492,7.91630273 C1.14425391,7.90276758 1.14589453,7.89624609 1.14655078,7.89345703 C1.15873242,7.84477148 1.27607813,7.80551953 1.45519336,7.7757832 L1.45523438,8.05694531 L1.45523438,8.05694531 L1.45523438,8.05694531 Z M1.57077539,5.23117383 C1.66708008,5.34470508 2.06201953,5.91744727 2.43173438,6.46242188 L2.24195508,6.58259766 C2.04011719,6.22723828 1.7962793,5.78582813 1.69579102,5.55560742 C1.61790234,5.37718945 1.58455664,5.28191016 1.57077539,5.23117383 Z M2.68631836,6.83915039 C2.71055859,6.87512109 2.73434766,6.91055859 2.75748047,6.94492969 L2.75748047,7.1169082 L2.55031055,7.1169082 C2.54538867,7.10854102 2.51864648,7.06297266 2.47701562,6.99140039 L2.68631836,6.83915039 Z M2.42972461,6.90998438 C2.38911914,6.83984766 2.34088477,6.75617578 2.28834375,6.6640957 L2.48435742,6.54002344 C2.53542188,6.61541016 2.58537891,6.68936133 2.63398242,6.7614668 L2.42972461,6.90998438 Z M2.77549023,7.71167578 L2.77549023,8.27256445 C2.74761236,8.27129297 2.71402877,8.26924219 2.67549023,8.26641211 L2.67549023,7.71019922 C2.70887362,7.71052734 2.74220695,7.71106055 2.77549023,7.71167578 Z M1.71568359,7.74292969 C1.96682227,7.71918164 2.2740293,7.70786133 2.58185156,7.70941992 L2.58185156,8.25722461 C2.35450195,8.23306641 2.01075,8.18458594 1.71568359,8.12125781 L1.71568359,7.74292969 Z M1.54891406,7.76191992 C1.58127525,7.75876172 1.6145338,7.75576758 1.64891406,7.75285547 L1.64891406,8.10038086 C1.61470206,8.09447461 1.58149959,8.08848633 1.54891406,8.082375 C1.54891406,8.08233398 1.54891406,7.76191992 1.54891406,7.76191992 Z M2.43850195,8.33293945 C2.56105664,8.34791016 2.66367773,8.35820508 2.73049219,8.36353711 C2.40080859,8.65954688 2.13601172,8.89501758 1.93864453,9.06773438 C1.88881055,9.05186133 1.76949609,9.03168164 1.66995117,9.01646484 L2.43850195,8.33293945 Z M1.85238867,9.14291602 C1.71777539,9.25989258 1.62204492,9.34048828 1.56593555,9.38433398 C1.38501563,9.52571484 1.11775781,9.57382617 0.996064453,9.57636914 L1.52623242,9.09025195 C1.60797656,9.10153125 1.76108789,9.12417187 1.85238867,9.14291602 Z M2.52332227,7.31050503 L2.52332227,7.27765985 L2.52332227,7.24335022 L2.52332227,7.21054688 L3.88692773,7.21054688 L3.88692773,7.24339206 L3.88692773,7.27770169 L3.88692773,7.31054688 L2.52332227,7.31054688 L2.52332227,7.31050503 Z M3.50946094,5.32624805 C3.50946094,5.42226563 3.36475781,5.50339453 3.19343555,5.50339453 C3.02207227,5.50339453 2.87741016,5.42230664 2.87741016,5.32624805 C2.87741016,5.23023047 3.02211328,5.14910156 3.19343555,5.14910156 C3.36479883,5.14910156 3.50946094,5.23023047 3.50946094,5.32624805 Z M2.85103711,6.73558984 L2.85103711,6.63558984 L3.54161719,6.63558984 L3.54161719,6.73558984 L2.85103711,6.73558984 L2.85103711,6.73558984 Z M3.5416582,6.82721646 L3.5416582,6.90956694 C3.53952539,6.91538041 3.5385,6.92115205 3.53862305,6.92713281 L2.85103711,6.92713281 L2.85103711,6.82713281 L3.5416582,6.82713281 L3.5416582,6.82721646 Z M2.85103711,6.54683594 L2.85103711,6.44683594 L3.54161719,6.44683594 L3.54161719,6.54683594 L2.85103711,6.54683594 Z M3.35479102,6.21070898 L3.47927344,6.34880859 L2.91375,6.34880859 L3.03823242,6.21070898 L3.35479102,6.21070898 Z M3.0646875,6.11173828 L3.0646875,5.58251367 C3.10529297,5.59116797 3.14799023,5.5970332 3.19343555,5.5970332 C3.2400293,5.5970332 3.28371094,5.59104492 3.3250957,5.58198047 L3.3250957,6.11182031 L3.06464648,6.11182031 L3.0646875,6.11173828 L3.0646875,6.11173828 Z M2.85103711,7.01883984 L3.54161719,7.01883984 L3.54161719,7.11883984 L2.85103711,7.11883984 L2.85103711,7.01883984 Z M4.68870117,5.55560742 C4.58825391,5.78582813 4.344375,6.2272793 4.14253711,6.58259766 L3.95275781,6.46242188 C4.323375,5.91605273 4.7192168,5.341875 4.81392188,5.23080469 C4.80009961,5.28133594 4.76675391,5.37673828 4.68870117,5.55560742 Z M4.20881836,7.24274414 L4.20881836,7.27637695 C4.20881836,7.33925391 4.15763086,7.39052344 4.09467188,7.39052344 C4.03171289,7.39052344 3.98052539,7.33933594 3.98052539,7.27637695 L3.98052539,7.24274414 C3.98052539,7.17978516 4.03171289,7.12859766 4.09467188,7.12859766 C4.15758984,7.12859766 4.20881836,7.17978516 4.20881836,7.24274414 Z M3.95472656,6.90998438 L3.75046875,6.76142578 C3.79907227,6.68932031 3.8490293,6.61541016 3.90009375,6.53998242 L4.09610742,6.66405469 C4.04356641,6.75617578 3.99533203,6.83988867 3.95472656,6.90998438 Z M3.63529688,6.93270703 C3.6558457,6.90215039 3.67672266,6.87106055 3.69817383,6.83915039 L3.90751758,6.99135938 C3.8658457,7.06297266 3.83910352,7.10854102 3.83418164,7.11686719 L3.63529688,7.11686719 C3.63529688,7.11686719 3.63529688,6.93270703 3.63529688,6.93270703 Z M3.58246875,8.00608594 L4.71470508,9.01650586 C4.61499609,9.03172266 4.49543555,9.05194336 4.44572461,9.06785742 C4.21685742,8.86807031 3.8962793,8.58375 3.486,8.21649609 L3.45622266,8.18987695 C3.50896875,8.13733594 3.55174805,8.07499219 3.58246875,8.00608594 Z M4.85817773,9.09025195 L5.38543359,9.57370312 C5.25836719,9.57222656 4.99660547,9.52345898 4.81855664,9.38441602 C4.7649082,9.34245703 4.66921875,9.26182031 4.53210352,9.14291602 C4.6234043,9.12417187 4.77651563,9.10153125 4.85817773,9.09025195 Z M5.3851875,7.11104297 L5.3851875,7.40807812 C5.3851875,7.43387695 5.36422852,7.45487695 5.33838867,7.45487695 L4.54830469,7.45487695 C4.52246484,7.45487695 4.50150586,7.43387695 4.50150586,7.40807812 L4.50150586,7.40225391 L4.53661523,7.40225391 C4.56249609,7.40225391 4.58341406,7.38133594 4.58341406,7.35545508 L4.58341406,7.16383008 C4.58341406,7.13794922 4.56245508,7.11703125 4.53661523,7.11703125 L4.50150586,7.11703125 L4.50150586,7.11120703 C4.50150586,7.0854082 4.52246484,7.06440672 4.54830469,7.06440672 L5.33838867,7.06440672 C5.36414648,7.06420312 5.3851875,7.08528516 5.3851875,7.11104297 Z M4.48973438,7.31054688 L4.30245703,7.31054688 L4.30245703,7.27768794 L4.30245703,7.24336395 L4.30245703,7.21054688 L4.48973438,7.21054688 L4.48973438,7.31054688 Z M1.02510352,7.40803711 L1.02510352,7.11100195 C1.02510352,7.08520313 1.0460625,7.06420313 1.07190234,7.06420313 L1.86198633,7.06420313 C1.88782617,7.06420313 1.90878516,7.08520313 1.90878516,7.11100195 L1.90878516,7.11682617 L1.87367578,7.11682617 C1.84779492,7.11682617 1.82687695,7.13778516 1.82687695,7.163625 L1.82687695,7.35525 C1.82687695,7.38113086 1.84783594,7.40204883 1.87367578,7.40204883 L1.90878516,7.40204883 L1.90878516,7.40787305 C1.90878516,7.43367187 1.88782617,7.45467336 1.86198633,7.45467336 L1.07190234,7.45467336 C1.0460625,7.45487695 1.02510352,7.43387695 1.02510352,7.40803711 Z M1.92055664,7.21054688 L2.10783398,7.21054688 L2.10783398,7.24339206 L2.10783398,7.27770169 L2.10783398,7.31054688 L1.92055664,7.31054688 C1.92055664,7.31050503 1.92055664,7.21054688 1.92055664,7.21054688 Z M2.42968359,7.27637695 C2.42968359,7.33925391 2.37849609,7.39052344 2.31553711,7.39052344 C2.25266016,7.39052344 2.20139063,7.33933594 2.20139063,7.27637695 L2.20139063,7.24274414 C2.20139063,7.17978516 2.25257813,7.12859766 2.31553711,7.12859766 C2.37849609,7.12859766 2.42968359,7.17978516 2.42968359,7.24274414 L2.42968359,7.27637695 Z" id="Shape" fill="#D23741"></path>
        </g>
    </g>
</svg>