<?xml version="1.0" encoding="UTF-8"?>
<svg width="34px" height="21px" viewBox="0 0 34 21" version="1.1" xmlns="http://www.w3.org/2000/svg" xmlns:xlink="http://www.w3.org/1999/xlink">
    <title>flags/ksa</title>
    <g id="flags/ksa" stroke="none" stroke-width="1" fill="none" fill-rule="evenodd">
        <g id="flaticon1589995512-svg" fill-rule="nonzero">
            <path d="M0.0241171875,15.0279199 L0.0226405838,5.97523828 C0.0226405838,5.4581543 0.298347656,4.98032227 0.746115234,4.72171875 L8.58518555,0.194003906 C9.03295313,-0.0645996094 9.5846543,-0.0646816406 10.0325039,0.193757812 L17.8730918,4.71880664 C18.3209004,4.97728711 18.5968535,5.45503711 18.5969766,5.97212109 L18.5984532,15.0248027 C18.5984532,15.5418867 18.3227461,16.0197187 17.8749785,16.2783223 L10.0358672,20.8059551 C9.58809961,21.0645996 9.03639844,21.0646406 8.58854883,20.8062012 L0.748001953,16.2812344 C0.300111328,16.0227539 0.0241992187,15.5449629 0.0241171875,15.0279199 Z" id="Path" fill="#73AF00"></path>
            <g id="Group" transform="translate(2.748047, 6.398438)" fill="#F5F5F5">
                <path d="M0.221484375,1.83430078 C0.258234375,2.06993555 0.400681641,2.14388672 0.524548828,2.13428906 C0.670564453,2.12296875 0.79865625,1.98938086 0.79865625,1.84836914 L0.79865625,1.03962305 C0.79865625,0.999140625 0.831632813,0.966123047 0.87215625,0.966123047 C0.912679688,0.966123047 0.945697266,0.999140625 0.945697266,1.03962305 L0.945697266,1.85181445 C0.945697266,1.94947266 0.993931641,2.04048633 1.07485547,2.09524219 C1.1242793,2.12871094 1.1817832,2.1459375 1.23969727,2.1459375 C1.27661133,2.1459375 1.31364844,2.13892383 1.34896289,2.12481445 L1.42246289,2.09540625 C1.42923047,2.77421484 1.38792773,3.37091016 1.38714844,3.38186133 C1.38140625,3.46282617 1.44235547,3.53320898 1.52332031,3.53895117 C1.52688867,3.53923828 1.53045703,3.53936133 1.53394336,3.53936133 C1.61039648,3.53936133 1.67495508,3.4802168 1.68049219,3.40282031 C1.6839375,3.35499609 1.72921875,2.7016582 1.71564258,1.97810156 L1.7600625,1.96038281 C1.79906836,1.94483789 1.84279102,1.94676563 1.88023828,1.96538672 C2.04220898,2.04606445 2.23707422,2.01464648 2.365125,1.88671875 L2.39162109,1.86030469 C2.51044336,1.74123633 2.55129492,1.56835547 2.49809766,1.4088457 L2.37287695,1.03318359 C2.44059375,1.05356836 2.51495508,1.02354492 2.54764453,0.958330078 C2.58398437,0.885650391 2.55449414,0.79734375 2.48189648,0.761044922 L2.18777344,0.614003906 C2.13457617,0.587302734 2.07075586,0.595505859 2.02563867,0.634388672 C1.98068555,0.673435547 1.96366406,0.735615234 1.98249023,0.792052734 L2.21906836,1.50182813 C2.23678711,1.55498438 2.22316992,1.61269336 2.18358984,1.65231445 L2.15717578,1.67872852 C2.11882617,1.71707813 2.06046094,1.72638867 2.01165234,1.70227148 C1.91633203,1.65465234 1.8078457,1.64575195 1.70608594,1.67171484 C1.68541406,1.19974805 1.6345957,0.72975 1.52631445,0.404865234 C1.50067969,0.327878906 1.41754102,0.286125 1.34030859,0.311923828 C1.26328125,0.337517578 1.22160937,0.420779297 1.24732617,0.497888672 C1.35326953,0.815636719 1.39945312,1.29982617 1.41581836,1.78130859 L1.23982031,1.85173242 L1.23982031,1.03954102 C1.23982031,0.836759766 1.07489648,0.671917969 0.872197266,0.671917969 C0.669539063,0.671917969 0.504574219,0.836759766 0.504574219,1.03954102 L0.504574219,1.75132617 L0.354580078,1.01037891 C0.338583984,0.930685547 0.261105469,0.87871875 0.181330078,0.895371094 C0.10171875,0.911613281 0.050203125,0.989132813 0.0663632813,1.06870313 L0.221484375,1.83430078 Z" id="Path"></path>
                <path d="M0.504533203,0.598458984 C0.585703125,0.598458984 0.651574219,0.532710938 0.651574219,0.451417969 L0.651574219,0.304376953 C0.651574219,0.223083984 0.585744141,0.157335937 0.504533203,0.157335937 C0.423363281,0.157335937 0.357492188,0.223083984 0.357492188,0.304376953 L0.357492188,0.451417969 C0.357492188,0.532710938 0.423363281,0.598458984 0.504533203,0.598458984 Z" id="Path"></path>
                <path d="M1.97498437,0.451417969 L2.12202539,0.451417969 C2.20319531,0.451417969 2.26906641,0.385669922 2.26906641,0.304376953 C2.26906641,0.223083984 2.20319531,0.157335937 2.12202539,0.157335937 L1.97498437,0.157335937 C1.89381445,0.157335937 1.82794334,0.223083984 1.82794334,0.304376953 C1.82790234,0.385628906 1.89377344,0.451417969 1.97498437,0.451417969 Z" id="Path"></path>
                <path d="M1.01706445,2.38395117 L0.281859375,2.82511523 C0.212214844,2.86686914 0.18965625,2.95718555 0.231492188,3.02687109 C0.259054688,3.07284961 0.307740234,3.09823828 0.357738281,3.09823828 C0.383537109,3.09823828 0.409541016,3.0914707 0.433289063,3.0772793 L1.16849414,2.63615625 C1.23813867,2.59440234 1.26069727,2.50400391 1.21886133,2.43440039 C1.17702539,2.36479688 1.08675,2.34215625 1.01706445,2.38395117 Z" id="Path"></path>
                <path d="M2.99947266,2.64407227 L3.00291797,2.64173438 C3.01526367,2.6914043 3.03642773,2.73951563 3.07079883,2.779875 C3.13051758,2.85025781 3.22017773,2.88557227 3.3214043,2.87720508 C3.46504102,2.86674609 3.5626582,2.80108008 3.62725781,2.71638281 C3.63710156,2.72315039 3.6474375,2.72930273 3.65826563,2.73479883 C3.73775391,2.77487109 3.82966992,2.77187695 3.91715625,2.72643164 C4.13933789,2.61199805 4.18728516,2.34720117 4.18051758,2.20873242 C4.17658008,2.12801367 4.10791992,2.07100195 4.02748828,2.06940234 C3.94672852,2.07284766 3.88385156,2.14138477 3.88680469,2.22202148 C3.8868457,2.22386719 3.89016797,2.39834766 3.78348633,2.46311133 C3.7660957,2.43887109 3.74546484,2.3842793 3.73767188,2.33916211 C3.72528516,2.2635293 3.65576367,2.2107832 3.58095117,2.2168125 C3.50470313,2.2228418 3.4458457,2.28686719 3.44551758,2.36340234 C3.44547656,2.38477148 3.44071875,2.57348438 3.29503125,2.58927539 C3.27805078,2.56614258 3.27780469,2.4688125 3.29445703,2.39687109 C3.30856641,2.33780859 3.28481836,2.27628516 3.23494336,2.24179102 C3.1849043,2.20717383 3.11891016,2.20717383 3.06870703,2.2412168 L2.98663477,2.29703906 C2.94766992,1.4442832 2.85788672,0.450597656 2.85673828,0.437882812 C2.84939648,0.357164062 2.77831641,0.297035156 2.69698242,0.304787109 C2.61605859,0.312128906 2.55650391,0.383619141 2.56380469,0.464583984 C2.56507617,0.478160156 2.66892773,1.62786914 2.70096094,2.50584961 C2.69349609,2.51298633 2.68570312,2.52082031 2.67832031,2.52766992 C2.62016016,2.38103906 2.50490625,2.28871289 2.35642969,2.27460352 C2.14688086,2.25610547 1.91990039,2.39867578 1.83852539,2.60227734 C1.76834766,2.77745508 1.81252148,2.94963867 1.95099023,3.04081641 C2.05053516,3.10644141 2.20069336,3.12711328 2.3895293,3.06091406 C2.34346875,3.22288477 2.25950977,3.38715234 2.15036719,3.51425977 C2.05266797,3.62816016 1.8894668,3.7595332 1.68061523,3.75362695 C1.55904492,3.74891016 1.46565234,3.709125 1.39506445,3.63185156 C1.22484961,3.44588672 1.23945117,3.1093125 1.23961523,3.10570313 C1.24388086,3.02473828 1.1817832,2.95562695 1.10090039,2.95123828 C1.01940234,2.942625 0.950414062,3.0087832 0.945943359,3.08995313 C0.944917969,3.10861523 0.923589844,3.55088672 1.17686133,3.82905469 C1.30150781,3.96621094 1.46712891,4.03954688 1.66913086,4.04746289 C1.67897461,4.04787305 1.68881836,4.04803711 1.69870312,4.04803711 C1.94467383,4.04803711 2.18334375,3.92745117 2.37349219,3.70584375 C2.55232031,3.49760742 2.67372656,3.21476367 2.71018945,2.95218164 C2.70973828,3.45519727 2.4065918,4.02256641 2.00463867,4.27251563 C1.83397266,4.3785 1.5679043,4.47414844 1.26816211,4.32636914 C0.898652344,4.14401367 0.942703125,3.72167578 0.944630859,3.70444922 C0.954720703,3.62389453 0.897544922,3.55039453 0.816949219,3.5403457 C0.736722656,3.53054297 0.6628125,3.58730859 0.652845703,3.66802734 C0.649564453,3.69431836 0.578894531,4.3141875 1.13810156,4.59005859 C1.28173828,4.66101563 1.43189648,4.69616602 1.58324414,4.69616602 C1.7776582,4.69616602 1.97391797,4.63800586 2.15992383,4.52225977 C2.64924023,4.21812891 3.00439453,3.55728516 3.00439453,2.9510332 C3.00427148,2.8565332 3.0024668,2.75292773 2.99947266,2.64407227 Z M2.11283789,2.79566602 C2.08654688,2.77827539 2.1070957,2.72274023 2.11156641,2.71166602 C2.1425332,2.63410547 2.23933008,2.56708594 2.31672656,2.56708594 C2.32066406,2.56708594 2.32468359,2.56725 2.32858008,2.56766016 C2.34740625,2.56938281 2.39732227,2.57409961 2.41873242,2.68512891 C2.4210293,2.69690039 2.42299805,2.70895898 2.42447461,2.72130469 C2.26061719,2.81744531 2.15073633,2.82048047 2.11283789,2.79566602 Z" id="Shape"></path>
                <path d="M0.578771484,4.14807422 C0.509126953,4.10718164 0.419097656,4.13056055 0.377753906,4.20020508 C0.370986328,4.21152539 0.362003906,4.22387109 0.352898438,4.23510938 C0.351298828,4.23137695 0.349740234,4.22735742 0.348181641,4.22305078 C0.286863281,4.05948047 0.330503906,3.80748047 0.352570313,3.72417773 C0.373324219,3.64575586 0.326648438,3.56532422 0.248267578,3.54436523 C0.170009766,3.52426758 0.0895371094,3.56995898 0.0684550781,3.64829883 C0.05775,3.68808398 -0.0326074219,4.04508398 0.0727617188,4.32620508 C0.140273438,4.50601758 0.243837891,4.55138086 0.3189375,4.5575332 C0.325582031,4.55810742 0.332226563,4.55839453 0.338789063,4.55839453 C0.497109375,4.55839453 0.6024375,4.39884375 0.631722656,4.3483125 C0.672369141,4.27829883 0.648580078,4.18913086 0.578771484,4.14807422 Z" id="Path"></path>
                <path d="M3.29232422,1.48070508 C3.32415234,1.48070508 3.35614453,1.47049219 3.3830918,1.44924609 L4.1244082,0.867234375 C4.13462109,0.859236328 4.14118359,0.848695313 4.14864844,0.838769531 C4.25541211,0.774375 4.32768164,0.658382813 4.32768164,0.524876953 C4.32768164,0.322095703 4.16275781,0.157253906 3.96005859,0.157253906 C3.75740039,0.157253906 3.59243555,0.322095703 3.59243555,0.524876953 C3.59243555,0.638285156 3.64519135,0.738609375 3.72610547,0.806080078 L3.20139258,1.21804102 C3.13757227,1.26816211 3.12645703,1.36065234 3.17653711,1.42439063 C3.20561719,1.46150977 3.24876562,1.48070508 3.29232422,1.48070508 Z M3.96009961,0.451417969 C4.00062305,0.451417969 4.03359961,0.484435547 4.03359961,0.524917969 C4.03359961,0.565400391 4.00062305,0.598417969 3.96009961,0.598417969 C3.91949414,0.598417969 3.88659957,0.565400391 3.88659957,0.524917969 C3.88655859,0.484476563 3.91949414,0.451417969 3.96009961,0.451417969 Z" id="Shape"></path>
                <path d="M3.7860293,1.34129297 C3.7085918,1.31545312 3.6256582,1.35724805 3.60002344,1.43423437 C3.58427344,1.48132031 3.51319336,1.72388672 3.65732227,1.86789258 C3.71322656,1.92391992 3.78680859,1.95189258 3.87700195,1.95172923 C3.93733594,1.95172923 4.00509375,1.93938281 4.08011133,1.91428125 C4.15713867,1.8886875 4.19881055,1.80542578 4.17309375,1.72831641 C4.14741797,1.65133008 4.06423828,1.60941211 3.98704687,1.635375 C3.90489258,1.66265039 3.87015234,1.65817969 3.86699414,1.66105078 C3.85833984,1.63923047 3.86408203,1.57360547 3.87913477,1.52664258 C3.90448242,1.44986133 3.86285156,1.36688672 3.7860293,1.34129297 Z" id="Path"></path>
                <path d="M5.46890039,0.733482422 C5.48268164,0.737542969 5.49654492,0.739388672 5.51016211,0.739388672 C5.57381836,0.739388672 5.63251172,0.697716797 5.65125586,0.633527344 L5.73706055,0.339404297 C5.75982422,0.261433594 5.71503516,0.179730469 5.63710547,0.157048828 C5.55892969,0.134490234 5.47751367,0.179033203 5.45475,0.257003906 L5.36894531,0.551126953 C5.34618164,0.629056641 5.39105273,0.710759766 5.46890039,0.733482422 Z" id="Path"></path>
                <path d="M4.61187891,0.716255859 C4.6352168,0.729873047 4.66076953,0.736353516 4.68599414,0.736353516 C4.73652539,0.736353516 4.78574414,0.710349609 4.81306055,0.663550781 C4.85407617,0.593496094 4.83045117,0.503261719 4.76035547,0.462369141 C4.7307832,0.445142578 4.73476172,0.396457031 4.73586914,0.386818359 C4.7402168,0.348181641 4.76330859,0.301054687 4.80338086,0.288626953 C4.88094141,0.26446875 4.92417187,0.182068359 4.9000957,0.104507812 C4.87585547,0.0268242187 4.79353711,-0.016078125 4.71593555,0.00775195312 C4.5693457,0.0534023437 4.46245898,0.189082031 4.44367383,0.353349609 C4.42620117,0.506296875 4.49067773,0.645298828 4.61187891,0.716255859 Z" id="Path"></path>
                <path d="M3.44543555,3.09823828 C3.36426562,3.09823828 3.29839453,3.16398633 3.29839453,3.2452793 C3.29839453,3.31709766 3.34978711,3.37681641 3.41787305,3.38973633 C3.425625,3.40105664 3.44543555,3.43998047 3.44543555,3.53936133 C3.44543555,3.6206543 3.51130664,3.68640234 3.59247656,3.68640234 C3.67364648,3.68640234 3.73951758,3.6206543 3.73951758,3.53936133 C3.73947656,3.1032832 3.45741211,3.09823828 3.44543555,3.09823828 Z" id="Path"></path>
                <path d="M5.94008789,2.48936133 C5.95854492,2.49239648 5.97691992,2.49383203 5.99537695,2.49383203 C6.11091797,2.49383203 6.22764844,2.43550781 6.34323047,2.31992578 C6.40069336,2.26246289 6.40069336,2.16943945 6.34323047,2.11197656 C6.28576758,2.05451367 6.19274414,2.05451367 6.13528125,2.11197656 C6.04734375,2.19999609 6.00001172,2.20188281 5.98787109,2.19917578 C5.95977539,2.19519727 5.9343457,2.1585293 5.92872656,2.14848047 C5.8918125,2.07699023 5.80436719,2.04836133 5.73238477,2.08445508 C5.65970508,2.12079492 5.63029687,2.20910156 5.66663672,2.28174023 C5.67570117,2.29995117 5.76064453,2.46019922 5.94008789,2.48936133 Z" id="Path"></path>
                <path d="M8.43953906,1.45601367 C8.4385957,1.4537168 8.43773438,1.45154297 8.43703711,1.44957422 C8.41099219,1.37320312 8.32773047,1.33169531 8.25144141,1.3576582 C8.17437305,1.38325195 8.13270117,1.46651367 8.15841797,1.54362305 C8.16990234,1.57807617 8.2354043,1.75099805 8.39762109,1.77277734 C8.40849023,1.77421289 8.41923633,1.77491016 8.42990039,1.77491016 C8.5317832,1.77491016 8.62734961,1.70899805 8.71430273,1.57860937 C8.75929688,1.51109766 8.74104492,1.41975586 8.67349219,1.3747207 C8.60581641,1.32976758 8.51455664,1.34785547 8.46960352,1.41553125 C8.45795508,1.43288086 8.44790625,1.44612891 8.43953906,1.45601367 Z" id="Path"></path>
                <path d="M8.15083008,4.12748438 C8.15083008,3.5004375 8.12326758,2.91215039 8.085,2.39674805 C8.29381055,2.758875 8.48162109,3.12477539 8.60130469,3.44395898 C8.62349414,3.50293945 8.67948047,3.5392793 8.73903516,3.5392793 C8.7562207,3.5392793 8.77365234,3.53624414 8.79063281,3.52996875 C8.86667578,3.50138086 8.90523047,3.41668359 8.87672461,3.34059961 C8.6905957,2.84443359 8.35607227,2.25348047 8.02634766,1.72893164 C7.94591602,0.936837891 7.85596875,0.434068359 7.85436914,0.425126953 C7.83984961,0.345105469 7.76347852,0.291128906 7.68341602,0.306796875 C7.60351758,0.321316406 7.55052539,0.397810547 7.56500391,0.477667969 C7.56619336,0.484066406 7.6125,0.743080078 7.66787109,1.17895313 C7.55491406,1.01128125 7.44991406,0.860056641 7.36189453,0.735574219 L7.36907227,0.737871094 C7.44655078,0.763710938 7.52940234,0.721916016 7.55511914,0.644929688 C7.58083594,0.567779297 7.53916406,0.484558594 7.46213672,0.458964844 L7.02101367,0.311923828 C6.95985938,0.291251953 6.8927168,0.313113281 6.85526953,0.365326172 C6.8452207,0.379271484 6.83837109,0.394529297 6.83377734,0.410361328 C6.7457168,0.345269531 6.6328418,0.292359375 6.52685742,0.336697266 C6.46275,0.363234375 6.38637891,0.430171875 6.38637891,0.598376953 C6.38637891,0.727494141 6.43563867,0.867070313 6.48781055,1.01497266 C6.57439453,1.26024609 6.62861719,1.4405918 6.53690625,1.52660156 C6.48621094,1.57409766 6.43555664,1.5920625 6.38621484,1.57959375 C6.2955293,1.556625 6.20578711,1.435875 6.14598633,1.25647266 C6.14336133,1.24867969 6.13794727,1.24306055 6.13425586,1.23600586 C6.16518164,1.00824609 6.1516875,0.733810547 6.08942578,0.422419922 C6.07355273,0.342726563 5.9962793,0.290882813 5.91638086,0.307083984 C5.83676953,0.323039063 5.78513086,0.400435547 5.80104492,0.480128906 C5.8970625,0.960339844 5.86822852,1.35203906 5.72401758,1.52795508 C5.66823633,1.59604102 5.59838672,1.62758203 5.5040918,1.62758203 C5.47431445,1.62758203 5.4539707,1.61810742 5.43370898,1.59481055 C5.31767578,1.46114063 5.31816797,1.0297793 5.35561523,0.765966797 C5.3615625,0.723884766 5.3489707,0.681105469 5.32099805,0.648949219 C5.29306641,0.616751953 5.25258398,0.598253906 5.20996875,0.598253906 C4.95698438,0.598253906 4.86100781,0.886019531 4.77639258,1.13990625 C4.73927344,1.25150977 4.67003906,1.4589668 4.62180469,1.4805 C4.53275977,1.4805 4.47525586,1.21914844 4.47476367,1.03925391 C4.47455859,0.958125 4.40881055,0.8925 4.32772266,0.8925 C4.32772266,0.8925 4.32755859,0.8925 4.32751758,0.8925 C4.24638867,0.8925 4.18068164,0.958248047 4.18068164,1.03941797 C4.18068164,1.37857617 4.29622266,1.77462305 4.6218457,1.77462305 C4.86428906,1.77462305 4.96252148,1.51040039 5.04475781,1.26483984 C5.05907227,1.46011523 5.10312305,1.66248633 5.21152734,1.78737891 C5.28769336,1.87527539 5.38887891,1.92162305 5.5040918,1.92162305 C5.68558594,1.92162305 5.84029688,1.84996875 5.9514082,1.71441211 C5.97154688,1.68984375 5.9889375,1.66170703 6.006,1.6332832 C6.09139453,1.75464844 6.19610742,1.83471094 6.31415039,1.86448828 C6.34876758,1.87326563 6.38358984,1.87769531 6.41804297,1.87769531 C6.53157422,1.87769531 6.64248047,1.83089648 6.73829297,1.74082617 C6.75822656,1.72212305 6.77221289,1.70161523 6.78738867,1.68151758 C6.82331836,1.6918125 6.85982227,1.69792383 6.89599805,1.69792383 C7.01510742,1.69792383 7.12978711,1.64993555 7.2009082,1.60428516 C7.26899414,1.56060352 7.28864063,1.47045117 7.24541016,1.40207813 C7.20209766,1.33386914 7.11149414,1.31344336 7.04295703,1.35626367 C7.04172656,1.35683789 6.94353516,1.41327539 6.87647461,1.40006836 C6.87667969,1.23887695 6.81831445,1.06767773 6.76507617,0.916822266 C6.73476563,0.830976563 6.70367578,0.742916016 6.68907422,0.671015625 C6.70121484,0.681228516 6.71306836,0.691810547 6.72360938,0.7021875 C6.7809082,0.759650391 6.87405469,0.759650391 6.93143555,0.7021875 C6.94091016,0.692712891 6.94644727,0.681105469 6.95280469,0.669990234 C7.10521875,0.879990234 7.41870117,1.32119531 7.74116602,1.82987109 C7.80273047,2.45503125 7.85678906,3.25262109 7.85678906,4.1272793 C7.85678906,4.20857227 7.92266016,4.27432049 8.00383008,4.27432049 C8.08512305,4.27444336 8.15083008,4.20877734 8.15083008,4.12748438 Z" id="Path"></path>
                <path d="M8.29783008,0.892582031 C8.29783008,0.973875 8.36370117,1.03962305 8.44487109,1.03962305 C8.52604102,1.03962305 8.59191211,0.973875 8.59191211,0.892582031 C8.59191211,0.719537109 8.45647852,0.439933594 8.42936719,0.385669922 C8.39302734,0.313154297 8.30480273,0.283869141 8.23208203,0.319921875 C8.15940234,0.356261719 8.12999414,0.444568359 8.16633398,0.517207031 C8.21936719,0.623314453 8.29783008,0.815882812 8.29783008,0.892582031 Z" id="Path"></path>
                <path d="M7.62874219,4.14360352 C7.55667773,4.10685352 7.46804297,4.13601562 7.431375,4.2084082 C7.41558398,4.23925195 7.39109766,4.27362305 7.37042578,4.29568945 C7.36386328,4.23724219 7.37944922,4.12051172 7.40914453,4.02371484 C7.42887305,3.95907422 7.40213086,3.88930664 7.34425781,3.85456641 C7.28658984,3.81966211 7.21226953,3.82872656 7.16460938,3.87655078 L6.87048633,4.17067383 C6.81302344,4.22813672 6.81302344,4.32116016 6.87048633,4.37862305 C6.92794922,4.43608594 7.02097266,4.43608594 7.07843555,4.37862305 L7.08590039,4.3711582 C7.09861523,4.4302207 7.12297852,4.4840332 7.16456836,4.52562305 C7.21973438,4.58078906 7.28634375,4.60995117 7.35566016,4.60995117 C7.36907227,4.60995117 7.38256641,4.60884375 7.39610156,4.60666992 C7.56266602,4.57964062 7.66635352,4.39601367 7.69420312,4.3404375 C7.73033789,4.26783984 7.70109375,4.18010742 7.62874219,4.14360352 Z" id="Path"></path>
                <path d="M7.57185352,2.96038477 L6.53551172,2.96038477 C6.54469922,2.92379883 6.55417383,2.88889453 6.5638125,2.85571289 C6.97708594,2.76986719 7.2226875,2.63644336 7.29491602,2.45839453 C7.31989453,2.396625 7.34598047,2.27185547 7.23962695,2.12842383 C7.14377344,1.99922461 7.00846289,1.9411875 6.86790234,1.96989844 C6.65896875,2.01226758 6.47275781,2.23740234 6.33916992,2.59784766 C5.92405078,2.66892773 5.65835156,2.8179375 5.4901875,2.96497852 C5.43050977,2.36241797 5.19659766,2.00443359 5.18527734,1.98745312 C5.14016016,1.91977734 5.04890039,1.90160742 4.98138867,1.94664258 C4.91383594,1.99175977 4.89558398,2.0829375 4.94057812,2.15053125 C4.94324414,2.1545918 5.20996875,2.5625332 5.20996875,3.24536133 C5.20996875,3.91654102 4.67475586,4.42173047 4.32772266,4.42173047 C4.16259375,4.42173047 4.09036523,4.2254707 4.05857812,4.0595625 C4.39839258,3.82138477 4.69825781,3.5458418 4.76445703,3.28100391 C4.85403516,2.92273242 4.7412832,2.65867383 4.66667578,2.48386523 C4.66314844,2.47582617 4.65949805,2.46721289 4.65576562,2.45827148 C4.65892383,2.46114258 4.66191797,2.46417773 4.66495312,2.46704883 C4.72225195,2.52451172 4.81539844,2.52451172 4.8727793,2.46704883 C4.93024219,2.40958594 4.93024219,2.3165625 4.8727793,2.25909961 C4.78681055,2.17308984 4.61987695,2.03798437 4.46816016,2.10143555 C4.40405273,2.12797266 4.32768164,2.19491016 4.32768164,2.36311523 C4.32768164,2.43907617 4.35942773,2.51327344 4.39617773,2.59944727 C4.46241797,2.7544043 4.54473633,2.94721875 4.47911133,3.20975977 C4.44026953,3.36504492 4.24950586,3.55351172 3.99783398,3.740625 C3.97088672,3.70838672 3.93188086,3.68664844 3.88659961,3.68664844 L3.88639453,3.68664844 C3.80526562,3.6868125 3.73955859,3.75239648 3.73955859,3.83356641 C3.73955859,3.86002148 3.74066602,3.88832227 3.74242969,3.91732031 C3.42775781,4.12112695 3.07166016,4.3097168 2.7964043,4.4349375 C2.72253516,4.46857031 2.6898457,4.5556875 2.72347852,4.62963867 C2.74808789,4.6837793 2.80153125,4.7158125 2.85735352,4.7158125 C2.87773828,4.7158125 2.89841016,4.71166992 2.91809766,4.70260547 C3.00078516,4.66503516 3.39318164,4.4821875 3.79632422,4.23232031 C3.8705625,4.48440234 4.02789844,4.71577148 4.32772266,4.71577148 C4.68045703,4.71577148 5.08064648,4.42730859 5.31160547,3.99664453 C5.33949609,4.0459043 5.3715293,4.09307227 5.40971484,4.13708203 C5.77983984,4.56384961 6.50278125,4.56877148 6.53337891,4.56877148 C6.61258008,4.56877148 6.6774668,4.50618164 6.68033789,4.4270625 C6.68316797,4.34794336 6.62283398,4.28071875 6.54396094,4.27514062 C6.54285352,4.27497656 6.42563086,4.26205664 6.36041602,4.18597266 C6.32104102,4.14003516 6.30537305,4.07683008 6.3123457,3.99283008 C6.32739844,3.81158203 6.91191211,3.67618945 7.42710937,3.66819141 C7.48850977,3.66716602 7.54285547,3.6282832 7.56344531,3.57041016 L7.71048633,3.15684961 C7.72648242,3.11189648 7.7195918,3.06177539 7.6920293,3.02285156 C7.6644668,2.98364062 7.6195957,2.96038477 7.57185352,2.96038477 Z M6.92634961,2.25815625 C6.92917969,2.25758203 6.93287109,2.2567207 6.93758789,2.2567207 C6.95169727,2.2567207 6.97380469,2.26365234 7.00345898,2.30351953 C7.00903711,2.31098437 7.02691992,2.33653711 7.0224082,2.34773437 C7.00555078,2.38940625 6.90399609,2.45814844 6.69247852,2.52045117 C6.78550195,2.33899805 6.87647461,2.26820508 6.92634961,2.25815625 Z M6.03836133,4.19118164 C5.88894141,4.14266016 5.73673242,4.06567383 5.63132227,3.94377539 C5.51549414,3.80977734 5.47275586,3.6403418 5.50076953,3.42599414 C5.50503516,3.41471484 5.5145918,3.39248437 5.5314082,3.36360938 C5.73849609,3.34466016 6.29163281,3.42624023 6.32998242,3.58468359 C6.15935742,3.67175977 6.03368555,3.79427344 6.01916602,3.96834375 C6.01194727,4.05558398 6.02080664,4.12953516 6.03836133,4.19118164 Z" id="Shape"></path>
                <path d="M9.17257031,0.846029297 L9.0255293,0.404865234 C9.00186328,0.333908203 8.92824023,0.291580078 8.85531445,0.307617187 C8.78201953,0.323244141 8.73226758,0.391453125 8.73973242,0.465978516 C8.84116406,1.48062305 9.03311719,3.45942187 9.03311719,3.68632031 C9.03311719,3.89004492 8.67070313,4.29130078 8.08508203,4.58411133 C8.01240234,4.62045117 7.98299414,4.70875781 8.01933398,4.78139648 C8.04513281,4.83295312 8.09701758,4.86268945 8.15099414,4.86268945 C8.17301953,4.86268945 8.19549609,4.85768555 8.21661914,4.84714453 C8.75150391,4.57964062 9.32724023,4.10230078 9.32724023,3.68632031 C9.32724023,3.46906055 9.17695898,1.90587305 9.0909082,1.02772852 C9.16059375,0.998115234 9.19701563,0.919283203 9.17257031,0.846029297 Z" id="Path"></path>
                <path d="M10.3995938,2.17288477 C10.4278945,2.20118555 10.4655059,2.21595117 10.5036504,2.21595117 C10.5285059,2.21595117 10.5535664,2.20963477 10.5763301,2.19671484 C10.633834,2.16394336 10.6623809,2.09675977 10.6460977,2.03261133 C10.6197656,1.92921094 10.6109883,1.7999707 10.6249336,1.74710156 C10.6985977,1.74939844 10.7669707,1.69698047 10.7777578,1.62101953 C10.7892422,1.54058789 10.7333789,1.4660625 10.6530703,1.45457812 C10.5558223,1.44137109 10.4705098,1.46995898 10.410832,1.53628125 C10.3721953,1.57934766 10.3492266,1.63463672 10.3367168,1.69410937 L10.1663789,1.52377148 C10.108916,1.46630859 10.0158926,1.46630859 9.95842969,1.52377148 C9.9009668,1.58123438 9.9009668,1.67425781 9.95842969,1.7317207 L10.3995938,2.17288477 Z" id="Path"></path>
                <path d="M10.7303438,2.32624219 L10.1789297,2.72142773 C10.1129766,2.76867773 10.0977598,2.86059375 10.1450508,2.92666992 C10.1737617,2.96674219 10.2189199,2.98798828 10.2647344,2.98798828 C10.2944297,2.98798828 10.3243301,2.97908789 10.3502109,2.96042578 L10.901625,2.56524023 C10.9675781,2.51799023 10.9827949,2.42607422 10.9355039,2.35999805 C10.8881309,2.29392187 10.7960918,2.27858203 10.7303438,2.32624219 Z" id="Path"></path>
                <path d="M10.6815352,2.87921484 C10.6353105,2.93881055 10.6419141,3.0226875 10.6944141,3.07424414 C10.7007305,3.08486719 10.7293594,3.14118164 10.7241914,3.28592578 C10.7213203,3.36721875 10.7847715,3.43530469 10.8659004,3.43813477 C10.8677051,3.43829883 10.8694688,3.43829883 10.8712324,3.43829883 C10.9500645,3.43829883 11.0152793,3.37583203 11.0181504,3.29658984 C11.0288555,2.99647852 10.930623,2.88676172 10.8879258,2.85358008 C10.8238594,2.80341797 10.7313691,2.81518945 10.6815352,2.87921484 Z" id="Path"></path>
                <path d="M11.96475,3.96210938 C12.0459199,3.96210938 12.111791,3.89636133 12.111791,3.81506836 C12.111791,3.5980957 12.1006758,3.35593945 12.0823828,3.10389844 C12.2281934,3.34281445 12.3493125,3.56310937 12.4269551,3.74423437 C12.4507852,3.80009766 12.5050488,3.83340234 12.5621836,3.83340234 C12.581502,3.83340234 12.6011895,3.82966992 12.6200566,3.82150781 C12.6946641,3.78947461 12.7292813,3.70305469 12.697248,3.6285293 C12.5626348,3.31439062 12.3110449,2.89820508 12.0245098,2.46856641 C11.9668008,1.9288418 11.8914551,1.40002734 11.8329258,1.02063281 C11.8640977,1.02379102 11.896377,1.01616211 11.9247598,0.997828125 C11.9711895,0.968050781 11.9929688,0.916453125 11.9898516,0.864978516 C11.993625,0.879416016 11.9976445,0.893935547 12.0060938,0.907224609 C12.0071191,0.908660156 12.1015781,1.06472461 12.0596602,1.26725977 C12.0432129,1.34666602 12.0943594,1.42451367 12.1738887,1.44100195 C12.1839375,1.44301172 12.1939863,1.44403711 12.2038301,1.44403711 C12.2721211,1.44403711 12.3333164,1.39621289 12.3477129,1.32673242 C12.4141582,1.00549805 12.2608008,0.759650391 12.2542383,0.749355469 C12.2105566,0.681023437 12.119707,0.660884766 12.0511699,0.704238281 C12.0045352,0.733974609 11.9824688,0.785695312 11.9855039,0.837210937 C11.9817305,0.822650391 11.9775059,0.808048828 11.9689336,0.79471875 L11.7207891,0.408720703 C11.6828496,0.349822266 11.6086934,0.325992187 11.5436016,0.351257812 C11.4783457,0.376851562 11.4401191,0.444732422 11.4522598,0.513679687 C11.4543105,0.525205078 11.5666523,1.17050391 11.6662383,1.94820117 C11.5534863,1.78901953 11.4407754,1.63332422 11.3314688,1.48480664 C11.313668,1.26233789 11.2959082,1.05668555 11.2804863,0.886552734 C11.2885664,0.884091797 11.2965645,0.880974609 11.3043574,0.877078125 C11.3770371,0.840738281 11.4064453,0.752431641 11.3701055,0.679792969 L11.2230645,0.385669922 C11.1913184,0.32221875 11.1188438,0.290595703 11.0506758,0.310119141 C10.9825488,0.329970703 10.9381699,0.395390625 10.9451836,0.466101562 C10.9626973,0.641607422 10.9809492,0.835857422 10.9989141,1.03991016 C10.9059316,0.917314453 10.8198398,0.805095703 10.7462168,0.7100625 C10.7605723,0.697716797 10.772877,0.682335937 10.7819004,0.664248047 C10.8182402,0.591568359 10.78875,0.503261719 10.7161523,0.466962891 L10.4220293,0.319921875 C10.3603828,0.289160156 10.2854883,0.305279297 10.2418477,0.35896875 C10.1984941,0.412699219 10.1982891,0.489357422 10.2414375,0.543333984 C10.2493945,0.55321875 10.6113984,1.00705664 11.0445234,1.5928418 C11.1196641,2.56437891 11.1696211,3.57504492 11.0989922,3.78689062 C11.0860723,3.82565039 11.0635137,3.87130078 11.0423496,3.87290039 C10.9534688,3.88524609 10.741377,3.68652539 10.6348184,3.47357227 C10.573418,3.35093555 10.4851113,3.33813867 10.4379023,3.3403125 C10.2798691,3.3500332 10.2182227,3.52398047 10.106127,3.8395957 C10.0257773,4.06571484 9.92594531,4.34691797 9.81393164,4.46192578 C9.75322852,4.38776953 9.67472461,4.13880469 9.63108398,3.88299023 C9.6515918,3.9395918 9.70450195,3.98048437 9.7681582,3.98048437 C9.84932813,3.98048437 9.91519922,3.91473633 9.91519922,3.83344336 C9.91519922,3.61417383 9.7618418,1.94409961 9.67620117,1.02883594 C9.74769141,1.000125 9.78530273,0.920103516 9.76061133,0.846070312 L9.61357031,0.40490625 C9.58994531,0.333949219 9.51734766,0.292195312 9.44360156,0.307576172 C9.3704707,0.323121094 9.32055469,0.391001953 9.32765039,0.465404297 C9.42760547,1.51441992 9.61500586,3.54055078 9.62083008,3.82019531 C9.62046094,3.81769336 9.61996875,3.81519141 9.61959961,3.81273047 C9.60815625,3.73229883 9.53313867,3.67717383 9.45324023,3.68791992 C9.37280859,3.69956836 9.31706836,3.77392969 9.32855273,3.85436133 C9.37149609,4.15492383 9.48117188,4.6717207 9.73395117,4.75588477 C9.75388477,4.76265234 9.78075,4.76864062 9.81229102,4.76864062 C9.87024609,4.76864062 9.94391016,4.7480918 10.0192148,4.67274609 C10.1793809,4.51262109 10.2877441,4.2073418 10.3833926,3.93811523 C10.4050078,3.87720703 10.4305605,3.80514258 10.4546777,3.74341406 C10.5895781,3.94045312 10.8249668,4.18568555 11.0633906,4.1664082 C11.1472266,4.16037891 11.2997227,4.11530273 11.3781445,3.88007812 C11.4563613,3.64546875 11.4254355,2.82745312 11.3727305,2.04425977 C11.4965977,2.21791992 11.6205879,2.39568164 11.738959,2.57131055 C11.7848145,3.0116543 11.817627,3.45281836 11.817627,3.81519141 C11.817709,3.89636133 11.8835801,3.96210938 11.96475,3.96210938 Z" id="Path"></path>
                <path d="M13.0806621,3.18871875 C12.9764414,2.41270313 12.8313691,1.51380469 12.7394531,0.9620625 C12.7809609,0.972275391 12.8261602,0.963908203 12.8626641,0.935935547 C12.9273047,0.886675781 12.9396504,0.794349609 12.8903906,0.729873047 L12.6238711,0.380625 C12.5826914,0.326894531 12.5102168,0.307945313 12.4481191,0.335097656 C12.3859805,0.36225 12.350543,0.428285156 12.3621094,0.495058594 C12.3647754,0.510111328 12.6269883,2.01965039 12.7891641,3.22768359 C12.8511387,3.68935547 12.7606582,4.10189063 12.5470488,4.33104492 C12.4097695,4.47825 12.2278242,4.54490039 12.0076934,4.5320625 C11.9268516,4.52775586 11.8567969,4.58866406 11.8516699,4.66962891 C11.846543,4.75059375 11.9081074,4.82040234 11.9891543,4.82561133 C12.0140098,4.82721094 12.0384551,4.8279082 12.0627363,4.8279082 C12.340043,4.8279082 12.5806816,4.72623047 12.7621348,4.53148828 C13.0392363,4.23437109 13.1553516,3.74484961 13.0806621,3.18871875 Z" id="Path"></path>
                <path d="M11.4630469,4.15795898 C11.4089883,4.21669336 11.4131309,4.30914258 11.4702656,4.36463672 C11.4782637,4.37238867 11.4877793,4.38760547 11.4878613,4.39507031 C11.4879023,4.39921289 11.4819551,4.41155859 11.4656309,4.42796484 C11.408168,4.48542773 11.408168,4.57845117 11.4656309,4.63591406 C11.4943418,4.664625 11.5319531,4.67898047 11.5695645,4.67898047 C11.6071758,4.67898047 11.6447871,4.664625 11.673498,4.63591406 C11.7667676,4.54272656 11.7838711,4.44810352 11.7817383,4.3850625 C11.7772266,4.2493418 11.6848184,4.16173242 11.6663613,4.14553125 C11.6064375,4.09319531 11.5170645,4.09951172 11.4630469,4.15795898 Z" id="Path"></path>
                <path d="M10.9446914,7.38268945 L10.7976504,7.38268945 L9.9154043,7.38268945 L9.9154043,7.23564844 C9.9154043,7.15435547 9.8495332,7.08860742 9.76836328,7.08860742 C9.68719336,7.08860742 9.62132227,7.15435547 9.62132227,7.23564844 L9.62132227,7.38268945 L1.82790234,7.38268945 C2.12202539,7.6768125 2.71014844,7.8238125 3.1513125,7.8238125 C3.46766602,7.8238125 7.41414844,7.8238125 9.62124023,7.8238125 L9.62124023,8.11793555 C9.62124023,8.19922852 9.68707031,8.26497656 9.76828125,8.26497656 L10.9446504,8.26497656 C11.1879141,8.26497656 11.3857734,8.06707617 11.3857734,7.8238125 C11.3857734,7.58058984 11.187873,7.38268945 10.9446914,7.38268945 Z M10.9446914,7.97089453 L9.91536328,7.97089453 L9.91536328,7.82385352 C10.6240312,7.82385352 11.0917324,7.82385352 11.0917324,7.82385352 L11.0653184,7.74473438 C11.0805762,7.7679082 11.0917324,7.79403516 11.0917324,7.82385352 C11.0916914,7.90498242 11.0257383,7.97089453 10.9446914,7.97089453 Z" id="Shape"></path>
            </g>
        </g>
    </g>
</svg>