<?xml version="1.0" encoding="UTF-8"?>
<svg width="24px" height="24px" viewBox="0 0 24 24" version="1.1" xmlns="http://www.w3.org/2000/svg" xmlns:xlink="http://www.w3.org/1999/xlink">
    <title>icons/long-arrow left</title>
    <g id="icons/long-arrow-left" stroke="none" stroke-width="1" fill="none" fill-rule="evenodd">
        <path d="M14.2843055,4.58859116 L14.3535534,4.64644661 L21.3535534,11.6464466 L21.3654113,11.6587136 C21.3770608,11.6711813 21.3880797,11.6842458 21.3984173,11.6978561 L21.3535534,11.6464466 C21.3803877,11.6732809 21.4035342,11.7024064 21.422993,11.7331935 C21.4299807,11.7443175 21.4367067,11.7559533 21.4429657,11.7678728 C21.4502504,11.7817243 21.4566485,11.7954611 21.4623894,11.8094049 C21.4675915,11.8219749 21.4724419,11.8352631 21.4767316,11.8488008 C21.481552,11.8641653 21.4856039,11.8795257 21.4889143,11.8950129 C21.4912332,11.905629 21.4932062,11.9166163 21.4948142,11.9277219 C21.4973429,11.945461 21.4989382,11.9629328 21.4996194,11.9804335 C21.4998635,11.9863952 21.5,11.9931817 21.5,12 L21.4995793,12.0205695 C21.498877,12.0377348 21.4972949,12.0548708 21.4948333,12.0719041 L21.5,12 C21.5,12.036097 21.4961748,12.0713007 21.4889078,12.1052277 C21.4856039,12.1204743 21.481552,12.1358347 21.4767587,12.1510116 C21.4724419,12.1647369 21.4675915,12.1780251 21.4622078,12.1910366 C21.4566485,12.2045389 21.4502504,12.2182757 21.443195,12.2317582 C21.4367067,12.2440467 21.4299807,12.2556825 21.422812,12.2670103 C21.4192668,12.2727019 21.4154054,12.2785364 21.4114088,12.2843055 L21.3984173,12.3021439 C21.3880797,12.3157542 21.3770608,12.3288187 21.3654113,12.3412864 L21.3535534,12.3535534 L14.3535534,19.3535534 C14.1582912,19.5488155 13.8417088,19.5488155 13.6464466,19.3535534 C13.4728803,19.179987 13.4535951,18.9105626 13.5885912,18.7156945 L13.6464466,18.6464466 L19.793,12.5 L3,12.5 C2.72385763,12.5 2.5,12.2761424 2.5,12 C2.5,11.7545401 2.67687516,11.5503916 2.91012437,11.5080557 L3,11.5 L19.793,11.5 L13.6464466,5.35355339 C13.4728803,5.17998704 13.4535951,4.91056264 13.5885912,4.7156945 L13.6464466,4.64644661 C13.820013,4.47288026 14.0894374,4.45359511 14.2843055,4.58859116 Z" id="Combined-Shape" fill="#000000" transform="translate(12.000000, 12.000000) scale(-1, 1) translate(-12.000000, -12.000000) "></path>
    </g>
</svg>