<?xml version="1.0" encoding="UTF-8"?>
<svg width="24px" height="24px" viewBox="0 0 24 24" version="1.1" xmlns="http://www.w3.org/2000/svg" xmlns:xlink="http://www.w3.org/1999/xlink">
    <title>icons/shipping</title>
    <g id="icons/shipping" stroke="none" stroke-width="1" fill="none" fill-rule="evenodd">
        <g id="truck" transform="translate(1.000000, 3.000000)" fill="#000000">
            <path d="M14.6363636,0.5 C14.912506,0.5 15.1363636,0.723857625 15.1363636,1 L15.1363636,1 L15.136,5.045 L18.2727273,5.04545455 C18.3788139,5.04545455 18.4814244,5.07916873 18.5662345,5.14066372 L18.6262807,5.19190115 L21.3535534,7.91917388 C21.4473216,8.01294207 21.5,8.14011903 21.5,8.27272727 L21.5,8.27272727 L21.5,12.8181818 C21.5,13.0943242 21.2761424,13.3181818 21,13.3181818 L21,13.3181818 L19.0412422,13.3182443 C19.4412346,13.7988247 19.6818182,14.4167713 19.6818182,15.0909091 C19.6818182,16.6222441 18.4404259,17.8636364 16.9090909,17.8636364 C15.3777559,17.8636364 14.1363636,16.6222441 14.1363636,15.0909091 C14.1363636,14.4167713 14.3769472,13.7988247 14.7769397,13.3182443 L7.22306034,13.3182443 C7.62305275,13.7988247 7.86363636,14.4167713 7.86363636,15.0909091 C7.86363636,16.6222441 6.62224408,17.8636364 5.09090909,17.8636364 C3.5595741,17.8636364 2.31818182,16.6222441 2.31818182,15.0909091 C2.31818182,14.4167713 2.55876543,13.7988247 2.95875784,13.3182443 L1,13.3181818 C0.723857625,13.3181818 0.5,13.0943242 0.5,12.8181818 L0.5,12.8181818 L0.5,1 C0.5,0.723857625 0.723857625,0.5 1,0.5 L1,0.5 Z M5.09090909,13.3181818 C4.11185885,13.3181818 3.31818182,14.1118589 3.31818182,15.0909091 C3.31818182,16.0699593 4.11185885,16.8636364 5.09090909,16.8636364 C6.06995933,16.8636364 6.86363636,16.0699593 6.86363636,15.0909091 C6.86363636,14.1118589 6.06995933,13.3181818 5.09090909,13.3181818 Z M16.9090909,13.3181818 C15.9300407,13.3181818 15.1363636,14.1118589 15.1363636,15.0909091 C15.1363636,16.0699593 15.9300407,16.8636364 16.9090909,16.8636364 C17.8881411,16.8636364 18.6818182,16.0699593 18.6818182,15.0909091 C18.6818182,14.1118589 17.8881411,13.3181818 16.9090909,13.3181818 Z M18.065,6.045 L15.136,6.045 L15.136,12.318 L20.5,12.318 L20.5,8.48 L18.065,6.045 Z M14.136,1.5 L1.5,1.5 L1.5,12.318 L14.136,12.318 L14.136,1.5 Z" id="Combined-Shape"></path>
        </g>
    </g>
</svg>