<?xml version="1.0" encoding="utf-8"?>
<!-- Generator: Adobe Illustrator 19.2.0, SVG Export Plug-In . SVG Version: 6.00 Build 0)  -->
<svg version="1.1" id="directionarrow" xmlns="http://www.w3.org/2000/svg" xmlns:xlink="http://www.w3.org/1999/xlink" x="0px"
	 y="0px" viewBox="0 0 201.6633 201.8018" enable-background="new 0 0 201.6633 201.8018" xml:space="preserve">
<path fill="#D1D3D4" d="M200.4911,1.173c-1.152-1.1544-2.8848-1.4904-4.3828-0.8576L2.3076,82.0438
	c-1.2264,0.5176-1.988,1.7384-2.244,3.0452c-0.256,1.3064,0.2832,2.7812,1.2248,3.7224c0.75,0.75,1.7676,1.172,2.828,1.172h107.5644
	v107.5624c0,1.0548,0.672,2.3244,1.414,3.0744c0.76,0.7636,1.7832,1.1816,2.84,1.1816c0.252,0,0.5076-0.0236,0.7596-0.0724
	c1.3108-0.254,2.4084-1.1444,2.926-2.3732L201.3488,5.5558C201.9816,4.0558,201.6416,2.323,200.4911,1.173z"/>
</svg>
