<?xml version="1.0" encoding="UTF-8"?>
<svg width="24px" height="24px" viewBox="0 0 24 24" version="1.1" xmlns="http://www.w3.org/2000/svg" xmlns:xlink="http://www.w3.org/1999/xlink">
    <title>icons/favorites</title>
    <g id="icons/favorites" stroke="none" stroke-width="1" fill="none" fill-rule="evenodd">
        <path d="M16.4766609,2.53417934 C19.7983319,2.53417934 22.5,5.23584746 22.5,8.55751846 C22.5,9.95093833 22.0648024,11.4442521 21.214056,12.9967222 C20.5100769,14.2813588 19.514152,15.6048678 18.3324803,16.8282144 C16.0709033,19.1695109 13.5125211,20.8045042 12,20.8045042 C11.1986128,20.8045042 10.1901112,20.3688426 8.96905803,19.5264544 C7.88689061,18.7798571 6.71244756,17.750927 5.65700529,16.6259039 C3.26264906,14.073798 1.5,11.2193916 1.5,8.55747924 C1.5,5.23581471 4.20166166,2.53417934 7.52333912,2.53417934 C8.67364877,2.53417934 9.79279489,2.86002782 10.7589812,3.47642903 C11.0713416,3.67570948 11.3637419,3.90254087 11.6329363,4.1537529 L11.8304304,4.34668376 L11.999672,4.52785546 L12.1695013,4.34674687 C12.3625405,4.14934648 12.569103,3.96520321 12.7878112,3.79565874 L13.0105169,3.63103021 L13.2410136,3.47643237 C14.2071612,2.86002873 15.3263105,2.53417934 16.4766609,2.53417934 Z M16.4766609,3.53417934 C15.6126184,3.53417934 14.7708936,3.75412618 14.0381372,4.16349662 L13.7980398,4.30692725 L13.5864127,4.44855327 C13.3974214,4.58168634 13.2180264,4.72744449 13.0555389,4.8783835 L12.8989581,5.03077375 L11.9982792,5.99127151 L11.1154691,5.04584787 C10.846452,4.77075246 10.5464842,4.52703909 10.2211401,4.31947525 C9.41584658,3.80571938 8.48334829,3.53417934 7.52333912,3.53417934 C4.75394173,3.53417934 2.5,5.78810414 2.5,8.55747924 C2.5,10.7131007 3.8938964,13.2850912 6.38630532,15.9417099 C7.39564196,17.0175878 8.51674914,17.9995053 9.53692005,18.7033306 C10.6208971,19.4511518 11.4537952,19.8045042 12,19.8045042 C13.1501182,19.8045042 15.4994024,18.3218023 17.6132285,16.1334649 C18.7361335,14.9709576 19.6782276,13.7184765 20.3370988,12.5161537 C21.1137002,11.0989859 21.5,9.7674683 21.5,8.55751846 C21.5,5.78813221 19.2460471,3.53417934 16.4766609,3.53417934 Z" id="Path" fill="#000000"></path>
    </g>
</svg>