<?xml version="1.0" encoding="UTF-8"?>
<svg width="60px" height="42px" viewBox="0 0 60 42" version="1.1" xmlns="http://www.w3.org/2000/svg" xmlns:xlink="http://www.w3.org/1999/xlink">
    <title>icons/player</title>
    <g id="icons/player" stroke="none" stroke-width="1" fill="none" fill-rule="evenodd">
        <path d="M57.6613548,3.60540139 C55.4955484,1.04458073 51.4968387,0 43.8601935,0 L16.1392258,0 C8.32780645,0 4.26135484,1.11196062 2.10367742,3.83834328 C7.10542736e-15,6.496576 7.10542736e-15,10.4132725 7.10542736e-15,15.8340805 L7.10542736e-15,26.166112 C7.10542736e-15,36.6679409 2.496,42 16.1392258,42 L43.8603871,42 C50.4828387,42 54.1525161,41.0782432 56.5265806,38.8183218 C58.9612258,36.5008388 60,32.716977 60,26.166112 L60,15.8340805 C60,10.1173785 59.8372258,6.17758037 57.6613548,3.60540139 Z M38.5201935,22.4265284 L25.9321935,28.9702703 C25.6507742,29.116581 25.3430323,29.1891587 25.0356774,29.1891587 C24.6876774,29.1891587 24.3404516,29.095982 24.0329032,28.9107835 C23.4538065,28.5617557 23.1001935,27.937433 23.1001935,27.2640191 L23.1001935,14.2185033 C23.1001935,13.5462446 23.4528387,12.9224994 24.0307742,12.5732791 C24.6089032,12.2240587 25.3279355,12.200187 25.9277419,12.5101345 L38.5157419,19.0117158 C39.1561935,19.3424548 39.5583871,20.0000825 39.559356,20.717582 C39.560129,21.4356591 39.1596774,22.0942493 38.5201935,22.4265284 Z" id="XMLID_823_" fill="#FFFFFF" fill-rule="nonzero"></path>
    </g>
</svg>